<svg width="369" height="373" viewBox="0 0 369 373" fill="none" xmlns="http://www.w3.org/2000/svg">
<g clip-path="url(#clip0_1_7)">
<path d="M97.2495 56.5872C93.0192 56.3499 89.242 59.0452 85.7761 61.4997C83.0002 63.465 79.5058 64.4129 75.8815 63.8966C68.315 62.8189 63.0487 55.7677 64.1189 48.1476C65.1892 40.5275 72.1907 35.2239 79.7572 36.3017C83.5205 36.8378 86.715 38.8516 88.8434 41.6782C92.0475 45.9324 95.9024 50.9291 101.196 51.226C105.312 51.4568 108.933 48.719 112.133 46.1016C113.002 45.3911 113.971 44.7761 115.031 44.2792C121.96 41.0333 130.19 44.0587 133.413 51.0367C136.636 58.0147 133.632 66.3027 126.703 69.5486C125.771 69.9852 124.816 70.3083 123.852 70.5236C119.237 71.5549 114.032 72.8038 111.504 76.8264L110.112 79.0403C108.445 81.6917 108.965 85.0447 110.203 87.9246C111.331 90.5484 113.148 93.1426 115.883 93.911L117.826 94.4569C122.726 95.8337 127.744 92.5319 131.881 89.5519C138.097 85.0751 146.74 86.5199 151.185 92.7792C155.631 99.0394 154.196 107.743 147.98 112.22C141.765 116.698 133.123 115.252 128.677 108.993C126.343 105.706 123.741 102.184 119.876 101.099L119.634 101.03C114.412 99.5637 109.017 102.905 104.299 105.593C102.291 106.736 99.9702 107.389 97.4985 107.389C89.8567 107.389 83.6614 101.15 83.6614 93.454C83.6614 85.7579 89.8567 79.5193 97.4985 79.5193C100.573 79.5193 103.874 78.6277 105.519 76.0113L108.528 71.2252C110.104 68.7181 109.564 65.4815 108.321 62.7911C106.942 59.8046 104.498 56.9937 101.232 56.8106L97.2495 56.5872Z" fill="black"/>
<path d="M49.8374 100.162C54.7524 102.183 60.5549 104.71 62.1135 109.819L62.8651 112.284C64.2851 116.939 62.2791 121.916 60.8844 126.58C60.7673 126.971 60.6663 127.371 60.5821 127.779C59.0276 135.314 63.8329 142.691 71.3149 144.257C75.3496 145.101 79.3387 144.083 82.4023 141.784C86.4829 138.721 91.4672 135.329 96.3827 136.655C100.195 137.684 102.68 141.255 104.729 144.652C107.156 148.674 111.548 151.361 116.562 151.361C124.204 151.361 130.399 145.122 130.399 137.426C130.399 129.73 124.204 123.491 116.562 123.491C113.714 123.491 111.068 124.358 108.868 125.842C104.522 128.776 99.3763 132.164 94.3232 130.801C90.4394 129.753 87.85 126.182 85.6024 122.824C83.6558 119.915 80.6237 117.74 76.9441 116.97C73.0263 116.15 68.7719 114.219 67.5969 110.367L65.8563 104.661C64.6354 100.658 66.3055 96.4034 67.8767 92.5262C70.7641 85.4007 67.3693 77.2669 60.294 74.359C53.2187 71.451 45.1423 74.87 42.2548 81.9957C39.3673 89.1211 42.7622 97.2543 49.8374 100.162Z" fill="black"/>
<path d="M46.2626 123.661C44.4101 128.232 39.2283 130.425 34.689 128.56C30.1496 126.695 27.9715 121.476 29.824 116.905C31.6766 112.332 36.8583 110.139 41.3977 112.005C45.9371 113.871 48.1152 119.089 46.2626 123.661Z" fill="black"/>
<path d="M233.223 33.2835C230.771 29.8037 226.324 28.5087 222.258 27.3086C219.002 26.3477 216.088 24.186 214.23 21.0098C210.352 14.3788 212.545 5.83677 219.129 1.93058C225.714 -1.97561 234.195 0.23326 238.074 6.86423C240.003 10.1623 240.43 13.9332 239.562 17.3713C238.255 22.5461 236.777 28.6964 239.846 33.0506C242.232 36.436 246.615 37.5818 250.641 38.4706C251.735 38.7118 252.816 39.0914 253.863 39.6172C260.702 43.0513 263.481 51.4185 260.071 58.3057C256.662 65.193 248.353 67.9924 241.514 64.5583C240.594 64.0965 239.748 63.5454 238.981 62.9207C235.304 59.9285 231.09 56.6078 226.39 57.1231L223.804 57.4068C220.706 57.7464 218.426 60.2461 216.962 63.0153C215.626 65.5392 214.745 68.5871 215.853 71.2202L216.64 73.0908C218.625 77.8073 224.316 79.7023 229.208 81.1035C236.559 83.2086 240.823 90.916 238.733 98.3183C236.643 105.721 228.99 110.015 221.639 107.91C214.289 105.806 210.024 98.0982 212.115 90.695C213.212 86.809 214.326 82.5643 212.76 78.8447L212.662 78.611C210.547 73.5842 204.589 71.4188 199.562 69.3768C197.422 68.5078 195.469 67.0871 193.929 65.1404C189.167 59.1219 190.15 50.3547 196.126 45.5583C202.102 40.7619 210.808 41.7527 215.57 47.7713C217.487 50.193 220.236 52.2369 223.293 51.9017L228.885 51.2885C231.814 50.9673 233.991 48.5251 235.306 45.8697C236.765 42.922 237.425 39.2454 235.532 36.5594L233.223 33.2835Z" fill="black"/>
<path d="M169.837 23.0998C171.331 28.2296 172.985 34.3743 169.988 38.7869L168.543 40.9144C165.813 44.9344 160.698 46.456 156.208 48.2641C155.831 48.4158 155.457 48.5855 155.088 48.7734C148.268 52.2453 145.534 60.6276 148.982 67.4961C150.84 71.1998 154.117 73.707 157.811 74.6867C162.733 75.9918 168.474 77.8031 170.508 82.5016C172.084 86.1452 170.86 90.3274 169.499 94.0582C167.888 98.4766 168.539 103.61 171.664 107.559C176.427 113.577 185.132 114.568 191.108 109.772C197.085 104.976 198.069 96.209 193.306 90.1897C191.531 87.9477 189.209 86.4029 186.685 85.5961C181.699 84.0016 175.86 82.0598 173.769 77.2305C172.163 73.5189 173.323 69.2533 174.529 65.391C175.574 62.0451 175.374 58.3012 173.679 54.9235C171.874 51.327 170.721 46.773 172.98 43.4468L176.328 38.5191C178.675 35.0627 183.019 33.7268 187.009 32.5479C194.342 30.3813 198.542 22.6383 196.39 15.2536C194.24 7.86896 186.551 3.6389 179.218 5.80554C171.886 7.97219 167.685 15.7151 169.837 23.0998Z" fill="black"/>
<path d="M149.362 34.929C144.658 36.3191 139.725 33.6052 138.345 28.8673C136.964 24.1294 139.659 19.1617 144.364 17.7717C149.068 16.3816 154.001 19.0955 155.381 23.8334C156.762 28.5713 154.067 33.539 149.362 34.929Z" fill="black"/>
<path d="M336.756 123.07C337.882 118.957 336.066 114.668 334.417 110.737C333.098 107.59 332.918 103.949 334.186 100.491C336.834 93.2717 344.791 89.5809 351.96 92.2472C359.128 94.9134 362.793 102.928 360.146 110.147C358.828 113.738 356.198 116.455 353.004 117.952C348.198 120.205 342.532 122.942 341.123 128.09C340.028 132.092 341.919 136.236 343.782 139.939C344.287 140.944 344.679 142.028 344.937 143.178C346.62 150.684 341.942 158.144 334.488 159.839C327.033 161.535 319.626 156.823 317.943 149.316C317.716 148.307 317.605 147.298 317.6 146.304C317.576 141.543 317.466 136.156 314.097 132.815L312.244 130.977C310.024 128.776 306.659 128.578 303.603 129.186C300.817 129.741 297.915 130.98 296.59 133.51L295.65 135.307C293.277 139.837 295.419 145.477 297.434 150.179C300.464 157.244 297.231 165.446 290.216 168.496C283.2 171.546 275.057 168.292 272.028 161.227C268.999 154.161 272.231 145.96 279.247 142.91C282.929 141.308 286.899 139.493 288.77 135.919L288.888 135.694C291.416 130.865 289.315 124.849 287.706 119.635C287.021 117.416 286.879 114.994 287.402 112.561C289.02 105.04 296.386 100.263 303.854 101.892C311.323 103.521 316.066 110.939 314.449 118.46C313.798 121.487 313.965 124.925 316.155 127.097L320.163 131.072C322.263 133.154 325.518 133.308 328.392 132.654C331.582 131.928 334.827 130.119 335.696 126.943L336.756 123.07Z" fill="black"/>
<path d="M304.504 67.1796C301.503 71.5897 297.823 76.7659 292.534 77.2183L289.984 77.4364C285.164 77.8486 280.759 74.8207 276.529 72.4608C276.174 72.2627 275.807 72.0786 275.429 71.9094C268.445 68.7843 260.269 71.9523 257.166 78.9852C255.493 82.7778 255.636 86.9193 257.219 90.4211C259.328 95.086 261.565 100.71 259.236 105.268C257.432 108.802 253.44 110.492 249.71 111.789C245.293 113.327 241.756 117.081 240.694 122.016C239.076 129.538 243.819 136.956 251.288 138.585C258.757 140.215 266.123 135.438 267.74 127.916C268.343 125.113 268.063 122.325 267.087 119.846C265.161 114.948 262.961 109.165 265.354 104.48C267.194 100.88 271.207 99.0858 274.941 97.585C278.176 96.2843 280.929 93.7605 282.455 90.3019C284.08 86.6191 286.855 82.8403 290.842 82.4993L296.748 81.9942C300.892 81.6396 304.667 84.1842 308.097 86.5519C314.4 90.9022 323.013 89.2821 327.332 82.9339C331.652 76.5854 330.044 67.9123 323.739 63.5619C317.436 59.2115 308.824 60.8313 304.504 67.1796Z" fill="black"/>
<path d="M282.457 58.6871C278.413 55.896 277.382 50.3315 280.153 46.2585C282.924 42.1855 288.449 41.1463 292.494 43.9374C296.538 46.7285 297.57 52.293 294.799 56.366C292.027 60.4391 286.502 61.4782 282.457 58.6871Z" fill="black"/>
<path d="M332.066 262.018C335.917 260.24 338.009 256.081 339.937 252.281C341.481 249.239 344.133 246.758 347.577 245.512C354.769 242.909 362.694 246.671 365.278 253.913C367.863 261.155 364.127 269.137 356.936 271.74C353.359 273.034 349.601 272.754 346.408 271.254C341.603 268.997 335.878 266.389 331.059 268.615C327.312 270.344 325.377 274.468 323.76 278.286C323.321 279.323 322.749 280.323 322.041 281.261C317.417 287.387 308.736 288.579 302.652 283.922C296.569 279.265 295.386 270.523 300.01 264.396C300.632 263.572 301.327 262.837 302.079 262.194C305.683 259.113 309.708 255.562 310.081 250.816L310.286 248.204C310.532 245.076 308.518 242.354 306.089 240.389C303.875 238.598 301.066 237.158 298.29 237.764L296.319 238.194C291.348 239.279 288.44 244.558 286.161 249.138C282.738 256.018 274.425 258.801 267.592 255.355C260.76 251.907 257.996 243.535 261.419 236.654C264.842 229.773 273.155 226.99 279.988 230.437C283.575 232.246 287.508 234.139 291.428 233.283L291.675 233.229C296.973 232.073 300.196 226.583 303.124 221.988C304.371 220.033 306.12 218.365 308.306 217.203C315.065 213.612 323.435 216.219 327.001 223.025C330.567 229.832 327.979 238.262 321.22 241.853C318.5 243.298 315.994 245.638 315.751 248.725L315.308 254.372C315.076 257.329 317.053 259.939 319.399 261.734C322.003 263.727 325.466 265.065 328.439 263.692L332.066 262.018Z" fill="black"/>
<path d="M353.809 201.197C348.526 201.72 342.222 202.212 338.476 198.425L336.67 196.598C333.257 193.148 332.725 187.804 331.797 183.024C331.72 182.623 331.624 182.221 331.509 181.821C329.393 174.426 321.724 170.159 314.382 172.291C310.422 173.44 307.366 176.215 305.722 179.689C303.531 184.315 300.695 189.658 295.732 190.795C291.884 191.676 288.032 189.685 284.645 187.644C280.635 185.227 275.506 184.915 271.071 187.271C264.312 190.863 261.723 199.292 265.289 206.099C268.855 212.905 277.225 215.512 283.984 211.92C286.502 210.583 288.442 208.573 289.7 206.225C292.184 201.589 295.166 196.173 300.267 195.005C304.187 194.107 308.133 196.048 311.675 197.962C314.745 199.619 318.435 200.119 322.046 199.07C325.891 197.954 330.549 197.662 333.373 200.517L337.557 204.747C340.491 207.713 340.985 212.261 341.392 216.428C342.14 224.088 348.911 229.686 356.516 228.933C364.121 228.18 369.68 221.36 368.933 213.701C368.185 206.043 361.413 200.444 353.809 201.197Z" fill="black"/>
<path d="M346.083 178.734C345.603 173.821 349.169 169.445 354.049 168.962C358.928 168.479 363.272 172.071 363.752 176.985C364.232 181.898 360.665 186.274 355.786 186.757C350.907 187.241 346.562 183.648 346.083 178.734Z" fill="black"/>
<path d="M221.522 345.242C225.3 347.176 229.834 346.241 233.988 345.4C237.315 344.728 240.893 345.278 244.003 347.221C250.497 351.277 252.497 359.867 248.469 366.408C244.441 372.948 235.912 374.962 229.418 370.905C226.187 368.888 224.069 365.749 223.252 362.298C222.021 357.104 220.492 350.967 215.765 348.548C212.09 346.666 207.681 347.703 203.706 348.8C202.626 349.098 201.493 349.268 200.324 349.293C192.684 349.452 186.362 343.345 186.203 335.65C186.044 327.956 192.11 321.589 199.75 321.429C200.777 321.407 201.781 321.499 202.749 321.693C207.385 322.622 212.649 323.59 216.573 320.934L218.732 319.473C221.318 317.723 222.183 314.442 222.202 311.305C222.22 308.445 221.594 305.334 219.398 303.521L217.838 302.233C213.904 298.985 207.99 299.971 203.012 301.02C195.532 302.596 188.2 297.767 186.635 290.234C185.07 282.701 189.865 275.317 197.345 273.741C204.825 272.165 212.157 276.994 213.721 284.527C214.543 288.481 215.516 292.761 218.618 295.322L218.813 295.483C223.006 298.944 229.279 298.074 234.674 297.529C236.969 297.297 239.355 297.641 241.617 298.644C248.611 301.744 251.785 309.968 248.707 317.011C245.628 324.055 237.462 327.252 230.468 324.152C227.654 322.904 224.276 322.381 221.724 324.109L217.055 327.269C214.61 328.923 213.809 332.105 213.87 335.071C213.938 338.364 215.051 341.929 217.966 343.422L221.522 345.242Z" fill="black"/>
<path d="M282.348 324.595C278.657 320.752 274.358 316.085 274.975 310.775L275.273 308.215C275.836 303.378 279.663 299.637 282.804 295.934C283.068 295.623 283.321 295.298 283.561 294.959C287.998 288.693 286.551 279.992 280.329 275.523C276.974 273.114 272.916 272.427 269.192 273.288C264.232 274.436 258.314 275.519 254.344 272.31C251.267 269.822 250.421 265.546 249.904 261.605C249.293 256.939 246.348 252.699 241.757 250.664C234.763 247.563 226.598 250.76 223.519 257.804C220.44 264.848 223.615 273.071 230.609 276.172C233.215 277.327 235.984 277.608 238.592 277.141C243.743 276.219 249.808 275.206 253.888 278.505C257.023 281.039 257.965 285.359 258.679 289.343C259.297 292.795 261.202 296.016 264.262 298.214C267.519 300.554 270.641 304.047 270.175 308.049L269.486 313.979C269.002 318.138 265.771 321.354 262.782 324.265C257.289 329.615 257.143 338.438 262.455 343.969C267.768 349.501 276.527 349.649 282.021 344.299C287.514 338.948 287.661 330.127 282.348 324.595Z" fill="black"/>
<path d="M295.019 304.539C298.543 301.106 304.164 301.201 307.572 304.75C310.981 308.299 310.887 313.959 307.363 317.392C303.838 320.824 298.218 320.73 294.809 317.18C291.401 313.631 291.495 307.971 295.019 304.539Z" fill="black"/>
<path d="M81.4674 307.398C82.1669 311.607 85.6088 314.725 88.7481 317.591C91.2615 319.885 92.948 323.111 93.2449 326.785C93.8637 334.455 88.191 341.179 80.5749 341.803C72.9579 342.427 66.2814 336.713 65.6622 329.043C65.3542 325.228 66.6028 321.647 68.8729 318.934C72.2897 314.851 76.2825 309.965 75.4064 304.699C74.7253 300.605 71.2772 297.649 68.0384 295.081C67.1593 294.384 66.3505 293.567 65.6361 292.635C60.9687 286.54 62.0905 277.79 68.1414 273.09C74.1923 268.39 82.8809 269.519 87.5483 275.613C88.1758 276.432 88.6993 277.3 89.1195 278.199C91.1334 282.507 93.4867 287.345 97.9395 288.946L100.39 289.827C103.324 290.881 106.459 289.633 108.975 287.784C111.27 286.099 113.383 283.743 113.526 280.887L113.628 278.858C113.884 273.742 109.583 269.537 105.787 266.128C100.084 261.006 99.5836 252.197 104.67 246.453C109.756 240.71 118.503 240.206 124.207 245.328C129.91 250.451 130.409 259.26 125.323 265.003C122.653 268.019 119.813 271.35 119.61 275.384L119.598 275.637C119.325 281.091 123.748 285.656 127.388 289.701C128.937 291.423 130.079 293.559 130.623 295.987C132.303 303.495 127.621 310.952 120.166 312.644C112.711 314.336 105.306 309.621 103.627 302.113C102.95 299.092 101.361 296.045 98.4654 295.005L93.1673 293.1C90.393 292.103 87.3762 293.345 85.0429 295.158C82.4535 297.169 80.2675 300.188 80.8078 303.436L81.4674 307.398Z" fill="black"/>
<path d="M134.1 344.4C134.976 339.127 136.148 332.871 140.756 330.217L142.978 328.936C147.175 326.518 152.437 327.396 157.261 327.741C157.665 327.769 158.075 327.781 158.489 327.773C166.13 327.644 172.22 321.302 172.092 313.607C172.023 309.457 170.159 305.762 167.259 303.258C163.395 299.922 159.013 295.771 159.218 290.649C159.377 286.678 162.29 283.453 165.13 280.693C168.492 277.424 170.13 272.519 169.027 267.592C167.348 260.084 159.942 255.37 152.487 257.061C145.032 258.752 140.35 266.211 142.031 273.718C142.657 276.515 144.077 278.926 145.999 280.76C149.796 284.384 154.21 288.696 153.999 293.96C153.838 298.006 150.948 301.335 148.19 304.282C145.8 306.833 144.359 310.29 144.422 314.075C144.49 318.104 143.555 322.708 140.081 324.709L134.936 327.674C131.326 329.753 126.838 329.048 122.737 328.356C115.2 327.086 108.067 332.209 106.806 339.799C105.544 347.389 110.631 354.573 118.168 355.844C125.705 357.114 132.838 351.99 134.1 344.4Z" fill="black"/>
<path d="M157.647 342.747C162.482 343.563 165.747 348.171 164.937 353.041C164.127 357.91 159.551 361.198 154.716 360.383C149.88 359.567 146.616 354.958 147.426 350.089C148.236 345.219 152.812 341.932 157.647 342.747Z" fill="black"/>
<path d="M30.9933 177.747C28.1699 180.928 27.9054 185.583 27.6478 189.843C27.4416 193.253 25.9971 196.595 23.3354 199.125C17.7786 204.408 9.02129 204.154 3.77536 198.559C-1.47056 192.963 -1.21859 184.143 4.33818 178.86C7.102 176.232 10.6576 174.974 14.1791 175.062C19.4794 175.194 25.762 175.277 29.2948 171.296C32.0416 168.201 32.1761 163.642 32.1409 159.49C32.1314 158.364 32.2584 157.218 32.5345 156.073C34.3381 148.594 41.8201 144.004 49.2461 145.821C56.672 147.637 61.2298 155.172 59.4262 162.65C59.1837 163.657 58.8385 164.61 58.4045 165.502C56.3256 169.778 54.0479 174.655 55.592 179.154L56.4419 181.63C57.4595 184.596 60.3865 186.278 63.3931 187.101C66.1334 187.85 69.2801 188.039 71.5828 186.365L73.2186 185.176C77.3433 182.179 77.9121 176.169 78.1804 171.053C78.5835 163.368 85.0965 157.467 92.7279 157.873C100.359 158.279 106.218 164.838 105.815 172.524C105.412 180.209 98.8992 186.109 91.2679 185.704C87.2617 185.491 82.9049 185.342 79.6518 187.706L79.4475 187.854C75.0515 191.049 74.28 197.38 73.4214 202.77C73.056 205.064 72.1149 207.298 70.573 209.243C65.8057 215.258 57.0994 216.242 51.1269 211.441C45.1545 206.64 44.1775 197.872 48.9448 191.857C50.8631 189.437 52.2303 186.282 51.2259 183.356L49.3887 178.002C48.4263 175.197 45.5778 173.603 42.7147 172.903C39.5365 172.125 35.8306 172.296 33.6512 174.751L30.9933 177.747Z" fill="black"/>
<path d="M35.232 242.248C39.8659 239.641 45.4466 236.649 50.385 238.611L52.7659 239.557C57.2649 241.343 59.8754 246.026 62.6246 250.034C62.8553 250.37 63.1028 250.699 63.3668 251.02C68.2446 256.944 76.9676 257.765 82.8505 252.852C86.0226 250.203 87.7203 246.428 87.8476 242.583C88.0165 237.46 88.4936 231.421 92.5894 228.379C95.7655 226.02 100.087 226.293 104.001 226.798C108.636 227.398 113.461 225.617 116.59 221.67C121.358 215.656 120.38 206.887 114.408 202.086C108.436 197.285 99.7292 198.269 94.9619 204.284C93.1857 206.525 92.2068 209.148 91.9866 211.806C91.552 217.056 90.9717 223.221 86.7614 226.348C83.5253 228.751 79.1378 228.562 75.1304 228.235C71.6587 227.953 68.0788 228.983 65.186 231.399C62.1057 233.971 57.9532 236.115 54.2307 234.636L48.7159 232.446C44.8477 230.91 42.5882 226.942 40.5595 223.286C36.8312 216.568 28.4011 214.166 21.7306 217.921C15.06 221.676 12.6748 230.166 16.4031 236.883C20.1315 243.601 28.5615 246.003 35.232 242.248Z" fill="black"/>
<path d="M51.2373 259.721C53.6293 264.031 52.099 269.478 47.8193 271.887C43.5395 274.296 38.131 272.755 35.739 268.445C33.347 264.134 34.8772 258.688 39.157 256.279C43.4367 253.87 48.8453 255.411 51.2373 259.721Z" fill="black"/>
<path d="M181.442 125.348C162.761 125.348 147.618 140.599 147.618 159.411V213.293C147.618 232.105 162.761 247.355 181.442 247.355H217.724V211.707H191.617C189.094 211.707 187.209 211.121 185.962 209.949C184.715 208.776 184.092 207.269 184.092 205.427C184.092 203.557 184.715 202.064 185.962 200.947C187.237 199.83 189.122 199.273 191.617 199.273H215.187V172.435H191.617C189.094 172.435 187.209 171.849 185.962 170.677C184.715 169.505 184.092 167.997 184.092 166.155C184.092 164.285 184.715 162.791 185.962 161.676C187.237 160.559 189.122 160 191.617 160H217.724V125.348H181.442Z" fill="black"/>
</g>
<defs>
<clipPath id="clip0_1_7">
<rect width="369" height="373" fill="white"/>
</clipPath>
</defs>
</svg>
