<svg xmlns="http://www.w3.org/2000/svg" viewBox="0 0 455.99 706.4"><defs><style>.cls-1{fill:#736357;}.cls-2{fill:#665346;}.cls-3{fill:#e0d6ce;}.cls-4{fill:#b2aca8;}.cls-5{fill:#00ffd4;}.cls-6{fill:#11efca;}.cls-7{fill:#f6e2d7;}.cls-8{fill:#efcab9;}.cls-9{opacity:0.5;}.cls-10{fill:#e2b8a3;}.cls-11{fill:#f7cfbc;}.cls-12{fill:#efa29a;}.cls-13{fill:#96312c;}.cls-14{fill:#ea978f;}.cls-15{fill:#fff;}</style></defs><g id="Layer_2" data-name="Layer 2"><g id="Layer_1-2" data-name="Layer 1"><polygon class="cls-1" points="230.47 658.42 230.47 703.27 129.3 703.27 129.3 692.02 150.25 671.98 167.66 655.33 230.47 658.42"/><path class="cls-2" d="M230.47,658.42v44.85H213.53q-6.66-1.83-13.18-4.18A188.2,188.2,0,0,1,150.25,672l17.41-16.65Z"/><path d="M230.47,706.4H129.3a3.13,3.13,0,0,1-3.13-3.13V692a3.16,3.16,0,0,1,1-2.27l38.36-36.69a3.13,3.13,0,0,1,2.32-.86l62.82,3.08a3.13,3.13,0,0,1,3,3.13v44.85A3.13,3.13,0,0,1,230.47,706.4Zm-98-6.26h94.91V661.4l-58.49-2.88-36.42,34.84Z"/><polygon class="cls-1" points="250.29 658.42 250.29 703.27 351.46 703.27 351.46 692.02 330.51 671.98 313.1 655.33 250.29 658.42"/><path class="cls-2" d="M250.29,658.42v44.85h16.94q6.66-1.83,13.18-4.18A188.2,188.2,0,0,0,330.51,672L313.1,655.33Z"/><path d="M351.46,706.4H250.29a3.13,3.13,0,0,1-3.13-3.13V658.42a3.13,3.13,0,0,1,3-3.13L313,652.21a3.1,3.1,0,0,1,2.32.86l38.36,36.69a3.12,3.12,0,0,1,1,2.27v11.24A3.13,3.13,0,0,1,351.46,706.4Zm-98-6.26h94.92v-6.78l-36.43-34.84-58.49,2.88Z"/><polygon class="cls-3" points="322.14 646.41 249.51 659.5 245.34 614.64 239.85 555.7 237.7 615.21 236.1 659.5 161.29 651.08 170.4 604.25 188.41 511.74 289.13 511.74 309.89 596.4 322.14 646.41"/><path class="cls-3" d="M237.7,615.21l-1.6,44.29-74.81-8.42,9.11-46.83a101.33,101.33,0,0,0,11.27,4.32C199.7,614.35,218.76,616.24,237.7,615.21Z"/><path class="cls-3" d="M322.15,646.41,249.51,659.5l-4.17-44.86a203.31,203.31,0,0,0,21.14-3.16c15-3,29.95-7.87,43.41-15.08Z"/><path d="M236.11,662.63a2,2,0,0,1-.35,0l-74.82-8.41a3.15,3.15,0,0,1-2.17-1.26,3.11,3.11,0,0,1-.55-2.45l27.12-139.34a3.13,3.13,0,0,1,3.07-2.53H289.13a3.12,3.12,0,0,1,3,2.38l33,134.67a3.14,3.14,0,0,1-2.48,3.82l-72.64,13.09a3.14,3.14,0,0,1-3.67-2.79l-5.16-55.5-2,55.33a3.11,3.11,0,0,1-1.08,2.25A3.14,3.14,0,0,1,236.11,662.63ZM165,648.36,233.1,656l3.62-100.43a3.13,3.13,0,0,1,6.24-.18l9.35,100.41,66-11.9-31.63-129H191Z"/><path class="cls-4" d="M238.31,640.71c-27.48.58-53.46-3.64-79.81-12.07-2.94,10.12-4.14,21.27-5.22,31.8,10.44,7.48,22,10.64,35.69,12.16,17.91,2,34.55,2.25,50.88-1.07C239.85,661.54,239.09,650.67,238.31,640.71Z"/><path d="M213.18,677.2a224,224,0,0,1-24.55-1.49c-15.88-1.77-27.35-5.69-37.18-12.73a3.14,3.14,0,0,1-1.29-2.86c1-9.65,2.23-21.66,5.33-32.35a3.14,3.14,0,0,1,4-2.11c26.82,8.58,52.59,12.48,78.79,11.93a3.11,3.11,0,0,1,3.19,2.88c.8,10.22,1.55,21.06,1.54,31.06a3.13,3.13,0,0,1-2.5,3.07A135.3,135.3,0,0,1,213.18,677.2Zm-56.6-18.28c8.67,5.81,18.59,9,32.74,10.57,18.91,2.09,33.66,1.93,47.38-.54-.1-8.11-.65-16.74-1.28-25.06a244.17,244.17,0,0,1-74.75-11.29C158.49,641.31,157.42,650.83,156.58,658.92Z"/><path class="cls-4" d="M246,639.29c25.71-.33,49.84-5.41,74.16-14.7,3.1,10,4.62,21.12,6,31.61-9.5,7.82-20.22,11.36-32.94,13.33-16.66,2.57-32.2,3.39-47.58.61C245.3,660.15,245.63,649.27,246,639.29Z"/><path d="M265.83,675a115.25,115.25,0,0,1-20.73-1.8,3.13,3.13,0,0,1-2.57-3c-.35-10,0-20.84.35-31.08a3.14,3.14,0,0,1,3.09-3c24.46-.31,48.37-5,73.09-14.49a3.13,3.13,0,0,1,4.1,2c3.27,10.56,4.85,22.52,6.12,32.12a3.12,3.12,0,0,1-1.11,2.82c-9,7.4-19.61,11.71-34.45,14A182.65,182.65,0,0,1,265.83,675Zm-17.12-7.54c12.83,2,26.55,1.66,44-1.05,13.1-2,22.22-5.51,30.08-11.58a205.61,205.61,0,0,0-4.73-26.14c-23.3,8.55-46,13-69.08,13.65C248.73,650.71,248.51,659.36,248.71,667.48Z"/><path class="cls-5" d="M189.22,494.25C177,492,167,487.77,155.68,481.82c7.48-18,28.06-55.17,52.37-55.17,11.56,0,38-1.88,49.56-1.88,24.32,0,54.69,32.42,61.73,40.22-8,8.17-18.75,15.78-29.63,21.53Z"/><path class="cls-5" d="M296,525.18c-19.69,14.62-80.71,22.1-113.06,1.27q1.68-8,3.35-16t3.34-16.27q4.13-20.27,8-40.57l81.11-3.78a203.92,203.92,0,0,1,10.71,36.67c1.64,7.95,3,16,4.27,24C294.44,515.43,295.19,520.32,296,525.18Z"/><path class="cls-6" d="M296,525.18c-19.69,14.62-80.71,22.1-113.06,1.27q1.68-8,3.35-16a170.72,170.72,0,0,0,107.42,0C294.44,515.43,295.19,520.32,296,525.18Z"/><path d="M189.22,497.38a2.86,2.86,0,0,1-.58-.06c-13.8-2.58-24.7-7.64-34.41-12.73a3.12,3.12,0,0,1-1.44-4c2.43-5.85,24.62-57.1,55.26-57.1,5.7,0,15.32-.48,24.63-.94s19.08-.93,24.93-.93c24.24,0,52.87,28.84,64.05,41.24a3.13,3.13,0,0,1-.09,4.29,126.15,126.15,0,0,1-30.4,22.11,3.13,3.13,0,1,1-2.92-5.53A122.79,122.79,0,0,0,315,464.87c-10.25-11-36.6-37-57.38-37-5.7,0-15.32.48-24.62.94s-19.08.93-24.94.93c-20.65,0-39.55,30.63-48.35,50.6,11.43,5.8,20.31,9,30.09,10.8a3.13,3.13,0,0,1-.57,6.21Z"/><path d="M236.35,542.44c-15.5,0-37.95-2.28-55.16-13.36a3.13,3.13,0,0,1-1.36-3.28c5.12-24.08,10-48.55,14.67-72.74a3.13,3.13,0,0,1,6.15,1.18c-4.49,23.5-9.28,47.28-14.25,70.71,30.47,18,85.7,12.21,106.16-1.22-.24-1.55-.48-3.1-.73-4.66-3.57-22.94-7.27-46.66-16-68a3.13,3.13,0,1,1,5.79-2.38c9.05,22,12.81,46.13,16.44,69.43q.51,3.3,1,6.58a3.12,3.12,0,0,1-1.23,3c-10.4,7.72-31.4,13.43-53.49,14.55C242,542.35,239.29,542.44,236.35,542.44Z"/><path class="cls-7" d="M310.44,511.68c-7.26,3.2-15.33,2.38-23,.24a147.62,147.62,0,0,1-37.82-16.67,154.73,154.73,0,0,1-21.9-16.35q-5-4.44-9.6-9.31c-16.6,7.91-23.31-1.66-16.77-7.34,4.29-3.71,9.45-5.16,14.18-5.72s9.85.69,14.57,1.45q7.59,1.2,15.33,2.73c11.73,2.32,23.63,5.14,35.3,8.31,7.94,2.15,15.79,4.46,23.4,6.87,1.9-1.79,11.2-4.82,13.1-6.61C321.69,482.85,315.87,499.08,310.44,511.68Z"/><path class="cls-8" d="M280.77,469a42.46,42.46,0,0,1-3.46,3.61,240.92,240.92,0,0,1-27.65,22.62,154.73,154.73,0,0,1-21.9-16.35c1-.61,2-1.18,2.93-1.74,3.56-2,7.25-4.05,9.94-7.29a31.59,31.59,0,0,0,4.84-9.16C257.2,463,269.1,465.85,280.77,469Z"/><path d="M302,516.29a45.15,45.15,0,0,1-15.18-1.89,154.57,154.57,0,0,1-69.23-41.77c-11.07,4.76-17.72,2.07-20.1-1.86-2-3.33-1.09-7.55,2.3-10.49,4-3.48,9.07-5.54,15.46-6.29,4.13-.49,8.33.25,12.39,1,1,.17,1.9.34,2.83.49a525.37,525.37,0,0,1,73.94,17.85c3-.33,10.05-4.06,11.63-5.53a2.38,2.38,0,0,1,2.23-.58A2.51,2.51,0,0,1,320,468.8c5.17,14.57-.8,32.94-7.48,44.23a2.48,2.48,0,0,1-1.12,1A27.7,27.7,0,0,1,302,516.29ZM218,467a2.39,2.39,0,0,1,1.91.76,149.85,149.85,0,0,0,68.2,41.66c8.32,2.33,15.09,2.39,20.66.17,5.45-9.5,10.24-23.88,7.56-35.89-3.5,2.13-8.84,4.64-12.09,4.72a2.41,2.41,0,0,1-.76-.11,520.66,520.66,0,0,0-73.68-17.83c-1-.15-1.93-.33-2.91-.5-3.73-.66-7.59-1.35-11-.94-5.41.64-9.63,2.33-12.89,5.16-1.15,1-2.09,2.52-1.3,3.83,1.19,2,6.44,3.49,15.46-.8A2.25,2.25,0,0,1,218,467Z"/><path class="cls-7" d="M254,468.77a152.24,152.24,0,0,1-62.9,51.2c-7.27,3.14-15.16,5-22.79,2.83-7.13-11.15-12.85-23.61-10-37.46,2.13,1.51,6.47.29,11.79.51a515.64,515.64,0,0,1,70.42-27c4.58-1.38,12.25-6,17-6.12s13.78,3.21,14.62,12.67C258.23,461,258.83,466.81,254,468.77Z"/><path d="M177.27,526.24a27.7,27.7,0,0,1-9.65-1,2.48,2.48,0,0,1-1.45-1.14l-.23-.4c-7.37-12.63-14.34-24.55-11.3-39.26a2.53,2.53,0,0,1,1.49-1.83,2.37,2.37,0,0,1,2.22.23c.75.3,3.45.19,5.07.12a22.11,22.11,0,0,1,6.55.29,519.75,519.75,0,0,1,69.83-26.86,28.94,28.94,0,0,0,5.68-2.64,32.61,32.61,0,0,1,6.68-3.06A16.46,16.46,0,0,1,267,452.93a19,19,0,0,1,7.64,12.9,2.64,2.64,0,0,1-.75,2.08,2.37,2.37,0,0,1-2,.68,42.42,42.42,0,0,1-6.57-1.58,27.89,27.89,0,0,0-3.95-1c-16.74,22.82-45,45.86-69.33,56.33A45.36,45.36,0,0,1,177.27,526.24Zm-7.44-5.67c5.79,1.39,12.43.42,20.27-3,24-10.34,52-33.3,68.13-55.83a2.4,2.4,0,0,1,2.1-1,26.26,26.26,0,0,1,6.31,1.34c.68.21,1.36.42,2.09.62a13.92,13.92,0,0,0-4.51-5.57,11.77,11.77,0,0,0-10.69-1.52,28.53,28.53,0,0,0-5.72,2.66,32.92,32.92,0,0,1-6.63,3,514.48,514.48,0,0,0-70.13,27.06,2.35,2.35,0,0,1-2.33-.18c-.75-.3-3.45-.19-5.07-.12a37.8,37.8,0,0,1-4.62,0C157.67,499.55,163.3,509.38,169.83,520.57Zm-1.17-32.4h0Zm-10.27-5.28h0Z"/><path d="M153.25,154q-1.65,5.9-3.77,11.6c-9.65,26.11-26.11,49.4-42.63,71.87-6.52,8.87-13.23,17.84-22,24.32s-20.17,10.24-30.59,7.39c-11.31-3.09-25.14-13.19-27.1-25a112.49,112.49,0,0,1-.52-33.43c0-.39.09-.76.15-1.15,1-6.85,3-14.21,8.51-18.26A33.34,33.34,0,0,1,25,181.77c-2.5-3.91-3.07-9.54-.05-13.12,3.26-3.88,9.1-3.86,14-2.87-2.35-13.93-4.76-30.75-1.78-44.62S49.84,93.89,63.45,91c6-1.24,12.09-.41,18.06.63,8.53,1.5,17,3.44,25.39,5.44,10.21,2.44,20.56,5,29.61,10.41s16.78,14,18.78,24.46C156.69,139.28,155.25,146.85,153.25,154Z"/><path d="M149.48,165.64c-9.65,26.11-26.11,49.4-42.63,71.87-6.52,8.87-13.23,17.84-22,24.32s-20.17,10.24-30.59,7.39c-11.31-3.09-25.14-13.19-27.1-25a112.49,112.49,0,0,1-.52-33.43c10-3.14,20.8-4.43,31.29-5.64-1.78-2.77-4.19-7.12-4.37-10.45-.23-4.26.15-8.7,2.16-12.46s5.92-6.71,10.1-6.53c-3.56-14.5-4.45-31.85,2.11-45.29a64.05,64.05,0,0,1,31.42-30.37l2.72-.71C107.35,126.82,128.62,146.94,149.48,165.64Z"/><path d="M332.41,158c-3.33-9.52-5.4-21.16,1-29,3.71-4.56,9.5-6.71,15.08-8.32a143.92,143.92,0,0,1,24.71-4.83c4.72-.5,9.78-.69,13.86,1.74,5.08,3,7.27,9.23,8.88,15,6.21,22.38,9.12,45.59,12,68.7.57,4.51,1.11,9.23-.43,13.52-6.49,18.1-30.82,9.3-40.43-.27C351.51,199.06,339.69,178.87,332.41,158Z"/><path d="M55.08,272.3c-.53-.11-1.06-.24-1.58-.38-12.64-3.47-27-14.58-29.07-27.2a115.44,115.44,0,0,1-.37-35.45c.76-5.29,2.29-12.46,6.79-17.55a32.79,32.79,0,0,1-8.11-8.4c-2.84-4.46-4-11.51.18-16.48,2.77-3.29,7.13-4.76,12.74-4.34-2.2-13.67-3.94-28.82-1.13-41.91,3-13.73,12.89-29,28.4-32.29,6.55-1.38,13.28-.41,19.06.61,8.16,1.43,16.11,3.23,25.55,5.48,11.26,2.68,21.31,5.34,30.36,10.7,10.78,6.4,18.1,16,20.08,26.33,1.59,8.33-.29,16.86-2.1,23.36-8.59,30.78-27.07,57.48-46.85,84.4-6.2,8.43-13.22,18-22.63,24.91C76.35,271.5,65,274.44,55.08,272.3ZM29.82,243.74C31.53,254,44.2,263.58,55,266.52c8.6,2.35,19.17-.24,28.27-6.94C92,253.15,98.71,244,104.67,235.85c19.46-26.47,37.62-52.7,46-82.55,1.65-5.9,3.36-13.59,2-20.77-1.68-8.76-8.05-17-17.49-22.6-8.41-5-18.05-7.53-28.87-10.11C96.91,97.59,89,95.82,81,94.41c-5.54-1-11.42-1.82-17-.64-13.08,2.74-21.53,16-24.11,28-2.87,13.33-.57,29.47,1.8,43.55a2.87,2.87,0,0,1-.8,2.49,2.71,2.71,0,0,1-2.46.74c-3.1-.63-8.69-1.22-11.36,1.94-2.2,2.61-1.5,7,.28,9.78a30.44,30.44,0,0,0,9.4,8.78A2.76,2.76,0,0,1,38,191.29a2.86,2.86,0,0,1-1.15,2.36c-5,3.69-6.62,11.12-7.38,16.38A109.81,109.81,0,0,0,29.82,243.74Z"/><path d="M385.5,227.4a43.3,43.3,0,0,1-20.36-10.83c-15-15-27.56-35.44-35.31-57.59h0c-4.85-13.9-4.36-24.57,1.45-31.73,4.2-5.16,10.39-7.49,16.46-9.23a146.14,146.14,0,0,1,25.18-4.92c5.28-.56,10.82-.7,15.51,2.1,5.78,3.44,8.27,10,10.11,16.64,6.27,22.63,9.23,46.25,12.09,69.1.55,4.37,1.23,9.81-.57,14.84-2.25,6.26-6.65,10.33-12.72,11.77A26.94,26.94,0,0,1,385.5,227.4ZM335,157.06c7.47,21.38,19.54,41.09,34,55.5,6.26,6.25,18.68,11.58,27.17,9.56,4.29-1,7.16-3.71,8.78-8.22,1.34-3.74.78-8.24.28-12.2-2.83-22.65-5.77-46.06-11.93-68.29-1.53-5.5-3.51-10.93-7.64-13.39-3.34-2-7.84-1.84-12.21-1.37a141.44,141.44,0,0,0-24.25,4.74c-5.21,1.5-10.47,3.43-13.7,7.4-4.49,5.52-4.66,14.36-.49,26.27Z"/><path class="cls-7" d="M210.39,425.61a30.11,30.11,0,0,0,1.93,7.29,24.78,24.78,0,0,0,19.79,14.94c10.73,1.16,20.59-5.44,24.57-13.33a29.16,29.16,0,0,0,2.72-8.61c.89-5.48.53-11.2.14-16.78-16.14,1-33,3.46-49.08,1.29C210.07,415.45,209.7,420.59,210.39,425.61Z"/><g class="cls-9"><path class="cls-10" d="M210.39,425.61a52.73,52.73,0,0,0,20.33,5.4,59.61,59.61,0,0,0,28.68-5.11c.89-5.48.53-11.2.14-16.78-16.14,1-33,3.46-49.08,1.29C210.07,415.45,209.7,420.59,210.39,425.61Z"/></g><path d="M229.22,449.88a27.08,27.08,0,0,1-19.13-16A32,32,0,0,1,208,426c-.75-5.39-.33-10.89,0-15.74a2.54,2.54,0,0,1,.9-1.74,2.41,2.41,0,0,1,1.86-.54c12.13,1.64,25,.58,37.39-.45,3.69-.3,7.51-.62,11.23-.85a2.4,2.4,0,0,1,2.54,2.27c.37,5.35.79,11.42-.17,17.36a31.65,31.65,0,0,1-3,9.34c-4.19,8.28-14.8,16-27,14.67Q230.51,450.15,229.22,449.88Zm-16.54-36.71a59.41,59.41,0,0,0,.11,12.07,27.46,27.46,0,0,0,1.76,6.69,22.44,22.44,0,0,0,17.84,13.45c10,1.09,18.72-5.21,22.15-12a26.42,26.42,0,0,0,2.47-7.86,61.79,61.79,0,0,0,.28-13.78c-2.91.21-5.87.45-8.76.69C236.72,413.41,224.53,414.42,212.68,413.17Z"/><path class="cls-7" d="M69.7,239.33a37.73,37.73,0,0,0-28.26-11.75A38.58,38.58,0,0,0,13.66,241c-10.42,12.2-12.47,30-9.45,45.76a83.46,83.46,0,0,0,28.92,48.74,80.71,80.71,0,0,0,53.06,17.95c12.58-5,20.29-16.93,22.17-30.54s-1.69-27.41-7-40C94.49,266.86,81.6,252,69.7,239.33Z"/><path d="M66.51,354.61A84.14,84.14,0,0,1,31.3,337.84,87.05,87.05,0,0,1,1.35,287.36c-3.61-18.93.08-36.53,10.13-48.29a41.64,41.64,0,0,1,29.9-14.46,40.72,40.72,0,0,1,30.43,12.66h0C83.78,250,97,265.21,104,281.75c6.59,15.51,9,29.1,7.24,41.55-2.15,15.53-11.13,27.83-24,32.92a2.62,2.62,0,0,1-1,.2A81.49,81.49,0,0,1,66.51,354.61Zm-17-123.32a33.54,33.54,0,0,0-8.06-.75A35.74,35.74,0,0,0,15.84,243c-8.71,10.2-12,26.36-8.78,43.22a81,81,0,0,0,27.89,47,78.36,78.36,0,0,0,50.67,17.32c10.63-4.41,18-14.83,19.87-28,1.56-11.34-.67-23.89-6.83-38.37C92,268.46,79.22,253.74,67.6,241.4A35.05,35.05,0,0,0,49.55,231.29Z"/><path d="M115.63,312.36a7.24,7.24,0,0,0,2.62-2.17A7.35,7.35,0,0,0,117,300a128.33,128.33,0,0,0-81.52-27,7.29,7.29,0,0,0-7,7.43,7.1,7.1,0,0,0,7.21,7.11,114.4,114.4,0,0,1,72.63,24.09A7,7,0,0,0,115.63,312.36Z"/><path class="cls-7" d="M379.81,204.75A39,39,0,0,1,405.19,187,37.69,37.69,0,0,1,435,194c12.56,9.64,18,26.57,18.11,42.68a86,86,0,0,1-18.85,54.08,83.12,83.12,0,0,1-48.44,29.26c-13.27-2.09-23.13-12.09-27.61-25s-3.65-27.19-.86-40.65C360.89,237.16,370.62,219.73,379.81,204.75Z"/><path d="M383.42,322.63c-12.73-2.74-23.11-12.54-28-26.56-4.1-11.8-4.41-25.62-1-42.25,3.68-17.74,13.63-35.55,22.88-50.62h0a42.1,42.1,0,0,1,27.32-19.1,40.73,40.73,0,0,1,32.06,7.55c12.1,9.29,19.12,25.7,19.26,45a89.58,89.58,0,0,1-19.52,56A86.6,86.6,0,0,1,386.31,323a2.93,2.93,0,0,1-1,0C384.69,322.88,384.05,322.76,383.42,322.63Zm-1.15-116.32c-9,14.63-18.62,31.86-22.11,48.69-3.22,15.53-3,28.3.76,39.05,4.33,12.46,13.62,21,24.86,23A80.7,80.7,0,0,0,432,288.91a83.46,83.46,0,0,0,18.18-52.15c-.12-17.21-6.47-32.29-17-40.35a34.88,34.88,0,0,0-27.5-6.48,36.09,36.09,0,0,0-23.44,16.38Z"/><path d="M349,286.33a6.91,6.91,0,0,1-3-1.54,7.37,7.37,0,0,1-.72-10.26,132.2,132.2,0,0,1,74.52-44.43,7.06,7.06,0,0,1,8.32,5.72,7.35,7.35,0,0,1-5.68,8.55A117.72,117.72,0,0,0,356.09,284,7.1,7.1,0,0,1,349,286.33Z"/><path class="cls-7" d="M401.46,325.83c-16.07,71.94-108.07,89-167.73,95.25-22,2.29-44.24,3.82-66.19,1.35-40.84-4.61-77.42-24.63-94.68-63.83C63.69,337.8,60.17,314.9,60,291.87q0-4.2.08-8.42.09-3.39.27-6.77c.06-1.12.12-2.23.2-3.35q.51-7.9,1.43-15.72t2.15-15.44q2.64-16.44,6.74-32.57c.33-1.32.68-2.64,1-3.95.86-3.22,1.78-6.4,2.77-9.57,7-22.42,17.32-43.61,32.12-62q2.72-3.36,5.62-6.52a.51.51,0,0,1,.12-.13,144.77,144.77,0,0,1,17.07-15.88l.2-.14a148.66,148.66,0,0,1,67.7-29.93,139,139,0,0,1,25.67-1.78A143,143,0,0,1,279.26,92.9c43.38,19.92,77.13,60,99.48,103.38.69,1.32,1.36,2.64,2,4q1.53,3.06,3,6.14c.28.6.55,1.21.84,1.81,1.46,3.18,2.87,6.39,4.2,9.66,1.62,3.91,3.14,7.89,4.55,11.9q1.21,3.48,2.33,7,.83,2.63,1.58,5.26C405.08,269.2,407.68,298,401.46,325.83Z"/><path class="cls-11" d="M378.74,196.28a96.14,96.14,0,0,0-19.82,7.25C346,210.15,335.41,220.64,321.61,225a40.23,40.23,0,0,0-8.06-30.47c-3-3.81-6.7-7-9.93-10.64s-3.37-8-4.1-12.84c-24.75-2-49.19-6.62-73.58-11.24-7.21-1.37-15.07-2.11-20.88-6.64-46.16,12.31-92.9,26.71-133.13,52.51.86-3.22,1.78-6.4,2.77-9.57,7-22.42,17.32-43.61,32.12-62q2.72-3.36,5.62-6.52a.51.51,0,0,1,.12-.13,144.77,144.77,0,0,1,17.07-15.88l.2-.14a148.66,148.66,0,0,1,67.7-29.93,139,139,0,0,1,25.67-1.78A143,143,0,0,1,279.26,92.9C322.64,112.82,356.39,152.87,378.74,196.28Z"/><path d="M151.66,422.7c-38.34-8.24-66.9-30.21-81.32-62.93h0c-10.5-23.82-14.71-53-12.52-86.6.63-9.87,1.85-20.45,3.61-31.43,1.73-10.77,4-21.82,6.79-32.83,7.65-30.29,19.93-56.06,36.48-76.57,1.87-2.32,3.78-4.54,5.68-6.61l.23-.25A146.8,146.8,0,0,1,128,109.36l.24-.19a151,151,0,0,1,68.93-30.44,140.57,140.57,0,0,1,26.17-1.81,145.46,145.46,0,0,1,57.1,13.4c42.65,19.59,80.23,60.37,105.83,114.83,1.75,3.73,3.47,7.62,5.1,11.58,15.82,38.47,20.25,76.4,12.82,109.7C396.87,359,373.61,384,335,400.68c-34.52,14.93-74.18,20.4-101,23.2-21.19,2.22-43.95,3.91-66.77,1.35Q159.2,424.33,151.66,422.7ZM114.53,129.41l-.08.09c-1.84,2-3.69,4.15-5.5,6.4-16,19.86-27.94,44.89-35.39,74.37-2.73,10.85-5,21.72-6.68,32.33-1.73,10.8-2.93,21.2-3.56,30.89-2.12,32.71,1.93,60.95,12.06,83.93h0c15.48,35.14,48.32,57.23,92.49,62.21,22.3,2.5,44.71.83,65.6-1.35,26.47-2.77,65.58-8.15,99.41-22.78,36.87-15.94,59-39.59,65.88-70.27,7.18-32.15,2.85-68.9-12.52-106.27-1.6-3.87-3.28-7.69-5-11.33-25-53.28-61.68-93.12-103.15-112.16a140,140,0,0,0-55-12.91A134.74,134.74,0,0,0,198,84.29a145.5,145.5,0,0,0-66.46,29.37l-.12.09-.07.06a141.35,141.35,0,0,0-16.74,15.56Z"/><path class="cls-12" d="M224.24,285.93c.43,3.16,6,4.92,12.52,3.94s11.4-4.34,11-7.5-6-4.92-12.53-3.94S223.8,282.78,224.24,285.93Z"/><path class="cls-13" d="M153.48,320.44a81.09,81.09,0,0,0,21.87,46.64,78.07,78.07,0,0,0,65.33,23.84c27.24-3,49.9-19.7,62.12-42.61a83.07,83.07,0,0,0,9.55-45.58Z"/><path class="cls-14" d="M175.35,367.08a78.07,78.07,0,0,0,65.33,23.84c27.24-3,49.9-19.7,62.12-42.61-21.1-5.7-42.94-8.18-64.65-5.72C215.73,345.14,193.49,353.45,175.35,367.08Z"/><path class="cls-15" d="M161.35,319.56a84.71,84.71,0,0,0,31.83,15c21.75,5.22,44.68,2.87,66.62-2,12-2.66,24.22-6.2,34.07-13.79a42.09,42.09,0,0,0,12.41-15.42Z"/><path d="M214.9,391.52a80.39,80.39,0,0,1-33.79-16.25,83.14,83.14,0,0,1-30.25-55.22,2.69,2.69,0,0,1,.54-2,2.61,2.61,0,0,1,1.76-1L312,299.39a2.48,2.48,0,0,1,1.9.58,2.62,2.62,0,0,1,.92,1.8,85.5,85.5,0,0,1-18.9,60.7,82.38,82.38,0,0,1-55.07,30.33A80.83,80.83,0,0,1,214.9,391.52ZM156.32,322c6.26,40.86,43.39,70.09,84,65.56s71.31-41.32,69.51-82.68Z"/><path d="M418.23,137.67c-3.14,7.14-11.47,11.18-18.51,12.3.61,5.65,1.15,11.73-1.29,16.73s-7.12,7.72-11.79,9.66-9.56,3.24-14.46,2.66a17.18,17.18,0,0,1-12.41-8.84c-.94,19.51-14.16,35.54-31.44,38.47,2.91-5.79,1.05-13.27-2.45-18.61s-8.39-9.31-12.41-14.17,1.36-8.09,2.35-14.63c-35.19.69-107-21.71-107-21.71s-85.77,21-124.57,27c-11-24.25-9.58-54.17.67-78.87.86-2.07,1.78-4.11,2.75-6.1C98.25,59.69,115.27,42,134.39,29.17c29-19.46,63.32-28.64,97-25.9C221.83,7.43,211.87,16,208.14,26.64,230.37,15.77,256.05,7.78,280,12.3a98.88,98.88,0,0,1,61.7,39.4c13.17-2.32,29.43-.05,41.2,6.93,9.36,5.54,19.22,14.06,24.24,24.48,2.2,4.54,2.68,10.68,3,16.74a101.8,101.8,0,0,0,1.08,12.6C412.6,120.23,421.38,130.53,418.23,137.67Z"/><path d="M418.23,137.67c-3.14,7.14-11.47,11.18-18.51,12.3.61,5.65,1.15,11.73-1.29,16.73s-7.12,7.72-11.79,9.66-9.56,3.24-14.46,2.66a17.18,17.18,0,0,1-12.41-8.84c-.94,19.51-14.16,35.54-31.44,38.47,2.91-5.79,1.05-13.27-2.45-18.61s-8.39-9.31-12.41-14.17,1.36-8.09,2.35-14.63c-35.19.69-107-21.71-107-21.71s-85.77,21-124.57,27c-11-24.25-9.58-54.17.67-78.87.86-2.07,1.78-4.11,2.75-6.1a156.2,156.2,0,0,0,15.86,66.38c-.36-1.21.47-3.59.69-4.83A87.92,87.92,0,0,1,124.9,100c-3,12.7-.84,25.43,4.65,37.15,13.67-6.75,23.24-19,32.75-31.06,9.32-11.85,17.09-25.89,27.74-36.53,0,19.8-7.06,41.12-14.1,59.51A78.54,78.54,0,0,0,192.85,111q-1.33,8.91-2.21,17.88c12.38-13.65,25.42-23.54,42.41-30.19a44.08,44.08,0,0,0-8.62,24c16.08-13.53,33.42-25.28,52.64-33.42,9.47-4,19.51-7.35,29.7-6.77a19.86,19.86,0,0,1,9.73,2.72,10.42,10.42,0,0,1,5,8.53c-.06,4.92-4.21,8.67-7.95,11.81a354.78,354.78,0,0,0-34,32.73c12.48-4.43,24.75-11.62,35.84-19a145.71,145.71,0,0,0-14.66,28.74c5.21-7,13.26-12.42,21.34-15.5,4.83-1.84,10.68-2.7,14.77.46,3.94,3.06,4.91,8.86,8.59,12.24,3.85,3.52,10.1,3.47,14.5.6s7-8.05,7.74-13.31c3.63,4.07,10,3,15.25,1.62a27,27,0,0,0,9.27-4,13.56,13.56,0,0,0,5.55-8.35,18.18,18.18,0,0,0-.07-5.31,51.1,51.1,0,0,0-4.52-15.28c5.24.35,11.58.3,16.92-1.42a101.8,101.8,0,0,0,1.08,12.6C412.6,120.23,421.38,130.53,418.23,137.67Z"/><path d="M83.66,169.26a2.7,2.7,0,0,1-1.9-1.54c-10.79-23.84-10.55-54.17.63-81.13,9.71-23.4,27.18-44.06,50.51-59.75C162.33,7.06,197.38-2.3,231.6.48a2.72,2.72,0,0,1,2.46,2.33,2.85,2.85,0,0,1-1.64,3,44.46,44.46,0,0,0-18.26,14.94c24.93-11,47.21-14.83,66.31-11.22a102,102,0,0,1,62.4,39.14c14-2,30.08.84,41.37,7.52,6.76,4,19.05,12.67,25.31,25.65,2.64,5.47,3,12.62,3.36,19.53a84.75,84.75,0,0,0,.94,10.52h0c.47,2.52,1.9,5.53,3.42,8.71,2.93,6.14,6,12.49,3.45,18.18-3.3,7.5-11.06,11.72-18,13.41.45,4.84.61,10.71-1.82,15.72-3,6.21-9,9.26-13.23,11-6,2.51-11.08,3.41-15.81,2.85A18.73,18.73,0,0,1,361.69,177c-3.38,17.62-16.43,31.6-32.94,34.39a2.7,2.7,0,0,1-2.64-1.1,2.85,2.85,0,0,1-.21-2.91c2.58-5.12.37-11.7-2.3-15.78a57.1,57.1,0,0,0-7.14-8.39c-1.7-1.75-3.46-3.57-5.09-5.54-3.69-4.45-1.76-8.37-.21-11.51.35-.7.7-1.41,1-2.15-34.6-.7-95.75-19.22-103.47-21.6-8.41,2.05-87.5,21.18-124.07,26.87A2.63,2.63,0,0,1,83.66,169.26Zm138-163.67A150.75,150.75,0,0,0,135.88,31.5C113.46,46.57,96.71,66.36,87.42,88.73c-10.3,24.81-10.83,52.57-1.52,74.72C125,157.1,207.36,137,208.2,136.82a2.67,2.67,0,0,1,1.43,0c.72.22,71.81,22.26,106.16,21.59a2.67,2.67,0,0,1,2.09.94,2.81,2.81,0,0,1,.64,2.25,23.45,23.45,0,0,1-2.48,7c-1.57,3.19-1.75,3.88-.48,5.41,1.49,1.81,3.1,3.47,4.81,5.23a63.24,63.24,0,0,1,7.79,9.2c2.7,4.13,5,10.35,4.16,16.33,13.81-4.48,23.93-18.39,24.71-34.74a2.81,2.81,0,0,1,2.12-2.6,2.69,2.69,0,0,1,3,1.35,14.66,14.66,0,0,0,10.36,7.43c3.78.45,8-.34,13.11-2.48,5.4-2.23,8.69-4.87,10.35-8.29,2-4.12,1.65-9.31,1-15.18a2.82,2.82,0,0,1,2.33-3.09c5.81-.92,13.6-4.27,16.41-10.66,1.45-3.3-1-8.46-3.39-13.45-1.61-3.37-3.27-6.86-3.87-10.11a88.06,88.06,0,0,1-1-11.26c-.33-6.35-.66-12.91-2.81-17.37-4.12-8.53-12.56-17-23.18-23.31s-26.15-8.93-39.37-6.59a2.69,2.69,0,0,1-2.66-1.09,96.48,96.48,0,0,0-60-38.33c-19.76-3.73-43.35,1-70.13,14.11a2.69,2.69,0,0,1-3-.43,2.83,2.83,0,0,1-.73-3C208.59,17.11,215,10.29,221.66,5.59Z"/><path d="M184.79,211.93c-7.06-5-15-7.82-23.65-5.79a53.82,53.82,0,0,0-11.86,4.68,154.2,154.2,0,0,0-15.39,8.92c-2.12,1.39-4.21,4.57-1.06,6.23,2.9,1.52,7.18.18,10.27-.21q6-.73,12-1.72c8.09-1.34,16.14-3,24.1-5C181.31,218.51,189.3,215.1,184.79,211.93Z"/><path d="M262.69,203.74c5.68-6.65,12.75-11.52,21.56-11.8a52.93,52.93,0,0,1,12.59,1.43,151.18,151.18,0,0,1,17,4.62c2.38.8,5.15,3.33,2.48,5.76-2.45,2.23-6.91,2.05-10,2.49q-6,.84-12,1.45-12.22,1.25-24.52,1.47C267.6,209.21,259.06,208,262.69,203.74Z"/><ellipse class="cls-15" cx="294.7" cy="257.88" rx="31.92" ry="31.21" transform="translate(-19.37 491.77) rotate(-77.86)"/><ellipse cx="295.25" cy="258.47" rx="22.17" ry="21.67" transform="translate(-19.53 492.76) rotate(-77.86)"/><ellipse class="cls-15" cx="165.65" cy="267.43" rx="31.92" ry="31.21" transform="translate(-130.64 373.14) rotate(-77.86)"/><ellipse cx="165.4" cy="267.19" rx="22.17" ry="21.67" transform="translate(-130.6 372.7) rotate(-77.86)"/></g></g></svg>