<svg width="30" height="44" viewBox="0 0 30 44" fill="none" xmlns="http://www.w3.org/2000/svg">
<path d="M16.9175 43.2055L28.4993 31.6273C29.0071 31.1179 29.2923 30.428 29.2923 29.7088C29.2923 28.9895 29.0071 28.2996 28.4993 27.7902L20.7806 20.0751C21.2911 20.5861 21.5778 21.2788 21.5778 22.0011C21.5778 22.7234 21.2911 23.4161 20.7806 23.9271L9.20979 35.4978C8.70109 36.0067 8.41531 36.6969 8.41531 37.4164C8.41531 38.136 8.70109 38.8261 9.20979 39.335L13.0803 43.2055C13.5892 43.7142 14.2793 44 14.9989 44C15.7184 44 16.4085 43.7142 16.9175 43.2055Z" fill="#5A3CFA"/>
<path d="M9.20984 39.335C8.70114 38.8261 8.41536 38.136 8.41536 37.4164C8.41536 36.6968 8.70114 36.0067 9.20984 35.4978L20.7806 23.9271C21.2911 23.4161 21.5779 22.7234 21.5779 22.0011C21.5779 21.2788 21.2911 20.586 20.7806 20.0751L16.9175 16.212C16.4086 15.7033 15.7185 15.4175 14.9989 15.4175C14.2794 15.4175 13.5893 15.7033 13.0804 16.212L1.50218 27.7902C0.993475 28.2991 0.707703 28.9892 0.707703 29.7087C0.707703 30.4283 0.993475 31.1184 1.50218 31.6273L9.20984 39.335Z" fill="#7864FA"/>
<path d="M22.7085 21.9992L16.9287 27.7716C16.4424 28.2874 16.1761 28.9723 16.1865 29.6811C16.1969 30.3899 16.4831 31.0667 16.9844 31.5679C17.4856 32.0692 18.1624 32.3554 18.8712 32.3658C19.58 32.3762 20.2649 32.1099 20.7807 31.6236L24.6364 27.7716C25.1473 27.2611 25.8401 26.9743 26.5623 26.9743C27.2846 26.9743 27.9774 27.2611 28.4883 27.7716L22.7085 21.9992Z" fill="#2D1ECD"/>
<path d="M16.9286 27.7716L28.4993 16.2009C29.0071 15.6915 29.2923 15.0015 29.2923 14.2823C29.2923 13.563 29.0071 12.8731 28.4993 12.3637L20.7806 4.65605C21.2913 5.16764 21.5782 5.861 21.5782 6.58389C21.5782 7.30679 21.2913 8.00015 20.7806 8.51174L9.20979 20.0825C8.70109 20.5914 8.41531 21.2815 8.41531 22.0011C8.41531 22.7206 8.70109 23.4107 9.20979 23.9196L16.9286 31.6347C16.6741 31.3815 16.4722 31.0805 16.3344 30.7491C16.1966 30.4176 16.1257 30.0621 16.1257 29.7032C16.1257 29.3442 16.1966 28.9888 16.3344 28.6573C16.4722 28.3258 16.6741 28.0248 16.9286 27.7716Z" fill="#3791FA"/>
<path d="M9.20987 20.0825L20.7806 8.51173C21.2914 8.00014 21.5782 7.30679 21.5782 6.58389C21.5782 5.86099 21.2914 5.16764 20.7806 4.65605L16.9175 0.792947C16.4081 0.285147 15.7182 0 14.999 0C14.2797 0 13.5898 0.285147 13.0804 0.792947L1.50221 12.3748C0.993505 12.8837 0.707733 13.5738 0.707733 14.2934C0.707733 15.013 0.993505 15.7031 1.50221 16.212L9.20987 23.9196C8.70117 23.4107 8.41539 22.7206 8.41539 22.0011C8.41539 21.2815 8.70117 20.5914 9.20987 20.0825Z" fill="#5AC3FA"/>
</svg>
