<svg xmlns="http://www.w3.org/2000/svg" viewBox="0 0 438.58 680.3"><defs><style>.cls-1{fill:#f6e2d7;}.cls-2{fill:#e8c5b3;}.cls-3{fill:#e0d6ce;}.cls-4{fill:#736357;}.cls-5{fill:#665346;}.cls-6{fill:#b2aca8;}.cls-7{fill:#00ffd4;}.cls-8{fill:#11efca;}.cls-9{opacity:0.5;}.cls-10{fill:#e2b8a3;}.cls-11{fill:#f7cfbc;}.cls-12{fill:#efa29a;}.cls-13{fill:#96312c;}.cls-14{fill:#ea978f;}.cls-15{fill:#fff;}</style></defs><g id="Layer_2" data-name="Layer 2"><g id="Layer_1-2" data-name="Layer 1"><path class="cls-1" d="M401.05,433.46a4.18,4.18,0,0,1-2.07-.15l-.15-.07a4,4,0,0,1-1,.22l-.6.05H397a13,13,0,0,1-11.35,1.36c-19.37,15.43-46.94,28.2-67.74,30.64a55.77,55.77,0,0,1-7.81.4c-6.17-.13-13.91-1.74-18.22-5.36,2.84-8,4.74-21.42,7.57-29.41,2.19-.19,5.83,4.09,8,4a86.64,86.64,0,0,0,11.95-1.73c17.23-3.46,41.87-11.21,61-16.39,0-3.27.24-7,2.08-9.56a8.2,8.2,0,0,1,6-3.23,15.59,15.59,0,0,1,6.71,1.2c.43.17.86.34,1.27.55a4.22,4.22,0,0,1,1.26-.58v-.06A92.78,92.78,0,0,1,415,396.67a6.2,6.2,0,0,1,2.26-.52,2.29,2.29,0,0,1,2,1.13,2.86,2.86,0,0,1-.27,2.79,7.12,7.12,0,0,1-2.05,1.86,155.24,155.24,0,0,1-15.79,9.4l-.14.34c0,.14.09.28.12.42,1.63-.57,3.48-.92,4.28-.24a1.72,1.72,0,0,1,.44,1.48,4,4,0,0,1-.6,1.46,13.56,13.56,0,0,1-4.33,4.45,2.44,2.44,0,0,1,0,.27l.17-.1c1.38-.83,5.47-2.47,6.76-1.36a1.72,1.72,0,0,1,.44,1.48,4,4,0,0,1-.6,1.46,13.61,13.61,0,0,1-4.9,4.79,4.64,4.64,0,0,1,.11.51c1.62-.66,4.62-1.45,5.74-.49a1.62,1.62,0,0,1,.5,1.38,3.11,3.11,0,0,1-.49,1.3A10.4,10.4,0,0,1,401.05,433.46Z"/><path class="cls-2" d="M318,465.52a55.77,55.77,0,0,1-7.81.4c-6.17-.13-13.91-1.74-18.22-5.36,2.84-8,4.74-21.42,7.57-29.41,2.19-.19,5.83,4.09,8,4a86.64,86.64,0,0,0,11.95-1.73A41.39,41.39,0,0,1,318,465.52Z"/><path d="M399.54,433.75a2.25,2.25,0,0,0-.17-1.94,1.72,1.72,0,0,0-2.54-.54A11.45,11.45,0,0,1,386.26,433a1.69,1.69,0,0,0-1.64.28c-22.48,17.92-54.49,31.1-74.44,30.66-4.89-.1-11.76-1.26-16-4.12,1.23-3.9,2.3-8.73,3.34-13.43,1-4.48,2-9.1,3.16-12.77.63.37,1.38.9,1.92,1.28,1.74,1.23,3.38,2.39,5.05,2.3,12-.67,33.39-6.82,54.11-12.77,6.78-1.95,13.18-3.79,19.15-5.4a2,2,0,0,0,1.39-2c0-3.14.25-6.32,1.68-8.32a6.38,6.38,0,0,1,4.7-2.47,13.78,13.78,0,0,1,6,1.11,6.23,6.23,0,0,1,2.14,1.16,1.76,1.76,0,0,1,.62,1.26.94.94,0,0,1-.34.59,2.09,2.09,0,0,1-1.55.5c-1.29-.16-2.59-1.24-3.74-2.19a1.69,1.69,0,0,0-2.13-.05,2.16,2.16,0,0,0-.72,2.22,15.42,15.42,0,0,1-2.36,12.39,2.18,2.18,0,0,0,.29,2.85,1.71,1.71,0,0,0,2.57-.33A19.83,19.83,0,0,0,393,414.26a7.12,7.12,0,0,0,2.12.62,5.47,5.47,0,0,0,4.26-1.38,5.13,5.13,0,0,0,1.67-3.37,5.94,5.94,0,0,0-1.89-4.72,9.71,9.71,0,0,0-3.34-1.92,16.79,16.79,0,0,0-7.44-1.3,9.89,9.89,0,0,0-7.27,4c-1.84,2.56-2.33,5.88-2.45,9.24-5.6,1.53-11.55,3.24-17.83,5-20.55,5.89-41.79,12-53.39,12.64-.51,0-2-1-2.89-1.66-1.71-1.21-3.47-2.45-5.18-2.3a1.85,1.85,0,0,0-1.56,1.28,138.08,138.08,0,0,0-3.86,15,135.77,135.77,0,0,1-3.71,14.44,2.18,2.18,0,0,0,.6,2.36c4.81,4.05,13.12,5.64,19.28,5.77,20.44.45,52.91-12.77,75.92-30.85a14.77,14.77,0,0,0,12.86-2.47A2.12,2.12,0,0,0,399.54,433.75Z"/><path d="M420.94,400.24a4.87,4.87,0,0,0-.16-4,4,4,0,0,0-3.49-2.12,7.38,7.38,0,0,0-2.89.63,94.76,94.76,0,0,0-17.58,8.81,2.16,2.16,0,0,0-.67,2.77,1.73,1.73,0,0,0,2.49.75,91.19,91.19,0,0,1,16.93-8.49,4.92,4.92,0,0,1,1.62-.41.72.72,0,0,1,.46.15,1.32,1.32,0,0,1-.19.55,5.63,5.63,0,0,1-1.53,1.32A154.08,154.08,0,0,1,397.41,411a2.12,2.12,0,0,0-.93,2.68,1.77,1.77,0,0,0,2.41,1,156.44,156.44,0,0,0,18.95-11,8.79,8.79,0,0,0,2.58-2.41A5.68,5.68,0,0,0,420.94,400.24Z"/><path d="M406.72,415.92a14.77,14.77,0,0,1-9.42,6.93,5.74,5.74,0,0,1-3-.06,4.11,4.11,0,0,1-2.69-3.32c-.33-2.67,1.74-5.37,6.16-8,.06,0,6.08-3.5,8.75-1.18h0a3.79,3.79,0,0,1,1.12,3.39,5,5,0,0,1-.28,1.09A7.75,7.75,0,0,1,406.72,415.92Zm-2.49-2.46h0Zm-9,5.37a.53.53,0,0,0,.15.08,2.75,2.75,0,0,0,1.27-.05,11.22,11.22,0,0,0,7.06-5.19l.09-.16a12.62,12.62,0,0,0-4.29,1.48c-2.85,1.72-4,3.18-4.25,3.76Z"/><path d="M409.14,422.12a14.72,14.72,0,0,1-9.41,6.93,5.74,5.74,0,0,1-3-.06,4.09,4.09,0,0,1-2.69-3.32c-.33-2.67,1.74-5.37,6.16-8,.06,0,6.08-3.5,8.75-1.18h0a3.79,3.79,0,0,1,1.12,3.39,5,5,0,0,1-.28,1.09A7,7,0,0,1,409.14,422.12Zm-2.48-2.46h0Zm-9,5.37.14.08a2.78,2.78,0,0,0,1.28-.05,11.22,11.22,0,0,0,7.06-5.19l.09-.16a12.62,12.62,0,0,0-4.29,1.48c-2.85,1.72-4,3.18-4.25,3.76Z"/><path d="M410.11,429.6a12.17,12.17,0,0,1-8.85,5.88,5.65,5.65,0,0,1-2.89-.26,4.27,4.27,0,0,1-2.63-3.11c-.49-2.61,1.47-5.15,5.67-7.36.06,0,5.7-2.77,8.28-.56h0a3.79,3.79,0,0,1,1.21,3.19,4.45,4.45,0,0,1-.29,1.22A6.2,6.2,0,0,1,410.11,429.6Zm-2.65-2.19Zm-7.87,4a2.65,2.65,0,0,0,1.24.05,8.67,8.67,0,0,0,6.23-4.07,10.3,10.3,0,0,0-4.08,1c-2.38,1.25-3.41,2.37-3.62,2.83A1,1,0,0,0,399.59,431.4Z"/><path class="cls-1" d="M201.61,563.89a13.53,13.53,0,0,0,5.74,8c3.17,2.08,9.56,4.88,12.63,1.11.77-.94,1.15-2.79,1.64-3.94A57.64,57.64,0,0,0,225.21,558l2,5a3.91,3.91,0,0,0-2.93,2.43c-1.4,3.46,1.44,5.13,4.16,5.19,2.33,0,4.43-1.92,5.31-4.31a13.59,13.59,0,0,0,.17-7.64,22.08,22.08,0,0,0-3.52-8,480.32,480.32,0,0,0,13.92-49.1q3.21-14.14,5.59-28.5c-8.3-4.7-17.52-6.7-26.77-8-.54-.08-4.18,19.56-5.51,26.85-.23,1.25-.4,2.13-.46,2.5-1.83,9.91-3.42,19.87-4.65,29.89q-.78,6.32-1.36,12.66c-.19,2.11-.29,4.24-.53,6.35-.19,1.76-1.31,2.41-2.39,3.69-2.57,3-5.63,6.36-7.08,10.28C200.45,559.2,201.1,562.08,201.61,563.89Z"/><path class="cls-2" d="M217.6,492a76.27,76.27,0,0,0,14.53,5.85c4.05,1.27,8.14,2.4,12.16,3.77q3.21-14.14,5.59-28.5c-8.3-4.7-17.52-6.7-26.77-8C222.57,465.06,218.93,484.7,217.6,492Z"/><path d="M228.38,572.74a6.72,6.72,0,0,1-5.26-2.32c-.08.21-.15.45-.23.7a10.42,10.42,0,0,1-1.54,3.31c-3.56,4.36-10.27,2.33-14.94-.73a15.58,15.58,0,0,1-6.57-9.19c-1-3.47-1.11-6.07-.42-7.94,1.46-3.92,4.27-7.2,6.75-10.1l.69-.81c.31-.35.61-.66.87-.93.78-.8,1-1.06,1-1.59.13-1.2.22-2.44.31-3.65.06-.89.13-1.77.21-2.66.37-4.14.83-8.42,1.36-12.73,1.17-9.44,2.7-19.26,4.68-30l.14-.77c.48-2.65,1.77-9.72,3-16.25.72-3.7,1.32-6.63,1.77-8.7.28-1.24.5-2.16.68-2.83.24-.86.73-2.66,2.38-2.43,8.46,1.16,18.32,3,27.38,8.18a2.12,2.12,0,0,1,1,2.2,487.35,487.35,0,0,1-19.24,76.9,24.29,24.29,0,0,1,3.22,7.85,15.65,15.65,0,0,1-.24,8.92,8.73,8.73,0,0,1-4.82,5.18A5.77,5.77,0,0,1,228.38,572.74Zm-4-105.36c-.57,2.3-2,8.75-5.24,26.75l-.14.77c-2,10.67-3.48,20.4-4.63,29.75-.53,4.27-1,8.5-1.35,12.6-.08.85-.14,1.71-.2,2.57-.09,1.25-.19,2.54-.33,3.82a6.55,6.55,0,0,1-2.19,4.1c-.25.25-.48.49-.7.75l-.7.82c-2.37,2.76-4.82,5.62-6,8.83-.15.42-.42,1.76.54,5.14a11.43,11.43,0,0,0,4.92,6.88c3,2,8.26,4,10.32,1.5a8.85,8.85,0,0,0,.79-1.94c.16-.5.33-1,.53-1.5a53.86,53.86,0,0,0,3.46-10.62,1.85,1.85,0,0,1,2.21-1.56,2.07,2.07,0,0,1,1.4,2.45c-.17.88-.38,1.76-.62,2.66A5.54,5.54,0,0,1,227,561a1.9,1.9,0,0,1,2.07,1.78,2,2,0,0,1-1.6,2.3,2,2,0,0,0-1.49,1.22,1.57,1.57,0,0,0-.11,1.26,3.24,3.24,0,0,0,2.62,1c1.41,0,2.91-1.25,3.57-3a11.27,11.27,0,0,0,.08-6.36,20.13,20.13,0,0,0-3.17-7.27,2.25,2.25,0,0,1-.28-2,482.92,482.92,0,0,0,19.17-75.7C240.09,470.19,231.73,468.46,224.33,467.38Z"/><path class="cls-3" d="M369.7,597.15a156.15,156.15,0,0,1-41.11,38.26c-3.11-6.39-13.71-25.4-23.38-42.52-8.24-14.56-15.8-27.75-17.53-30.64a23.89,23.89,0,0,0-7.28,3.55c-2.78,11.08-5.62,22.19-8.34,33.28-3.45,13.91-6.73,27.8-9.54,41.63-15.08.62-31.65-3-46-8q5.45-22.61,10.88-45.21L241,530.63l74-13.33c9.79,16.42,21.46,32.63,32.8,48.4C355.48,576.41,363,586.92,369.7,597.15Z"/><path class="cls-3" d="M227.36,587.5a89.55,89.55,0,0,0,44.7,11.58c-3.45,13.91-6.73,27.8-9.54,41.63-15.08.62-31.65-3-46-8Q221.93,610.11,227.36,587.5Z"/><path class="cls-3" d="M369.7,597.15a156.15,156.15,0,0,1-41.11,38.26c-3.11-6.39-13.71-25.4-23.38-42.52,15.57-5.83,29.91-15.33,42.59-27.19C355.48,576.41,363,586.92,369.7,597.15Z"/><path d="M259,643.36c-16.28,0-32.31-4.37-43.2-8.18a2.64,2.64,0,0,1-1.55-3.13L238.79,530a2.43,2.43,0,0,1,1.88-1.88l74-13.34a2.24,2.24,0,0,1,2.31,1.13c9.09,15.25,19.77,30.07,30.11,44.4,8.28,11.47,16.84,23.34,24.54,35.38a2.81,2.81,0,0,1-.09,3.13,158.41,158.41,0,0,1-41.74,38.86,2.13,2.13,0,0,1-1.8.25,2.39,2.39,0,0,1-1.41-1.26c-5.39-11-33.37-60.22-39.86-71.34a19.67,19.67,0,0,0-4.29,2.17q-1.44,5.73-2.89,11.46c-5.17,20.49-10.52,41.68-14.73,62.36a2.4,2.4,0,0,1-2.18,2C261.4,643.34,260.19,643.36,259,643.36ZM219.3,631c10.87,3.64,26.12,7.51,41.35,7.2C264.82,618,270,597.44,275,577.53q1.58-6.21,3.13-12.43a2.6,2.6,0,0,1,1-1.47,26.1,26.1,0,0,1,7.89-3.86,2.22,2.22,0,0,1,2.59,1.05c3.68,6.14,31.88,55.62,39.85,71A153.65,153.65,0,0,0,366.77,597c-7.36-11.37-15.48-22.63-23.35-33.53-10.09-14-20.51-28.44-29.52-43.39l-71,12.8Z"/><polygon class="cls-4" points="263.29 640.71 263.29 677.72 188.13 677.72 188.13 668.44 203.69 651.9 216.63 638.16 263.29 640.71"/><path class="cls-5" d="M263.29,640.71v37H250.71q-5-1.51-9.8-3.44a136.31,136.31,0,0,1-37.22-22.38l12.94-13.74Z"/><path d="M263.29,680.3H188.13a2.46,2.46,0,0,1-2.33-2.58v-9.28a2.7,2.7,0,0,1,.72-1.86L215,636.3a2.18,2.18,0,0,1,1.72-.72l46.67,2.55a2.49,2.49,0,0,1,2.21,2.58v37A2.46,2.46,0,0,1,263.29,680.3Zm-72.84-5.16H261v-32l-43.46-2.37-27.06,28.75Z"/><polygon class="cls-4" points="331.66 635.13 346.97 668.01 413.73 629.64 409.89 621.4 389.22 614.65 372.05 609.05 331.66 635.13"/><path class="cls-5" d="M331.66,635.13,347,668l11.17-6.43q3.78-3.87,7.28-8.05a156.93,156.93,0,0,0,23.8-38.88l-17.17-5.6Z"/><path d="M347,670.59a2.16,2.16,0,0,1-.71-.12,2.46,2.46,0,0,1-1.36-1.28l-15.31-32.87a2.74,2.74,0,0,1,.9-3.42l40.39-26.08a2.16,2.16,0,0,1,1.83-.24l37.84,12.35a2.41,2.41,0,0,1,1.41,1.29l3.83,8.24a2.79,2.79,0,0,1,.15,2,2.51,2.51,0,0,1-1.14,1.51L348,670.3A2.18,2.18,0,0,1,347,670.59Zm-12.23-34.46L348,664.53l62.64-36-2.32-5-35.92-11.73Z"/><path class="cls-6" d="M272.65,622.7c-20.4-1-39.47-5.79-58.61-14.1-2.65,8.17-4.07,17.29-5.36,25.91,7.39,6.71,15.84,9.91,25.89,11.87,13.19,2.57,25.51,3.66,37.77,1.78C272.82,639.93,272.77,630.94,272.65,622.7Z"/><path d="M259.51,651.7a132.26,132.26,0,0,1-25.34-2.77c-11.69-2.28-20-6.11-27-12.42a2.75,2.75,0,0,1-.83-2.43c1.19-7.89,2.67-17.72,5.48-26.36a2.46,2.46,0,0,1,1.22-1.47,2.12,2.12,0,0,1,1.81-.06c19.48,8.46,38.4,13,57.86,13.93a2.48,2.48,0,0,1,2.23,2.54c.11,8.45.16,17.41-.32,25.66a2.49,2.49,0,0,1-2,2.4A86.55,86.55,0,0,1,259.51,651.7ZM211.2,633.43c6.16,5.24,13.36,8.38,23.78,10.41,13.92,2.71,24.87,3.35,35.15,2,.31-6.69.31-13.82.23-20.71A166.12,166.12,0,0,1,215.47,612,172.74,172.74,0,0,0,211.2,633.43Z"/><path class="cls-6" d="M365.48,583.37A176.54,176.54,0,0,1,314,617.6c3.1,8,7.68,15.71,12,23,9.52-.73,17.66-4.8,26.2-11,11.2-8.14,20.86-16.71,28.65-27.4C376.21,595.82,370.64,589.3,365.48,583.37Z"/><path d="M326.08,643.17a2.27,2.27,0,0,1-1.94-1.15c-4-6.67-9-15-12.24-23.39a2.84,2.84,0,0,1,0-2,2.42,2.42,0,0,1,1.28-1.41A174.66,174.66,0,0,0,364,581.41a2.16,2.16,0,0,1,3.19.17c5.3,6.09,10.85,12.6,15.57,19a2.79,2.79,0,0,1,0,3.26c-7.21,9.89-16.21,18.5-29.19,27.94-9.93,7.22-18.35,10.74-27.31,11.42ZM317.15,619a164.3,164.3,0,0,0,10.1,18.91c7.72-.86,14.91-4,23.76-10.47,11.83-8.6,20.21-16.45,26.9-25.23-3.89-5.11-8.29-10.31-12.59-15.28A178.56,178.56,0,0,1,317.15,619Z"/><path class="cls-7" d="M326.06,431.55c-6.12-5.37-30.28,4.4-48.09,7.76-8.46,1.6-27.6,6.78-36.07,8.37-17.81,3.37-28.25,36.45-31.49,52.13,9.07,3.27,16.9,5.31,26.11,5.48l.27-.08h0q-.19,6.87-.43,13.7t-.46,13.45c26.29,12.47,70-2.05,82.65-16.67q-1.74-5.78-3.5-11.6c-1.93-6.34-9.27-28.43-11.46-34.67L326.06,466C329.93,460.81,328.38,446.18,326.06,431.55Z"/><path class="cls-8" d="M318.55,515.69c-12.6,14.62-56.36,29.14-82.65,16.67q.24-6.72.46-13.45a115.3,115.3,0,0,0,43.14-.9,119.47,119.47,0,0,0,35.55-13.92Q316.82,509.91,318.55,515.69Z"/><path d="M236.52,507.87h0c-10.43-.2-19-2.81-26.78-5.6a2.62,2.62,0,0,1-1.55-3c1-5.09,10.92-49.86,33.36-54.1,4.18-.79,11.17-2.51,17.93-4.17s13.85-3.4,18.14-4.21c5.32-1,11.05-2.19,16.59-3.33,13.22-2.74,25.71-5.32,31.89-5.32a2.41,2.41,0,0,1,2.29,2.12c1.81,11.11,3.86,26.91.64,35.85a2.4,2.4,0,0,1-1.78,1.59l-24,4.36a2.37,2.37,0,0,1-2.67-2.13,2.56,2.56,0,0,1,1.92-3l22.65-4.11c2.13-8.07.15-22.41-1-29.47-6.31.43-17.42,2.73-29.11,5.15-5.56,1.15-11.3,2.34-16.66,3.35-4.17.79-11.16,2.51-17.91,4.17s-13.87,3.4-18.16,4.21c-15.13,2.86-25.15,30.39-29.11,47.85,9.09,3.13,16,4.49,23.38,4.63a2.6,2.6,0,0,1,0,5.16Z"/><path d="M259.59,539.69c-8.11,0-16.79-1.24-24.61-5a2.63,2.63,0,0,1-1.41-2.48c.76-20.3,1.33-40.89,1.7-61.21a2.45,2.45,0,0,1,2.32-2.53h0a2.49,2.49,0,0,1,2.28,2.63c-.36,19.75-.91,39.76-1.63,59.5,24.55,10.41,64.28-1.91,77.6-15.67-.37-1.22-.74-2.45-1.12-3.68-5.47-18.18-11.13-37-20.21-53.12a2.76,2.76,0,0,1,.74-3.56,2.19,2.19,0,0,1,3.2.82c9.37,16.68,15.12,35.76,20.68,54.22l1.58,5.21a2.81,2.81,0,0,1-.53,2.61c-6.65,7.72-21.32,15.27-37.37,19.23A99.61,99.61,0,0,1,259.59,539.69Z"/><path d="M125.32,181.22q-.37,6.6-1.24,13.09c-3.92,29.72-15,58-26.39,85.45-4.48,10.82-9.12,21.8-16.31,30.63s-17.45,15.38-28.16,14.73c-11.63-.7-27.17-8.21-31.54-20.2a130.43,130.43,0,0,1-7.48-35.14c0-.41-.07-.82-.09-1.24-.47-7.44-.07-15.66,4.44-21.18a32.63,32.63,0,0,1-11.94-7.82c-3.24-3.56-5-9.37-2.79-13.82,2.36-4.84,8-6.14,13-6.2-5.2-14.17-11-31.35-11-46.64s6.58-31.63,19.2-37.73c5.52-2.66,11.65-3.18,17.66-3.43,8.6-.35,17.2-.22,25.8,0,10.43.25,21,.65,30.92,4.26s19.21,10.91,23.35,21.54C125.57,164.88,125.76,173.19,125.32,181.22Z"/><path d="M124.08,194.31c-3.92,29.72-15,58-26.39,85.45-4.48,10.82-9.12,21.8-16.31,30.63s-17.45,15.38-28.16,14.73c-11.63-.7-27.17-8.21-31.54-20.2a130.43,130.43,0,0,1-7.48-35.14c9.1-5.58,19.27-9.38,29.2-13-2.3-2.52-5.55-6.56-6.42-10-1.12-4.44-1.67-9.21-.51-13.63s4.35-8.41,8.44-9.18c-6.47-14.47-11-32.57-7.4-48.23s12.29-29.81,24.16-39.15l2.5-1.36C75.06,162.93,99.92,179.33,124.08,194.31Z"/><path d="M300.12,144.8c-5.22-9.28-9.66-21.09-5.11-30.8,2.65-5.65,7.82-9.23,12.9-12.19a138.07,138.07,0,0,1,23-10.7c4.48-1.59,9.35-2.94,13.82-1.31,5.56,2,9,8.09,11.75,13.82,10.71,22.19,18.38,46,26,69.7,1.49,4.64,3,9.49,2.4,14.36-2.53,20.56-28,16.8-39.32,8.88C327.24,183.74,311.55,165.13,300.12,144.8Z"/><path d="M54.68,328.18c-.54,0-1.07,0-1.61-.05-13-.79-29.24-9.26-33.9-22.08a133.57,133.57,0,0,1-7.77-37.3c-.36-5.76-.37-13.66,2.93-20a32.6,32.6,0,0,1-9.63-7c-3.69-4.05-6.29-11.22-3.27-17.4,2-4.1,5.93-6.65,11.47-7.47-5-13.91-9.85-29.49-9.85-43.93,0-15.15,6.45-33.54,20.83-40.49,6.08-2.94,12.81-3.44,18.64-3.68,8.22-.34,16.32-.25,26,0,11.48.28,21.8.8,31.71,4.41,11.81,4.3,20.92,12.76,25,23.2,3.29,8.43,3.25,17.85,2.84,25.11-1.91,34.4-14.27,66.75-27.86,99.61-4.26,10.29-9.09,22-16.77,31.4C75.17,322.5,64.79,328.18,54.68,328.18ZM24.19,303.79C28,314.25,42.3,321.44,53.37,322.11c8.83.53,18.55-4.6,26-13.74,7.13-8.75,11.77-20,15.87-29.87,13.37-32.32,25.52-64.1,27.38-97.46.36-6.59.42-15.09-2.41-22.35-3.45-8.86-11.37-16.1-21.7-19.87-9.2-3.35-19.09-3.84-30.14-4.1-9.54-.23-17.55-.32-25.64,0-5.58.23-11.46.67-16.67,3.18-12.14,5.86-17.57,21.79-17.57,35,0,14.7,5.59,31.2,10.84,45.51a3.28,3.28,0,0,1-.26,2.8,2.64,2.64,0,0,1-2.23,1.34c-3.14,0-8.7.68-10.63,4.62-1.59,3.26,0,7.71,2.32,10.25a29.82,29.82,0,0,0,11,7.13,2.92,2.92,0,0,1,1.71,2.1,3.27,3.27,0,0,1-.63,2.75c-4.11,5-4.11,13.22-3.75,18.95A127.57,127.57,0,0,0,24.19,303.79Z"/><path d="M366.16,205.91a40.48,40.48,0,0,1-22-6.8C326.41,186.72,310,168,297.82,146.39h0c-7.62-13.55-9.37-24.92-5.22-33.78,3-6.39,8.53-10.25,14-13.47a141.25,141.25,0,0,1,23.42-10.9c5-1.78,10.37-3.18,15.5-1.3,6.34,2.32,10.13,8.71,13.29,15.26,10.83,22.43,18.63,46.67,26.18,70.11,1.45,4.49,3.24,10.07,2.54,15.78-.87,7.11-4.29,12.39-9.89,15.29A25,25,0,0,1,366.16,205.91ZM302.42,143.2C314.14,164.05,330,182.09,347,194c7.39,5.16,20.55,8,28.38,3.92,4-2.05,6.18-5.54,6.81-10.65.52-4.26-1-8.87-2.28-12.94-7.48-23.23-15.22-47.26-25.85-69.3-2.63-5.45-5.68-10.72-10.21-12.38-3.66-1.34-8-.16-12.14,1.32a135.32,135.32,0,0,0-22.56,10.5c-4.74,2.76-9.45,6-11.76,10.91-3.2,6.84-1.52,16.2,5,27.81Z"/><path class="cls-1" d="M237.52,454.6a33.51,33.51,0,0,0,3.39,7.26c4.4,6.94,13,12.32,22.34,11.26,10.66-1.21,18.85-10.4,21.07-19.63a33.52,33.52,0,0,0,.84-9.69c-.28-6-1.82-11.93-3.36-17.73-15.46,4.74-31.34,11.13-47.4,12.49C235.08,444,235.79,449.47,237.52,454.6Z"/><g class="cls-9"><path class="cls-10" d="M237.52,454.6a48.28,48.28,0,0,0,20.86,1.09,56.69,56.69,0,0,0,26.78-11.89c-.28-6-1.82-11.93-3.36-17.73-15.46,4.74-31.34,11.13-47.4,12.49C235.08,444,235.79,449.47,237.52,454.6Z"/></g><path d="M260.87,475.92a26.38,26.38,0,0,1-21.93-12.53,35.94,35.94,0,0,1-3.67-7.85c-1.85-5.52-2.59-11.41-3.24-16.61a2.86,2.86,0,0,1,.5-2,2.38,2.38,0,0,1,1.69-1c12.13-1,24.38-5,36.22-8.95,3.52-1.16,7.16-2.36,10.72-3.45a2.37,2.37,0,0,1,2.94,1.82c1.48,5.56,3.16,11.86,3.46,18.34a36.74,36.74,0,0,1-.92,10.52c-2.33,9.69-11,20.21-23.15,21.59A23,23,0,0,1,260.87,475.92ZM237.14,441a68.57,68.57,0,0,0,2.63,12.7,30.21,30.21,0,0,0,3.1,6.65c3.66,5.77,11.31,11.16,20.13,10.14,10-1.13,17.1-9.74,19-17.66a31.3,31.3,0,0,0,.76-8.86,72.6,72.6,0,0,0-2.61-14.59c-2.79.88-5.61,1.81-8.36,2.72C260.53,435.77,248.9,439.6,237.14,441Z"/><path class="cls-1" d="M62,290.1a35.09,35.09,0,0,0-29.9-6C22,286.83,13,294.44,7.93,304.57.36,319.8,2.08,339,8.31,355c7.51,19.29,21.32,35.47,38.26,44.84a74.47,74.47,0,0,0,55.27,6.89C113,398.6,118,384.24,117,369.46s-7.37-28.52-15.18-40.54C91.82,313.51,76.19,300.72,62,290.1Z"/><path d="M83,412.37a78.2,78.2,0,0,1-37.69-9.7C27.84,393,13.4,376.1,5.66,356.23-1.8,337.09-1.89,317.7,5.41,303c5.41-10.88,15.13-19.11,26-22a37.89,37.89,0,0,1,32.19,6.44h0c14.28,10.69,30.27,23.76,40.55,39.61,9.64,14.85,14.78,28.65,15.71,42.17,1.16,16.85-5,31.86-16.45,40.15a2.67,2.67,0,0,1-.9.43A75,75,0,0,1,83,412.37ZM40.76,286.19a30.85,30.85,0,0,0-8,1c-9.33,2.49-17.67,9.56-22.31,18.89-6.34,12.74-6.15,30.52.49,47.57,7.21,18.5,20.66,34.26,36.9,43.24a72.26,72.26,0,0,0,52.82,6.78c9.41-7.06,14.43-19.73,13.45-34-.84-12.31-5.63-25-14.64-38.91-9.75-15-25.23-27.66-39.09-38A33,33,0,0,0,40.76,286.19Z"/><path d="M121.85,356.68a7.81,7.81,0,0,0,2.09-2.89c1.67-3.92.16-8.6-3.37-10.45a118.43,118.43,0,0,0-84.81-10c-3.8,1-6.16,5.21-5.28,9.43s4.69,6.85,8.49,5.87a105.47,105.47,0,0,1,75.56,8.92A6.49,6.49,0,0,0,121.85,356.68Z"/><path class="cls-1" d="M355.91,183.32c3.53-10.89,11.32-20,20.94-24.45a34.7,34.7,0,0,1,30.38.64c14.21,7.31,23,23.93,26.5,40.9a100,100,0,0,1-7,61.28c-8.68,18.68-23.45,33.78-40.93,41.84-13.32.81-25-7.5-32-20.09s-9.22-27.84-9.33-42.66C344.3,221.78,350.11,201.2,355.91,183.32Z"/><path d="M384,306.79c-12.94,0-25.06-8-32.72-21.66-6.44-11.51-9.63-26-9.76-44.33-.13-19.54,5.81-40.57,11.64-58.56h0c3.79-11.7,12.22-21.54,22.54-26.33a37.52,37.52,0,0,1,32.71.69c13.69,7.05,23.94,22.76,28.1,43.09a104,104,0,0,1-7.26,63.47c-8.94,19.23-24.39,35-42.38,43.33a2.61,2.61,0,0,1-.95.24Q385,306.79,384,306.79ZM358.62,184.41c-5.66,17.46-11.43,37.81-11.3,56.34.11,17.11,3,30.52,8.89,41,6.81,12.17,17.62,19.09,28.94,18.61,16.56-7.79,30.76-22.39,39-40.14a96.94,96.94,0,0,0,6.76-59.1c-3.71-18.12-13-32.59-24.91-38.7a32.12,32.12,0,0,0-28.05-.6c-8.86,4.11-16.09,12.56-19.34,22.59Z"/><path d="M343.05,276.32a6.54,6.54,0,0,1-3.22-1A8.29,8.29,0,0,1,337,264.72c13.89-28.43,36.3-51.07,63.08-63.75,3.59-1.7,7.74.15,9.27,4.14s-.13,8.6-3.72,10.3c-23.87,11.31-43.83,31.48-56.21,56.8A7,7,0,0,1,343.05,276.32Z"/><path class="cls-1" d="M402.21,306.07c-.58,79.5-86.35,118.35-143,138.46-20.9,7.41-42.16,14.06-64,16.43-40.62,4.4-80.32-8.41-105.27-45.83-13.25-19.85-21.45-43.19-26.4-67.44-.62-2.95-1.17-5.92-1.68-8.89-.42-2.4-.8-4.81-1.15-7.21-.18-1.19-.35-2.38-.51-3.58-.77-5.62-1.39-11.27-1.89-16.89s-.87-11.21-1.14-16.77q-.87-17.94-.25-35.87c0-1.47.11-2.94.18-4.4.16-3.59.39-7.15.69-10.72,2.14-25.23,7.71-49.91,18.25-72.62q1.94-4.16,4.1-8.15a.31.31,0,0,1,.09-.16,155.65,155.65,0,0,1,13.25-20.61l.16-.2c15.88-20.82,36.57-37.16,59.5-46.91a128.57,128.57,0,0,1,81.74-6.52c46.28,11.17,87.42,45.74,118.19,86.44.94,1.23,1.86,2.47,2.78,3.72q2.13,2.88,4.17,5.8c.4.57.79,1.15,1.2,1.72,2.08,3,4.12,6.09,6.09,9.22q3.59,5.66,6.9,11.53,1.92,3.39,3.73,6.87c.9,1.72,1.78,3.44,2.64,5.19C393.9,245.54,402.44,275.29,402.21,306.07Z"/><path class="cls-11" d="M353.1,174.63a94.47,94.47,0,0,0-17.73,12.14c-11.17,9.91-19.26,23.37-31.76,31.07-.69-11.69-6-23-14.19-30.31-3.72-3.33-8-5.86-11.86-9s-4.94-7.65-6.66-12.61c-24.46,3.52-49.15,4.17-73.8,4.83-7.29.19-15.07,1.2-21.66-2.27C133.19,192,90.81,217.75,57.13,254.08c.16-3.59.39-7.15.69-10.72,2.14-25.23,7.71-49.91,18.25-72.62q1.94-4.16,4.1-8.15a.31.31,0,0,1,.09-.16,155.65,155.65,0,0,1,13.25-20.61l.16-.2c15.88-20.82,36.57-37.16,59.5-46.91a128.57,128.57,0,0,1,81.74-6.52C281.19,99.36,322.33,133.93,353.1,174.63Z"/><path d="M179.88,464.85c-39,0-71.28-16.68-92.11-47.91h0c-15.17-22.74-25.34-52.5-30.25-88.47-1.44-10.55-2.47-22-3.05-34-.57-11.75-.66-23.91-.26-36.15,1.1-33.68,7.64-63.63,19.43-89,1.34-2.86,2.73-5.64,4.14-8.25a3,3,0,0,1,.16-.31,160.2,160.2,0,0,1,13.49-20.94l.19-.25c16.26-21.3,37.21-37.8,60.58-47.73a130.56,130.56,0,0,1,25-7.84,133.25,133.25,0,0,1,58.24,1.18c45.5,11,90.51,45.46,126.74,97.07,2.48,3.54,5,7.26,7.38,11.06,23.39,37,35.61,76,35.35,112.76-.26,36-17.64,67.61-51.65,94-30.4,23.57-67.77,38.32-93.24,47.36-20.12,7.15-41.86,14.09-64.55,16.56A144.27,144.27,0,0,1,179.88,464.85ZM82.57,164a.54.54,0,0,1,0,.11c-1.37,2.53-2.72,5.21-4,8-11.42,24.58-17.75,53.67-18.83,86.44-.39,12.06-.3,24,.26,35.6.57,11.79,1.58,23,3,33.38,4.77,35,14.6,63.83,29.23,85.76h0C114.54,446.86,151,462.7,195,457.94c22.18-2.42,43.59-9.26,63.43-16.3,25.12-8.93,62-23.46,91.77-46.56,32.47-25.17,49.05-55.12,49.3-89,.26-35.52-11.62-73.29-34.36-109.21-2.35-3.72-4.78-7.36-7.21-10.81-35.44-50.5-79.33-84.19-123.58-94.87A128.37,128.37,0,0,0,178.23,90a125.85,125.85,0,0,0-24.07,7.54c-22.54,9.57-42.73,25.49-58.39,46l-.11.13,0,.07a153.92,153.92,0,0,0-13,20.2A.21.21,0,0,1,82.57,164Z"/><path class="cls-12" d="M221.79,304.19c1.08,3.23,6.89,3.82,13,1.31s10.16-7.16,9.08-10.39-6.89-3.82-13-1.31S220.71,301,221.79,304.19Z"/><path class="cls-13" d="M160.29,356.62c5.94,18.77,17.05,34,31,44.22,19.48,14.35,44.47,19,68.42,10.32,25.81-9.38,44.33-32.09,51.42-59a96.94,96.94,0,0,0-.26-50.23Z"/><path class="cls-14" d="M191.27,400.84c19.48,14.35,44.47,19,68.42,10.32,25.81-9.38,44.33-32.09,51.42-59-21.68-1.23-43.41,1.11-64,8.63A128.43,128.43,0,0,0,191.27,400.84Z"/><path class="cls-15" d="M167.75,353.91a78.79,78.79,0,0,0,34.05,8.63c22.21.57,44-7.11,64.27-17.2,11.12-5.52,22.23-12,30.2-22.26A46.84,46.84,0,0,0,305.1,304Z"/><path d="M234.77,417.64a74.84,74.84,0,0,1-36.2-9.47c-19.27-10.6-33.8-28.84-40.91-51.37a3.17,3.17,0,0,1,.12-2.19,2.71,2.71,0,0,1,1.5-1.44l150.56-54.7a2.32,2.32,0,0,1,2,.18,2.77,2.77,0,0,1,1.26,1.69,99.37,99.37,0,0,1-5.67,68.29c-9.92,21.24-26.67,37-47.14,44.47A74.6,74.6,0,0,1,234.77,417.64Zm-71.39-60c14.6,41.67,56.77,64.06,95.29,50.07S319.29,348,308.91,304.77Z"/><path d="M379.21,103.88c-1.57,8.24-8.81,14.39-15.41,17.17,1.77,5.82,3.56,12.1,2.24,17.93s-5.3,9.75-9.43,12.86-8.61,5.59-13.48,6.08-10.46-2.11-13.91-6.5c3.17,20.78-6.32,40.68-22.49,47.68,1.62-6.76-1.75-14.22-6.26-19.06s-10.09-7.92-15-12.13-.36-8.84-.77-16c-34,8.71-108.44,1.38-108.44,1.38S97.33,194.88,60.92,210.05C45.2,187,40.29,155.1,45.09,126.73q.6-3.57,1.4-7.06C52.21,94.22,65,71.74,80.93,53.84c24-27.08,55.5-44.55,88.74-49.3C161.29,11.1,153.41,22.38,152,34.45,171.33,18,194.6,3.71,218.75,3s49,8.71,68.14,27.57c12.3-5.44,28.57-6.73,41.46-2.05C338.59,32.28,349.94,39,357,48.88c3.07,4.29,4.82,10.65,6.4,17a118.94,118.94,0,0,0,3.68,13C370.09,86.77,380.77,95.64,379.21,103.88Z"/><path d="M379.21,103.88c-1.57,8.24-8.81,14.39-15.41,17.17,1.77,5.82,3.56,12.1,2.24,17.93s-5.3,9.75-9.43,12.86-8.61,5.59-13.48,6.08-10.46-2.11-13.91-6.5c3.17,20.78-6.32,40.68-22.49,47.68,1.62-6.76-1.75-14.22-6.26-19.06s-10.09-7.92-15-12.13-.36-8.84-.77-16c-34,8.71-108.44,1.38-108.44,1.38S97.33,194.88,60.92,210.05C45.2,187,40.29,155.1,45.09,126.73q.6-3.57,1.4-7.06a175.13,175.13,0,0,0,29.26,66.4c-.6-1.19-.29-3.89-.34-5.25a101.36,101.36,0,0,1,11.1-50.13c-.25,14.07,4.49,27,12.27,38.11,11.86-10.22,18.6-25.27,25.32-40.18,6.57-14.6,11.18-31.17,19.3-44.8,4.09,20.89,1.74,45-1.26,65.94a86.18,86.18,0,0,0,12.65-22.89q.56,9.7,1.58,19.36c9.17-17.2,19.77-30.59,34.88-41.45a51.33,51.33,0,0,0-3.36,27.3c12.79-17.91,27.19-34.23,44.15-47.17,8.35-6.37,17.41-12.18,27.42-13.87a18.26,18.26,0,0,1,10,.65,11,11,0,0,1,6.64,7.87c1,5.19-2.27,10.09-5.25,14.26A383.87,383.87,0,0,0,244.71,136c11.18-7.5,21.6-17.86,30.83-28.14a167.48,167.48,0,0,0-8.23,33.62c3.59-8.6,10.27-16.09,17.48-21.18,4.31-3,9.81-5.27,14.43-2.85,4.47,2.32,6.63,8.22,10.9,10.94,4.48,2.85,10.54,1.38,14.21-2.65s5.12-10.07,4.74-15.79c4.37,3.47,10.31.86,15.14-1.75a26.7,26.7,0,0,0,8.17-6.31A15.33,15.33,0,0,0,356,91.85a20.49,20.49,0,0,0-1.17-5.58,56.68,56.68,0,0,0-7.58-15.09c5.16-.82,11.3-2.31,16.13-5.33a118.94,118.94,0,0,0,3.68,13C370.09,86.77,380.77,95.64,379.21,103.88Z"/><path d="M60.92,213.05a2.61,2.61,0,0,1-2.16-1.19c-15.46-22.7-21.57-54.73-16.33-85.68C47,99.3,59.62,73.55,79,51.73,103.44,24.2,135.53,6.38,169.33,1.55a2.7,2.7,0,0,1,2.87,1.9,3.19,3.19,0,0,1-1,3.55,47.57,47.57,0,0,0-14.61,19.9C178.53,9.59,199.38.56,218.68,0c25-.67,49.95,9.19,68.76,27.12,13.2-5.35,29.39-5.94,41.75-1.45,7.4,2.69,21.14,9,29.93,21.3,3.71,5.18,5.55,12.63,7.34,19.83a98.41,98.41,0,0,0,3.11,10.88h0c1,2.55,3,5.4,5.14,8.41,4.13,5.81,8.4,11.82,7.15,18.38-1.64,8.66-8.29,14.87-14.7,18.23,1.45,5,2.83,11.15,1.51,17-1.63,7.23-6.8,11.8-10.54,14.61-5.36,4-10,6.11-14.76,6.59a17.43,17.43,0,0,1-10.85-2.74c.4,19.34-9.36,37-24.81,43.73a2.5,2.5,0,0,1-2.79-.57,3.2,3.2,0,0,1-.81-3c1.43-6-2.08-12.41-5.53-16.12a58.19,58.19,0,0,0-8.69-7.21c-2-1.47-4.1-3-6.09-4.69-4.52-3.86-3.46-8.43-2.61-12.09.19-.82.38-1.65.53-2.5-33.74,7.11-97,1.45-105,.69C169,160.46,96.2,198.57,61.87,212.86A2.44,2.44,0,0,1,60.92,213.05ZM160.75,9.2C131.58,15.55,104.21,31.92,82.86,56c-18.62,21-30.76,45.63-35.1,71.33-4.82,28.5.46,57.88,14.12,79.12,36.68-15.56,112.42-55.4,113.2-55.8a2.44,2.44,0,0,1,1.4-.28c.74.07,74.38,7.18,107.59-1.31a2.5,2.5,0,0,1,2.23.52,3.08,3.08,0,0,1,1.08,2.22,27,27,0,0,1-.94,8c-.86,3.72-.89,4.49.67,5.81,1.82,1.57,3.73,3,5.75,4.43a63.08,63.08,0,0,1,9.49,7.92c3.49,3.75,7,9.79,7.45,16.28,12.47-7.86,19.4-24.81,16.75-42.23a3.1,3.1,0,0,1,1.51-3.23,2.54,2.54,0,0,1,3.21.75c2.85,3.63,7.62,5.88,11.61,5.48,3.76-.38,7.65-2.16,12.21-5.58,4.78-3.59,7.42-7.11,8.32-11.09,1.09-4.8-.34-10.2-2.18-16.24a3.11,3.11,0,0,1,1.61-3.78c5.45-2.29,12.31-7.59,13.71-15,.72-3.8-2.74-8.68-6.1-13.41-2.26-3.19-4.61-6.49-5.87-9.78a101.7,101.7,0,0,1-3.35-11.64c-1.64-6.62-3.34-13.46-6.36-17.67-5.77-8.06-15.75-15.11-27.37-19.33s-27.26-3.48-39.61,2a2.5,2.5,0,0,1-2.8-.55C267.15,15.17,243,5.39,218.81,6.06c-20,.54-41.88,10.9-65.15,30.78a2.5,2.5,0,0,1-3,.22,3.12,3.12,0,0,1-1.33-3C150.45,24.3,155.24,15.66,160.75,9.2Z"/><path d="M168,235.11c-7.88-3.63-16.23-4.84-24.17-.75A53.82,53.82,0,0,0,133.32,242a157.41,157.41,0,0,0-13.08,12.89c-1.77,2-3.14,5.78.27,6.81,3.13.95,7-1.44,9.93-2.54q5.67-2.14,11.26-4.54,11.37-4.86,22.37-10.73C166,242.84,173.08,237.43,168,235.11Z"/><path d="M242,208.81c4.12-8.3,10-15,18.47-17.33A48.41,48.41,0,0,1,273,190.13a138,138,0,0,1,17.47,1c2.47.3,5.69,2.34,3.61,5.51-1.92,2.91-6.29,3.73-9.19,4.89-3.76,1.51-7.54,2.92-11.35,4.26q-11.62,4.08-23.5,7.11C247.87,213.46,239.33,214.12,242,208.81Z"/><ellipse class="cls-15" cx="284.36" cy="258.63" rx="31" ry="34.43"/><ellipse cx="285.01" cy="259.13" rx="21.52" ry="23.91"/><ellipse class="cls-15" cx="161.04" cy="297.97" rx="31" ry="34.43"/><ellipse cx="160.74" cy="297.77" rx="21.52" ry="23.91"/></g></g></svg>