<svg xmlns="http://www.w3.org/2000/svg" viewBox="0 0 145.71 630.44"><defs><style>.cls-1{fill:#fff;}</style></defs><g id="Layer_2" data-name="Layer 2"><g id="Layer_1-2" data-name="Layer 1"><path class="cls-1" d="M125.2,132.24a83.23,83.23,0,0,1-17.4,12.6,27,27,0,0,1-11.1,4.6,99.17,99.17,0,0,1-14.1,1.8q-7.2.4-12.2.6a6.41,6.41,0,0,1-1-.2l-.8-.2-4.2-2.6q-6,0-12.9-.3a44.9,44.9,0,0,1-12.7-2.3l-.2-.2a161.57,161.57,0,0,1-15.9-9.2,95.18,95.18,0,0,1-14.3-11.2l-.2-.2c0-.26-.07-.4-.2-.4a39.55,39.55,0,0,1-6.2-15.8c-.27-1.06-.5-2-.7-2.9a4.32,4.32,0,0,1,.5-2.9,11.32,11.32,0,0,1,5.8-5.6,3.49,3.49,0,0,1,2.6-.5,10.72,10.72,0,0,0,2.6.3c1.2.14,2.43.24,3.7.3s2.5.17,3.7.3q4.8.21,9.5.3t9.5-.1c.8,0,1.57,0,2.3-.1s1.5-.1,2.3-.1l-.2-5.4a37,37,0,0,1-5-1.4l-.2-.2q-6.8-2.79-14.2-6.6a49.79,49.79,0,0,1-12.6-9,.18.18,0,0,0-.2-.2l-.2-.2A37.69,37.69,0,0,1,6.4,67,39.81,39.81,0,0,1,3.2,53v.4Q2.8,51,4.6,46.54A81.58,81.58,0,0,1,9.2,37v-.4h.2V36a.18.18,0,0,1,.2-.2c.53-1.06,1-2.13,1.5-3.2s.83-2,1.1-2.8v-.6a.85.85,0,0,1,.2-.6h.2l.6-.4L19.6,20v-.2c-.13-.26,0-.4.4-.4-.13-.26-.07-.4.2-.4l.4-.2,1.2-.8q4.39-5.79,6.8-8.4a.55.55,0,0,0,.4-.2l.4-.4A49.64,49.64,0,0,1,37,5.64a85.12,85.12,0,0,1,8.2-2.4A96.3,96.3,0,0,1,55,.94,56.34,56.34,0,0,1,65,0a66.43,66.43,0,0,1,10.2.5q6.19.71,12.9,2.1a84.79,84.79,0,0,1,12.5,3.6,27,27,0,0,1,8.8,5,65.11,65.11,0,0,1,8.8,6,57.9,57.9,0,0,1,7.6,7.4,45,45,0,0,1,4.9,7.3,32.89,32.89,0,0,1,3.1,8.3c.27,1.07.53,2,.8,2.9a5.05,5.05,0,0,1-.2,3.1q-1.8,4.41-4.2,5.4a17.54,17.54,0,0,1-6.6,1H116l-9.3-.4Q102,52,97.4,52l-1,2.6a101.3,101.3,0,0,1,12.3,2.7,23.21,23.21,0,0,1,9.7,5.3A82.46,82.46,0,0,1,128.6,71a46.24,46.24,0,0,1,8.2,10.4l-.2-.2a25.15,25.15,0,0,1,3.4,10,58.5,58.5,0,0,1,.6,12.8,23.27,23.27,0,0,1-2.6,10.2,42.45,42.45,0,0,1-5.4,9.6A63.69,63.69,0,0,1,125.2,132.24ZM6.4,108.44a7.4,7.4,0,0,1,.4,1.8l5.4-7.8a2.6,2.6,0,0,1-.6-.1,3.65,3.65,0,0,0-.8-.1L7,103.84a11.32,11.32,0,0,0-1,1.6,2.14,2.14,0,0,0,.1,1.4A5.93,5.93,0,0,1,6.4,108.44Zm.8,3.6,3.8.4a36.33,36.33,0,0,1,3.7.2c1.27.14,2.23.27,2.9.4l-3.4-10.4h-.6l-6.4,9.2Zm.6,1.6a42.64,42.64,0,0,0,3.6,8l5.8-7.2Zm7.8-50,6.8-9.2L8.6,50q1.8,3.6,3.5,7.1c1.13,2.34,2.17,4.37,3.1,6.1ZM9.2,57l3.2,3.4-3.4-7a16.4,16.4,0,0,0,.1,1.9A14.69,14.69,0,0,1,9.2,57ZM9,58.44l5.6,13.4v-1L9.8,59.24Zm.2-9.6,13,4.2L19,37.64c-1.73,2-3.47,4-5.2,5.9S10.53,47.24,9.2,48.84Zm1.6,16.4a11.07,11.07,0,0,0,1,2.2l-2.2-5.2Q10.2,63.85,10.8,65.24Zm4-28.2q-2.81,4.6-4.6,8.2,2.21-2.6,4.2-4.8t3.2-3.6h.3Zm-2.2,85.8c-.13-.13-.23-.2-.3-.2s0,.14.3.4l7.4-.2-1.6-7.2ZM14,29.24l-.2.4Zm0,95q2.4,2.2,5.4,4.6l1-4.4-.2-.4h-3A26.43,26.43,0,0,0,14,124.24ZM14.6,65l.4.6v-.4A.55.55,0,0,1,14.6,65Zm.8,37.6q1,2.81,1.9,5.4t1.5,4.6l3.6-9.4V103H19.8C18.6,102.91,17.13,102.78,15.4,102.64Zm1.2-68.4-.8,1.2a12.5,12.5,0,0,1,1.8-.2Zm-.8,38,2.6,3L16,68.44Zm.6-7,4.4,11.6,9-15.2ZM17.2,33,19,35c.13-.93.23-1.86.3-2.8s.17-1.8.3-2.6C18.8,30.84,18,32,17.2,33Zm6.2,22.4-6,7.8L29.8,60c-1.2-.8-2.37-1.63-3.5-2.5S24.2,56,23.4,55.44Zm-3.6,58.8,1.4,7,5.4-11.6Zm.4-78.8,7.4,4.2L21,28.24ZM23.4,104l-3,7.8,6.8-4.4Zm-2.8-66.6,3,14.4,5.2-9.6Zm0,92a14.16,14.16,0,0,0,2.2,1.8l-1.6-4.6C20.93,127.71,20.73,128.64,20.6,129.44ZM31.4,28.24h-.2V28l-9.4-1.8a1.53,1.53,0,0,1-.2.6l8,13.8q.41-3.2.9-6.3t.9-5.9Zm-7,104a29.09,29.09,0,0,0,3.4,2.2l7.6-8.2-13.6-2h-.2ZM22.2,123,35,125l-6.4-15.6Zm.2-44.8c1.87,1.07,3.73,2.1,5.6,3.1A57.81,57.81,0,0,0,33.8,84L32,74.24l-.2-.4Zm.2-53,8.2,1.6-2.2-6.4L23,24.64ZM31,63l-8.4,13.8,8.8-4.2Zm.4-3.4v.2l3.2-8.2q-2.81.81-5.5,1.5l-4.9,1.3,7,5.2Zm-7.2,43.6,1.4,1.2,3,2.4,3.4-3.6Zm5.6-59.8-5,9.6,9.2-2.6Zm-2.2-25v0Zm.8-1.2.6,1h.2l5-6.2a10.84,10.84,0,0,0-2.2,1.2A30.63,30.63,0,0,0,28.4,17.24Zm.4,118a2.7,2.7,0,0,1,1,.6l12.8-2.4q-3.6-3.39-6.4-6.2ZM30,107l2.8,1.2q3.6,1.41,5,1.8l-2.2-6.8h-2Zm0,1.8,6,14.4c.27-2,.6-4,1-5.9s.73-3.7,1-5.3l-4.6-1.9C31.93,109.54,30.8,109.11,30,108.84Zm.6-66.6v0h0ZM32.4,30l-.4,3.2c-.27,1.47-.5,2.87-.7,4.2s-.37,2.47-.5,3.4l7.4-1.4Zm4.2-19L31,17.84l4.8-.8q2.4-.39,4.2-.6c-.53-1.2-1.07-2.33-1.6-3.4a22.8,22.8,0,0,0-1.2-2.2ZM32,137q2.8,1.61,5.8,3.2l2.7-3.1c.87-1,1.43-1.63,1.7-1.9Zm.4-75.6.4,9,4.8-8q-1.6-.39-3-.6A20.14,20.14,0,0,1,32.4,61.44Zm.2-1.6,2.2.4,2.8.6-2.4-7.4Zm2-28.6q1.4,2.21,2.6,4.2c.8,1.34,1.47,2.47,2,3.4L44.6,27l-11.8,1.2Zm8.6,54,2.6-12.4v-.4L33,73.64Zm-8.2-.6,2.8,1.2,4-.4-8.4-9.6Zm3.8-21.4-5.2,9,11.2-.8c-1.07-1.6-2.13-3.1-3.2-4.5S39.6,64.31,38.8,63.24ZM41,18.44l-7.2,8.4L44.6,26c-.67-1.46-1.33-2.86-2-4.2S41.4,19.38,41,18.44Zm-5,32.8-.2.4,3,8.8,3.4-12.2L36,51ZM39.6,42l-.8,2.2c-.53,1.2-1,2.3-1.4,3.3s-.67,1.64-.8,1.9L41.8,47Zm-.6,61.2H36.8l2.2,7.2q1.2-2.4,2.3-4.6a29.67,29.67,0,0,0,1.3-2.8,6.66,6.66,0,0,1-1.7.2Zm.4,25.6q2.81,2.61,4.2,4c-.13-1.46-.3-2.86-.5-4.2s-.37-2.4-.5-3.2l-.4-1a22.37,22.37,0,0,1-2.8,1c-.93.27-1.73.54-2.4.8Zm-.2-14q-.6,2.8-1.1,5.5t-.9,4.5c.93-.26,1.8-.53,2.6-.8a14,14,0,0,0,2-.8c-.53-1.86-1.07-3.63-1.6-5.3S39.33,115.24,39.2,114.84ZM42.4,9l-4,1.2q.8,1.8,1.5,3.3c.47,1,.9,1.9,1.3,2.7,1.2-1.86,2.33-3.6,3.4-5.2s1.8-2.66,2.2-3.2h-.4Zm-1.8,132.6a24.51,24.51,0,0,0,3.4,1l-.4-6.6-4.4,5A4.33,4.33,0,0,0,40.6,141.64Zm-.8-80.4,4.4,1c1.47.27,2.9.57,4.3.9s2.43.57,3.1.7q-2.4-4-4.6-7.8t-4-6.6Zm3,25.2c-.8.14-1.73.27-2.8.4a18.85,18.85,0,0,0,3,1v-1.2h-.2ZM40,112l1,3.2c.4,1.47.8,2.8,1.2,4l.8,2.4,5.6-11.2c-1.6.4-3.13.74-4.6,1S41.2,111.91,40,112Zm5.6-83.8-5.4,11.2h.6l5-10.8ZM44,103l-.4,1c-.67,1.34-1.3,2.57-1.9,3.7s-1,2-1.3,2.7c1.6-.26,3.13-.56,4.6-.9s2.67-.56,3.6-.7l-4-5.8Zm-3.2-62.4,2.2,5.2,5.2-6.4Zm0,22.4,1.2,1.8L44.4,68c.8,1.07,1.47,2,2,2.8,1.07-1.06,2.07-2.1,3-3.1s1.67-1.76,2.2-2.3q-3.19-.6-6.2-1.3C43.4,63.68,41.87,63.31,40.8,63Zm1.6-45.2,1.4,2.6a29,29,0,0,0,1.2,2.8,14.86,14.86,0,0,1,.8,1.8l4.8-7.4c-1.6,0-3.13,0-4.6.1S43.33,17.84,42.4,17.84Zm.2-1.6c1.6,0,3.13,0,4.6-.1S49.93,16,51,16q-.8-2.59-1.5-5c-.47-1.6-.83-2.86-1.1-3.8Zm12.8,33.2h-.2l-6.1-.8q-3.1-.39-5.5-.8l9.4,16,2.4-14.2Zm-11.6,75.8,1.4,3.4c.67,1.34,1.27,2.67,1.8,4s1,2.47,1.4,3.4q5.4-5.19,9.8-9.8l-14.6-1.8Zm.2-2L58,125l-8-14Zm.4-35a54.19,54.19,0,0,0,6,1l.8-1.2c-1.33-.13-2.6-.3-3.8-.5s-2.27-.36-3.2-.5Zm0-41.4L54.6,48,50,39.64Zm0,38.6,2.2.2c1.07.27,2,.47,2.9.6a13,13,0,0,0,1.9.2l-4.8-11.6Zm.6,48.2,1.4,1a2,2,0,0,1-.6-.4c-.13-.13.13.07.8.6l-2.2-5ZM44.6,93l.2,5.2,3-4.6A18.84,18.84,0,0,1,44.6,93Zm.6,42.6.2,5.8,1.1-2.2.9-1.8a12.49,12.49,0,0,1-1.7-1.2C45.23,135.84,45.07,135.64,45.2,135.64Zm4.4-98v.2c-.67-1.86-1.33-3.66-2-5.4s-1.2-3.13-1.6-4.2l-.2.4q.8,2.61,1.7,4.9T49.2,38h.2Zm2.2,66.2a8.73,8.73,0,0,0-2.8-.7c-.93-.06-1.87-.1-2.8-.1l3.8,5.6h.2l3.6-3.8A7.21,7.21,0,0,0,51.8,103.84Zm1.6-4.6,1,.4a14.48,14.48,0,0,1-.6-2.5c-.13-.86-.27-1.76-.4-2.7a11.11,11.11,0,0,1-2.1-.2l-2.3-.4-2.6,4.4a31.65,31.65,0,0,1,3.4.2A17.91,17.91,0,0,1,53.4,99.24Zm-7,44q3,.4,7,.6l-4.8-5.2c-.53,1.07-1,2-1.4,2.9S46.53,143,46.4,143.24Zm.6-117,8,2.2-3.2-9.8Zm0,1.2q1,2.61,1.9,5.1T50.6,37l4.8-7v-.2Zm9.6,48.8c-1.73-.66-3.43-1.3-5.1-1.9s-3.1-1.16-4.3-1.7l5.4,13.8,4.2-10A.18.18,0,0,1,56.6,76.24Zm-8.8-4.6,8.2,3-3.2-8.2c-.93,1.07-1.87,2.07-2.8,3Zm1.6-65.8L49.6,7a92.12,92.12,0,0,1,9.6-1.8L60,4l-5.5.8c-1.8.27-3.43.54-4.9.8A.18.18,0,0,0,49.4,5.84ZM59.2,127l-3,3q-4,3.81-6.6,6.6h.6q5-5,9-9.2Zm-3.6,17h1.8l4.2-7.6L50,137.84Zm-4.2-33.8,7.8,13.6,2.6-14Zm.2-72.6,5,1.2q3,.6,5.8,1.2c1.87.4,3.2.67,4,.8l-10-10Zm7.6,5.6a9.05,9.05,0,0,1,3.4-1.6c-2.13-.4-4.17-.8-6.1-1.2s-3.5-.73-4.7-1L56.4,48l.4-.4A8.12,8.12,0,0,1,59.2,43.24Zm-7.4,46.2a1.69,1.69,0,0,0,.8.2l-.2-1.2Zm4,16.8-1-.8c-.67.8-1.3,1.5-1.9,2.1l-1.1,1.1,8.2-.4c-.67-.26-1.33-.56-2-.9ZM53,17.64,56.6,28q2.4-3,4.6-5.8c1.47-1.86,2.73-3.46,3.8-4.8-2.13,0-4.23,0-6.3.1S54.73,17.64,53,17.64Zm7.6-12.4-2.2,3.2q-1.4,2.21-2.7,4.3A29.78,29.78,0,0,1,53.4,16q3.41,0,6.6-.1c2.13-.06,4-.1,5.6-.1L62.9,10C62,8.18,61.27,6.58,60.6,5.24Zm-6.8,84.6c1.07.14,2.17.27,3.3.4l3.3.4,1.6-3.4-8.4,1Zm3.8-12-3.8,8.6,8.2-.8ZM56.4,51l-2.2,12.8c1.73-.4,3.43-.86,5.1-1.4s3.1-.93,4.3-1.2Zm-2.2,14.6L57.6,74l5.6-11.2q-2.4.81-4.8,1.5C56.8,64.81,55.4,65.24,54.2,65.64Zm1.8,35,2.4-5.4c-.67-.13-1.3-.23-1.9-.3a18.1,18.1,0,0,1-1.9-.3q.4,2.2,1,5.8Zm2.2,1.4c1.07.54,2.1,1.07,3.1,1.6a12.91,12.91,0,0,0,3.1,1.2L63.8,96q-2-.39-4.2-.6l-2.6,5.8A5.06,5.06,0,0,1,58.2,102Zm-1-71.8L68,40.84h.4c-.13-2.4-.27-4.8-.4-7.2s-.27-4.6-.4-6.6Zm10.2-4.6.2-.2-9.8,2.8-.4.6,9.8-3h.2C67.27,25.71,67.27,25.64,67.4,25.64ZM62.1,144H58.8l-1,1.6c1.47-.27,2.93-.46,4.4-.6a24.49,24.49,0,0,0,3.8-.6v-.2h-.2l-.4-.2ZM58,76.44l5.4,9,5-12.6q-2.59,1-5.3,1.8t-4.9,1.6v.2Zm5.2-22q-1.2-.39-2.4-.9a5.92,5.92,0,0,1-2-1.3l6,8.6h.4l6-4.6a37.89,37.89,0,0,1-4.2-.6A17.35,17.35,0,0,1,63.2,54.44Zm1.6,9.2-5.8,11q2.4-.8,4.8-1.5c1.6-.46,3.07-.9,4.4-1.3Zm-2.4,71.2-2.8-7.6-.4.2c.53,1.47,1,2.84,1.5,4.1s.9,2.5,1.3,3.7l.2-.2A.18.18,0,0,0,62.4,134.84Zm.8-23.6-2.6,14,10.2-.6Zm-2.6,15.2.8,2.4c.4,1.07.77,2.1,1.1,3.1s.63,1.84.9,2.5l7.8-8.6Zm20.2-74,.8-1.8v-.2a7.41,7.41,0,0,0-4.2-1.9c-1.33-.06-2.8-.9-4.4-2.5a16.41,16.41,0,0,0-8,0c-.4.14-.87.27-1.4.4a2.7,2.7,0,0,0-1.2.6c-.53.4-.8.74-.8,1,0,.54.4,1,1.2,1.3s1.4.57,1.8.7a38.15,38.15,0,0,0,7.6,1.6c2.53.27,5.07.47,7.6.6h.4ZM61.8,5l4.8,10.2,1.6-10.4a11.57,11.57,0,0,0-3,0A31.65,31.65,0,0,0,61.8,5Zm0,85.8a6.26,6.26,0,0,0,1.6.2l-.2-3.2Zm4.2.8c1.2.14,2.4.3,3.6.5s2.4.44,3.6.7l3.6-6.2q-3.4.21-6.6.3t-6,.1l.4,4.2C65.13,91.38,65.6,91.51,66,91.64ZM64.2,136l.6,2c.53,1.2,1,2.3,1.4,3.3s.67,1.7.8,2.1l5.6-8.6c-1.6.27-3.13.5-4.6.7S65.27,135.91,64.2,136Zm5.2-62.2-4.8,11.6q3.41-.19,6.6-.2c2.13,0,4-.06,5.6-.2Zm-4.8,36.8L72.2,124q1.8-2.4,3.4-4.6t2.8-3.8Zm.4-14.4.6,9,4.8-8-2.5-.4c-.87-.13-1.7-.26-2.5-.4H65ZM71.8,127l-6.6,7.2c1.47-.13,2.9-.3,4.3-.5s2.63-.36,3.7-.5c-.27-1.33-.53-2.56-.8-3.7ZM66,62.44l3.4,8.2L75.6,63Zm1.4,43.2a23.61,23.61,0,0,0,6.2.4,27.65,27.65,0,0,0,6-1l.8-.2.6-4.6a1.74,1.74,0,0,0-.4-.3,1,1,0,0,0-.4-.1,24.17,24.17,0,0,0-4.1-1.6,23.81,23.81,0,0,0-4.3-.8l-5,8.2ZM67,61l8.8.4c-.53-1.06-1.07-2-1.6-2.9s-1-1.56-1.4-2.1Zm.6-43.8,1,6.6,5.4-7.6c-1.2.14-2.37.3-3.5.5Zm1.6-11.6-.4,3q-.6,4.61-1,7c1.33-.26,2.6-.5,3.8-.7l3-.5Zm-1,138.8L84,145l-9.6-10Zm7-108.8,7.4-9.4-13.8.2v.2l6.2,9ZM69,28.84l.6,11.6c.8-.8,1.57-1.56,2.3-2.3a26.53,26.53,0,0,1,2.1-1.9Zm6.8-12.4-6.2,8.8q3.41,0,6.7-.1c2.2-.06,4-.1,5.5-.1-1.07-1.6-2.13-3.16-3.2-4.7S76.6,17.51,75.8,16.44ZM70.2,4.84l1.2,1.8q1.2,2,2.3,4t2.1,3.6L80.4,6Q74.81,5.24,70.2,4.84ZM70.4,72l7.8,4.4c-.27-2.4-.53-4.7-.8-6.9s-.53-4-.8-5.3Zm8,6v-.2l-8-4.4L78,84.64c.13-1.06.27-2.16.4-3.3s.27-2.1.4-2.9a.63.63,0,0,1-.4-.6Zm-5.8,68.2,1.6.2,4-.4-7.8-.2Zm5.2-102.7a15.29,15.29,0,0,0,2.2.9l-5-7.2h-.2l-4,3.6a21.69,21.69,0,0,1,4.2.8l.4.2.2.2A11.34,11.34,0,0,0,77.8,43.54Zm-1.2,69.7,2.8,1,.4-4.2a38.28,38.28,0,0,1-8,.8Zm-3,16.5c.27,1.14.53,2.1.8,2.9l4.4-9.4-5.6,2.2-.4.4v.2C73.07,127.38,73.33,128.61,73.6,129.74Zm.8-73.1,2.8,4.8L79,57c-.8-.13-1.57-.23-2.3-.3S75.2,56.64,74.4,56.64Zm0,36.4a24.35,24.35,0,0,1,6.2,1.8l-2.6-8Zm4.4,24.6-1,1.6q-1.2,1.61-3.4,4.4l4.4-1.8Zm-3.4,15.8,3,1q1.8.41,3.3.9c1,.34,1.63.57,1.9.7l-4-11.6ZM81.8,45a8.42,8.42,0,0,0,1,.6L85.2,37c-1.73,0-3.37,0-4.9.1s-2.83.1-3.9.1ZM83,27.64l-6.4,8c1.6,0,3.17,0,4.7-.1s2.83-.1,3.9-.1q-.6-2.4-1.2-4.5C83.6,29.54,83.27,28.44,83,27.64Zm-6,108,8,8c-.27-2.4-.53-4.33-.8-5.8q-2.6-.79-4.7-1.5A14.29,14.29,0,0,0,77,135.64Zm.2-120,2.4,3.2c.67,1.07,1.33,2.1,2,3.1a14.79,14.79,0,0,0,1.4,1.9q.6-2.79,1.2-5.4c.4-1.73.73-3.26,1-4.6-1.6.4-3.1.74-4.5,1S78.13,15.38,77.2,15.64Zm4.4-9.4-4.2,7.6c1.47-.26,2.87-.53,4.2-.8s2.47-.53,3.4-.8l-3-5.8A.59.59,0,0,0,81.6,6.24ZM78.2,63l.4,4.4c.27,1.74.5,3.37.7,4.9s.37,2.77.5,3.7l10.6-12.2q-3.41-.2-6.6-.4C81.67,63.31,79.8,63.18,78.2,63Zm.2-1.6,4.2.2q2.4.21,4.5.3c1.4.07,2.57.17,3.5.3l-2.4-4c-1.47-.13-2.87-.3-4.2-.5s-2.6-.36-3.8-.5ZM79.8,79l-.6,5.8,8.2-1.4Zm-.6,7.4L82,95l6.2-10.2ZM89.6,83v.2q2-2.59,3.9-5.2t3.3-4.8L80.2,78l9.2,5Zm-9.4,40,4.8,13.2,7.6-14.8c-2.27.27-4.43.5-6.5.7s-4,.44-5.7.7h-.2Zm.2-7.2v4.4l6-6.8-3.2,1.2A29,29,0,0,0,80.4,115.84Zm.6-6.2-.4,4.4,4-1.6c1.33-.53,2.47-1,3.4-1.4l-2-3.8a10.84,10.84,0,0,1-2.3,1.4A18.19,18.19,0,0,1,81,109.64Zm10.8-45.2-10.2,12,15-4.2c-.93-1.46-1.8-2.9-2.6-4.3S92.47,65.38,91.8,64.44ZM89,112.84l-7.4,8.6,10.4-1c-.53-1.46-1.1-2.86-1.7-4.2A25.92,25.92,0,0,1,89,112.84Zm-5.4-10.2c0-.66-.47-1.26-1.4-1.8l-.4,3.4C83,103.71,83.6,103.18,83.6,102.64Zm-1.6-50c.93.14,1.93.27,3,.4l-1-1.4c-.53-.13-1-.26-1.4-.4Zm6.4,50.2a2.86,2.86,0,0,0-.2-1.2l-5.4-3.4,4.2,8A6,6,0,0,0,88.4,102.84Zm-.6-3,2.4,1.4-1-14.8L83.4,96a9,9,0,0,1,2.5,1.6A12,12,0,0,1,87.8,99.84ZM83.6,6.64c.4.94.87,1.9,1.4,2.9s.93,1.84,1.2,2.5c.53-1.2,1.27-2.66,2.2-4.4C86.8,7.24,85.2,6.91,83.6,6.64Zm.4,20,.8,3.2q1,3.4,1.6,5.6l4.6-4.8v-.2c-1.33-.66-2.6-1.33-3.8-2S84.93,27.18,84,26.64Zm.4,20a17.66,17.66,0,0,0,5,.6l-3-8.4-2.2,7.8Zm0-21.2,2.2,1.2c.93.54,1.8,1,2.6,1.4s1.2.67,1.2.8c-.8-2.66-1.57-5.2-2.3-7.6s-1.3-4.13-1.7-5.2c-.4,1.6-.77,3.24-1.1,4.9S84.67,24.11,84.4,25.44Zm2.2,27.8a5,5,0,0,0,1.6.2l-1.8-1.6h-.8Zm7.4,90.4,1.2-.4-.4-.2-8.6,2h.2l.2.2,3.7-.8C91.57,144.18,92.8,143.91,94,143.64ZM93,123l-6.4,12.8,10-3.2c-.67-2-1.33-3.83-2-5.5S93.4,124.11,93,123Zm-6,14.4,8.8,4.8.8-8ZM87.4,12l4.2.2c2,0,3.93,0,5.8.1s3,.1,3.4.1q-1.39-.79-2.7-1.5t-2.7-1.5q-2.81-.79-5.8-1.6c-.4.94-.8,1.8-1.2,2.6A6.48,6.48,0,0,1,87.4,12Zm0,1.6,1.4,5q1,3,1.9,5.6a42.53,42.53,0,0,1,1.3,4.4L102.6,14c-2.67-.13-5.33-.23-8-.3S89.53,13.64,87.4,13.64ZM87.6,36,98,40.84l-6.4-9.2Zm10.2,11.2,1.6-4-11.8-5.4,3.6,9.4c.93,0,1.83,0,2.7-.1s1.77-.1,2.7-.1Zm-7.4,6.6h1a1.46,1.46,0,0,0,.6.2l-.8-2H88.4Zm1.6,8.4a17.63,17.63,0,0,0,1-1.9,4.44,4.44,0,0,1,.8-1.3q-1.8-.2-4.2-.6Zm-1.6,41.2.2-.4-.4-.2A.82.82,0,0,0,90.4,103.44Zm1.2.6-1.4,6,6.6-2.8a30.52,30.52,0,0,1-3-1.7C92.87,104.94,92.13,104.44,91.6,104Zm-1.4,7.8,1.4,3.2c.4.94.93,2.2,1.6,3.8l4-10Zm.4-26.4,1,15,7-9.8Zm.4-1.8,7.8,5.2-1.6-14Zm5,60.8-4.8,1.2a65.71,65.71,0,0,0,6.8-1.4H96.6ZM92,103l2,1.2c.8.4,1.57.84,2.3,1.3a19.54,19.54,0,0,0,1.9,1.1l7.6-8.4Zm8.4-61.2,6-14-13.8,2.8v.2l7.6,11Zm-6.6,12.4,1,.2h.4l.8-2.6c-.8,0-1.87.07-3.2.2Zm6.2,37.4-7,9.6c2.53-.8,5-1.6,7.3-2.4s4.37-1.46,6.1-2Zm-6.8-29,4.8,1.6L94.6,60c-.27.54-.57,1.07-.9,1.6A3.31,3.31,0,0,0,93.2,62.64Zm10.6-47.4-10.2,14,12.6-2.6Zm-10,49.2,1,1.8,1.8,2.9c.53.87.87,1.44,1,1.7l1.6-4.6Zm0,57.4,1.6,4c.4,1.2.8,2.37,1.2,3.5s.8,2.17,1.2,3.1a.18.18,0,0,1,.2-.2l7.6-5.6v-.2Zm.4-1.2L105,125l-6.4-15.4Zm10-109.2L95.2,8l8.4,4.4h.4l.4-.8ZM100.4,65l-.2.2.2.2,9-2.8a43.47,43.47,0,0,0-6.6-2q-3.6-.8-7.2-1.4l4.4,5.6Zm-2.2,70.6-.8,6.8a22.19,22.19,0,0,0,2.3-.5,7,7,0,0,1,1.5-.3Zm0-62.2.6,4.4c.27,2.14.5,4.2.7,6.2s.37,3.74.5,5.2l6.8-12-.2-.4-8.2-3.6Zm.6-1.2,6.6,2.8c-.93-1.46-1.87-2.86-2.8-4.2s-1.67-2.4-2.2-3.2Zm.4-25c.8,0,1.63,0,2.5.1s1.77.1,2.7.1c-.8-.66-1.53-1.3-2.2-1.9s-1.27-1.16-1.8-1.7Zm0,85.6,9.6,4.6-2.8-9.6Zm.4-25.2,9.2,6.2v-.4l-9-6.2,7.6-8.4v-.4l-8,8.6.4.2ZM109,115l-9.6-6.6.4.8,9.4,6.4v-.2A.57.57,0,0,1,109,115Zm-9.6,19.8c.67,1.2,1.3,2.34,1.9,3.4s1.1,2,1.5,2.8l5.2-2.2Zm1.8-91.6a.18.18,0,0,0-.2.2l4.6,4h.6l.6.6.2-.6h-.8q-1.4-1.2-2.7-2.4c-.87-.8-1.63-1.46-2.3-2Zm0,46.4,2.8.2c1.47.14,2.83.24,4.1.3a22.82,22.82,0,0,1,2.9.3c-.67-2.26-1.33-4.43-2-6.5s-1.2-3.76-1.6-5.1Zm.2-23.4,1.8,2.6a40.14,40.14,0,0,0,2.4,3.6,18.9,18.9,0,0,1,1.6,2.4l2-10.8c-1.47.4-2.9.8-4.3,1.2ZM106.8,30l-5,11.6,3.6-.8q1.8-.39,3-.6-.41-3.19-.9-6.1C107.17,32.21,106.93,30.84,106.8,30Zm-4.6,61.4,5.6,4.4,3-3.8c-1.87-.13-3.6-.26-5.2-.4S102.87,91.44,102.2,91.44Zm3.2-76.2,1.8,8.2c.27-1.06.5-2.1.7-3.1a22,22,0,0,1,.7-2.7l-2.2-1.8C105.73,15.31,105.4,15.11,105.4,15.24Zm1.6,32.2a.59.59,0,0,1,.4.2l1.4-6.2h-.4Zm.2,79.2a.57.57,0,0,1-.2.4l3,10.4,3.8-14.8q-3.8,2.2-6.6,3.8Zm2-13-1.4-15.2-.4.4,1.4,14.6Zm-1.2-86-.2.4c.27,2.14.57,4.2.9,6.2s.63,3.8.9,5.4l9-15.4L108,27.44Zm2,89.2-.6,2.4c-.4,1.34-.77,2.54-1.1,3.6a10.34,10.34,0,0,0-.5,2q3.2-2,5.4-3.2c-.67-1.06-1.3-2-1.9-2.9S110.27,117.24,110,116.84Zm0-98.4-.8,3.2c-.13.94-.3,1.84-.5,2.7a9.34,9.34,0,0,1-.5,1.7l9.2-2.6c-1.33-.93-2.67-1.83-4-2.7S110.93,19.11,110,18.44Zm6,29.4a34.28,34.28,0,0,0-3.7-.2h-3.7l1.4-5.8-.4-.2-1.4,6h.4l-.2,1h9.8l-1-.8ZM108.6,76l11.2,1-9.2-12.2Zm6.8,25.8v-.2L109,98l1.4,14.8,5.2-10.8Zm-6.2-5,2,1c.93.54,1.77,1,2.5,1.4s1,.6.9.6c-1.07-2.93-1.93-5.26-2.6-7ZM119.4,25,111,39.64l15.8-4Zm-.2,22.8c1.47-2.13,2.83-4.13,4.1-6s2.3-3.4,3.1-4.6l-15.2,4,4.3,3.5Q117.6,46.45,119.2,47.84Zm1.6,22.8V69l-.2-.2.2-.4c-1.2-.53-2.37-1.06-3.5-1.6s-2.23-1.06-3.3-1.6a15,15,0,0,0-2.8-1.8l.4.6a20.47,20.47,0,0,1,2.4,1.2,8.15,8.15,0,0,1,1.2,1l.2.2Q118.2,68.45,120.8,70.64Zm-4.6,33-5,10.6,8.8-.6q-1-2.79-2.1-5.6T116.2,103.64Zm-5,12.2,1,1.4a19.72,19.72,0,0,1,1.4,2c.4.67.67,1.14.8,1.4l4.8-5.2Zm3.4,8.2-3.2,13a56.47,56.47,0,0,0,7.4-5.6Zm-1.8-32.4v0ZM121,80l-7.2,10.2,9.4-.6c-.4-1.86-.8-3.7-1.2-5.5S121.27,81,121,80Zm.8,48.6a41.37,41.37,0,0,0,6.8-7.8l-13.4,1.4,4.6,8.4C120.47,130,121.13,129.31,121.8,128.64Zm-.4-13.2-5,5.4,12.2-1.2Zm-4.6-13.2,1.4,3.2c.53,1.47,1.07,2.9,1.6,4.3s1,2.5,1.4,3.3l6.6-10-11-1Zm.8-1.2,10.2.8L124,92Zm6-53.2h3c.13-2,.27-3.86.4-5.6s.2-2.86.2-3.4q-1.8,2.8-3.4,5.2c-1.07,1.6-1.93,2.87-2.6,3.8ZM122,71.64c.13,2.54.2,4.34.2,5.4l4.8-.6A57.8,57.8,0,0,0,122,71.64Zm0,7,2.4,10.6,4.6-10.8a3.53,3.53,0,0,1-1-1c-1.07.14-2.13.3-3.2.5a14.75,14.75,0,0,1-2.6.3v.2H122Zm6.8,25-6.6,10,.6-.2L129,104Zm-5.6,11,7,4a21.28,21.28,0,0,0,1.8-3l1.6-4.6Zm2.2-24.8,9.4,1-3.8-9.4q-.6-1-1.2-1.8Zm0,1.6,3.8,9.4,5.4-8.4c-1.73-.13-3.43-.3-5.1-.5Zm4.4-47a5.26,5.26,0,0,1-1.8,2.8l-.2.8,3-3.2L128.4,38v.8l.8,2.4c.13.4.3.94.5,1.6A2.75,2.75,0,0,1,129.8,44.44ZM129,104l5,5.6.2-.2-4.8-5.8Zm1.4-2.6,2.9-.8a20.72,20.72,0,0,0,2.5-.8.18.18,0,0,1,.2-.2v-.2h.2l-.4-6.4-.4.4q.4,2.81.6,6c-1.2.4-2.33.77-3.4,1.1A10.08,10.08,0,0,0,130.4,101.44Zm0,1.6,4.4,5.2.4-1.8a24.1,24.1,0,0,1,.2-3.1,19.51,19.51,0,0,0,.2-2.1c-1.07.4-2.07.77-3,1.1A22.08,22.08,0,0,1,130.4,103Z"/><path class="cls-1" d="M49.2,307.44a3.78,3.78,0,0,1-1.8-.8,4.44,4.44,0,0,1-1.4-1.2,14.67,14.67,0,0,0-1-2.3,7.16,7.16,0,0,1-.8-2.3,21,21,0,0,1-.2-2.9V292q-.2-5-.2-9.9v-17.7a5.82,5.82,0,0,1,.2-1.2v-1.8c-.53-1.06-1.1-2.16-1.7-3.3s-1.17-2.23-1.7-3.3v-.2q-1.8-3.19-3.6-6.6l-3.6-6.8a33.85,33.85,0,0,1-6.4-10q-2.59-6-4.8-12.7t-4.7-12.6a29.65,29.65,0,0,0-6.1-9.5c-.13,0-.27-.13-.4-.4a2.59,2.59,0,0,0-.4-.6l-3.3-7q-1.69-3.6-3.3-7.2-1.2-2.6-2.5-5.2a14.42,14.42,0,0,1-1.5-5.6,3.64,3.64,0,0,1,1.2-2.6,51.79,51.79,0,0,1,4.5-4.1c1.13-.86,3.17-1.3,6.1-1.3,3.73-.13,7.47-.23,11.2-.3s7.53-.1,11.4-.1h7a5,5,0,0,0,1.2-.2H44a3.87,3.87,0,0,1,1.2.2,13.45,13.45,0,0,1,5.8,1.7,12.69,12.69,0,0,1,3.8,4.5,6.41,6.41,0,0,1,.8,1.9c.13.6.27,1.24.4,1.9.4.94.77,1.9,1.1,2.9a23.37,23.37,0,0,0,1.3,3.1q2.2,4.8,4.7,9.5T68,197c.4.8.83,1.64,1.3,2.5s.9,1.7,1.3,2.5l.8-1.2a78.92,78.92,0,0,0,5.3-10q2.3-5.19,5.1-10.2,1.2-2.4,2.5-4.9c.87-1.66,1.7-3.3,2.5-4.9s1.87-3.3,2.8-4.7a12.25,12.25,0,0,1,9.8-5q3,.11,6.2.5a10.4,10.4,0,0,1,1.3.1,10.21,10.21,0,0,0,1.5.1q10.6,1,22,1.8h3.4a2.28,2.28,0,0,0,1.4,0H137a3.61,3.61,0,0,1,1.8.6,10.43,10.43,0,0,1,2.7,2.4,27.69,27.69,0,0,0,2.3,2.6,3.4,3.4,0,0,1,1,2.7,11,11,0,0,1-.8,2.7,46.66,46.66,0,0,1-2.8,5.5c-1.07,1.8-2.13,3.57-3.2,5.3l-.2.4-.2.2a35.6,35.6,0,0,0-6.4,9.6,111.46,111.46,0,0,0-4.7,12q-2.1,6.41-4.6,12.2a30.94,30.94,0,0,1-6.5,9.8,91.26,91.26,0,0,0-4.9,10.7,89.78,89.78,0,0,1-4.9,10.7c-.67,1.2-1.3,2.44-1.9,3.7s-1.17,2.5-1.7,3.7c-.27.54-.57,1.07-.9,1.6a5.7,5.7,0,0,0-.7,1.6,5,5,0,0,0,0,2v1.2c0,1.34-.07,2.67-.2,4-.27,3.74-.5,7.4-.7,11s-.3,7.27-.3,11v3.6a3.38,3.38,0,0,0,.2,1,34,34,0,0,1-.3,4.6,7.6,7.6,0,0,1-6.1,6.1,32.53,32.53,0,0,1-4.4.3,5.62,5.62,0,0,0-1.2-.2H83.8q-8,.19-16,.5t-16,.5ZM12.4,173.24,5,171.64a14.26,14.26,0,0,0,1.4,3.9c.67,1.27,1.27,2.5,1.8,3.7.4.8.8,1.67,1.2,2.6Zm-2.6-6a3.45,3.45,0,0,0-2.2.9c-.4.47-1.07,1.17-2,2.1l6.4,1.2Zm.4-1.6.8,1.6h.8Q15,167,18.6,167l1.2-1.4Zm9,22.4-5.8-13.2-3,9,.8,1.6Zm-3.8,5.2,4.4-3.8L12,187a27.07,27.07,0,0,0,1.4,2.8C13.93,190.78,14.6,191.91,15.4,193.24Zm6.8-22-7.6,2,5.6,13Zm-6.2,0,6-1.6L20.8,167h-.6Zm.6,24a29.36,29.36,0,0,1,4,6.4l1.2-6.2Zm.6-1.8,4.4.4-1.4-3.2Zm12-9.4-5.8-11.6,5.4,11.8-7.6,4.2Zm-6.4,9.8,5.2-7.4-6.8,3.4Zm-1,10.4a9.92,9.92,0,0,0,.6,1.4l5.4,3L23,197.44Zm0,2.6,4.2,8.8c-.53-1.33-1-2.7-1.5-4.1s-1-2.76-1.5-4.1ZM22,167l1.8,2.4,4.6-2.6H25.2A26.43,26.43,0,0,0,22,167Zm7.8,16.8.4-.4-6.4-12.6Zm-.2,24.8L37.8,195l-13.8.4Zm-5.2-14.8,13-.4-7.4-7.6Zm1.6-24.2,11.4.8-4.6-3.6h-2Zm.6,47.2,7.8-.2-4.8-4.8Zm8.8,1.4-8.4.2a1.79,1.79,0,0,0,.2.8l7.2,10.6Zm.8-1.6h.4l9.2-6.6-15.4.8Zm9.8-7.8-6.8-13-8.4,13.8ZM35.2,236l-1-3.4-2-3.2-1.4-1.6,3.6,7.2A6.24,6.24,0,0,0,35.2,236Zm5.6-48.2a.18.18,0,0,1-.2-.2l-9.6-2.2,8,8Zm-.2-1.4-1.2-12.8-8.2,10.6Zm-1-15.8-.2-3.8H34.8Zm2.4,64.8-5.6-15.2L41.6,235l-6-3.4a.85.85,0,0,1,.2.6Zm0,1.2-5.8-2.8,5.6,3.2-3.4,3.6a.61.61,0,0,1,.2.4ZM45,220l1.2-8.6-8.4,5.8Zm2.4,21.6-4.6-4-3.8,4.2.4.4L43,238ZM45,253l2.4-10.2-7.6.4q1.39,2.4,2.6,4.7t2.4,4.5a.38.38,0,0,0,.1.3A.4.4,0,0,1,45,253Zm-4.8-59.4,6,1.8-4.6-6.2Zm.6-22.8,4,.8-4.2-4.4Zm5.4,2.6-5.4-1L42,184Zm-5.4,22,5.8,11.4.8-9.4Zm1-28.6L47,172l.8-4.6a19.1,19.1,0,0,0-3.2-.8h-2A3,3,0,0,1,41.8,166.84ZM48.6,196l8.4-7.6-14.8-.6Zm7.8-8.8-9-12.8-4.8,12.2Zm-12.4,48,7.6-5-5.6-7Zm4.4,5.6,3.6-9.4-8,5.2ZM46,258l2.8,5.6v-2.1a6.46,6.46,0,0,0-.2-1.5v-.2l-.2-.2c-.4-.8-.8-1.66-1.2-2.6Zm.2-38.4,8.8-12.4-7,2.6q0,.21-.6.6Zm5.6,35.8L48.6,245l-2.4,10.2.4.8Zm3.6-46.8-8.2,11.8,9.6.2ZM52.6,229l3.8-6.8-9.2-.2Zm2-23-5.8-7.2-.8,9.6Zm-6.4-33.8,3,.2a3.38,3.38,0,0,1-.2-1l-2.2-2.8Zm2.4,98-2-3.8v2.4Zm-2,8.8,3.2-5.8-3.2-2.4V279Zm0,3.4v.4l5-2.2a.61.61,0,0,1,.2-.4Zm.2,11.2L53.4,282l-4.8,2.2q.19,3.4.2,7.6Zm0-119.8,6.6,9.2c-.53-1.06-1-2.06-1.4-3a48,48,0,0,1-2.2-5.8Zm3,128.6h1l4.6-9.4L49,297Zm1-69.6-3.4,8.8,7.6,4.8Zm-3.2-35.4,6.2,7.6,4.4-9.6Zm0,97.6,8.6-4.2-3.8-8Zm7.6-46.6-7.4-4.6,3.2,10.6Zm-6.4-52.8,9.6-1.8-2.6-4.6Zm2.8,76.6v-13.4l7.4,10-7.8-10.6Zm12-36-12.2-5,5.2,16Zm-10.8,42.6,5-7.8-6,2.4Zm9.6-44.2L57.8,223,54,230Zm1,24.6-7-9.6-4.4,6.2Zm1.2,1.6L54.4,257l7.6,11.2Zm2.4,41-9.6-9.2-4.8,9.8q3.6-.19,7.2-.3T69,301.84Zm-9.2-11.4,9-5.6-13.4-3Zm2-94.4-4.6,9.6,10,.6V206a26.1,26.1,0,0,1-1.8-3.4c-.53-1.2-1.07-2.33-1.6-3.4a1.55,1.55,0,0,1-.3-.4.82.82,0,0,1-.1-.4Zm-2.6,26.2,7.2,12.6,8-11.6Zm11.4-11.8h-.4a1.92,1.92,0,0,1-1.4-.6l-9.4,10.8,15.2,1Zm5,33.8-15.8,4.4,7.6,10.6Zm-9-7-6.4,9.6,15-4ZM61,291.84l9.6,9.6L72,291Zm1.4-1.6,9.4-.8-1.8-3.8Zm.6-20.6,6.8,12,.6-14.4Zm4.4-7.6-3.6,5.6,6.2-2ZM78,234.44l-10.6,2,9.6,5.8Zm-10.4-27a3.46,3.46,0,0,0,.4,1.4l1.2-1.4Zm10,25.8-2.2-8.8L68.2,235Zm1.6,22-11,5.8,3,4.4Zm.4-1.6L77,245l-7.6,13.8Zm-8.8-45.8.8,2.4a2.58,2.58,0,0,0,1.2-1.6Zm2.2,81.4,4.4-8.4-6.2,3.6v.2a.18.18,0,0,1-.2.2Zm4.4-9.8L71.8,269l-.6,14Zm-2.4,25-3.2-.8.2.8Zm1.8-2.8-3.4-8.4-1.2,8.6C73.8,301.84,75.33,301.78,76.8,301.64Zm3.4-45.8-7.8,9.8,12,5ZM73,267.64l5.6,10.8,5.6-6.2Zm.2-60.2,3.4,1.2.8-8.6a33.13,33.13,0,0,1-2,3.2c-.27.54-.57,1.07-.9,1.6s-.63,1.07-.9,1.6A8,8,0,0,0,73.2,207.44Zm5,74.6-4.2,7.8,7,3.8Zm-3.6,10,3.8,9.6h.8l2-6Zm2.2-70.8,6.4-2.2-5.4-7.2Zm0,1.8,2,8.2,4.4-10.4Zm7.6-4.6,7.6-11.6-14,3.4Zm-6.2-10.8,8.4-9.2-7.4-.6Zm1,28.2-1,6.4,5.6-.6Zm5,7.4-6,.6,2.6,7.8Zm9,35.2-14.2,2,3.4,13.8Zm-7.8-37,4.4-9.6-10.4,2.4Zm6.8-36-4-6.2-8.6,9.2Zm-12.4-9.2,6.6.6-4.4-5Zm9.4,34.4-4.6-9.2L80,232.64Zm-8.8,48.2,11.4-1.4-6-4.4Zm4.2,22.6-2.2-4.2-1.4,4.4a15.17,15.17,0,0,0,2.6-.2Zm4.8-41.2v-.4l-8.2-5,4.4,16ZM89,258l-3.8-13.4-3.6,9Zm-.8-61,3.6-12.2-9.2,5.8Zm5.2,83.2-9.8,14.4,11,1.6v-.4a8.66,8.66,0,0,1-.2-1.4V289Zm1,17.6-10.8-1.6,2.8,5.2h1a5.62,5.62,0,0,1,1.2.2h1.6Zm-3-114.2L89.8,176l-6,12.2Zm1.4,24.2L85.4,219l.2.2,7.2-10.8,1.2,13.2Zm.4,15-7-2.2,4.2,8.8Zm-2.8,10.4-3.8,8.4,8.6,2Zm0,24.2,5-12-8.8-2.2ZM86.8,271l6.6-1-3.2-8Zm.8,1.4,5.8,4.2.4-5Zm2-76,6-2.6-3-7.4Zm0,1.8,3.6,5.8,2.2-8.4Zm8.6,57-7.4,5.2,3.6,8.6,1.2-3.4v-3.7a6.46,6.46,0,0,1,.2-1.5,5.26,5.26,0,0,1,.8-2.1,10.44,10.44,0,0,0,1-1.9A4.81,4.81,0,0,0,98.2,255.24Zm-4-87.2-1.8,2.6a3.53,3.53,0,0,0-.7,1.1A7.68,7.68,0,0,1,91,173l3.4-5.2Zm10.6,62.2L91,231.64,96.6,244ZM91.2,175l1.4,5.8,1.4-4.6Zm12.2,54.2-8.6-5.8-3.2,6.8ZM99.2,253a.18.18,0,0,0,.2-.2l-2.8-6-4.6,11Zm-2.6-59.6,6.6-9.2-10.2.4ZM102,183l-6.6-5.8-2,6Zm1,25.4-8.8-1.8.8,13.8Zm-.6-1.4-5.6-10.6-2.4,9Zm-7.8,71.8.2,2A8.63,8.63,0,0,0,94.6,278.84Zm1.8-11-1,3v1l1,4.8ZM96,166.64l-.2,6.4,3.6-7.2h-.2Zm-.2,54.8,13,1-5.2-12.6Zm.6-46.4,12.2-.8-8.2-7.6Zm12.6.8-12,.6,6.8,6.2Zm-.4,48.2-11.4-.8,8.2,5.4Zm-4.8,20-6,1.4,2.4,5.6a5.55,5.55,0,0,0,.6-1.1c.13-.33.27-.7.4-1.1h.2v-.2A47.22,47.22,0,0,0,103.8,244ZM98,193.84l6.4,1.8-1-9.6Zm.2,1.6,5.2,10.2,1.2-8.2Zm6.6,37.2-6.6,11,6.4-1.6.4-.8Zm5.8-58.6,3.2-6.8q-3-.39-5.8-.6a8.28,8.28,0,0,1-1.4-.1,13.34,13.34,0,0,1-1.4-.3,17.39,17.39,0,0,1-1.8-.1,10.88,10.88,0,0,1-1.8-.3Zm-5,21.6,6.2-8.8v-.2l-7.4-2Zm10.2,12-11.2,1h-.2l5.6,13.6Zm-1-1-8.8-8.2-1.2,9Zm-3.2-21.4-1.4-8.4-4.8,6.6ZM108,234l-2-2.8.2,7.4c.27-.8.57-1.56.9-2.3S107.73,234.84,108,234Zm.6-1.2a.61.61,0,0,1,.2-.4l.2-6.4-2.4,3.8ZM107,196l10-.8-4.4-7.4Zm10.4.8-10,.6,8.6,8.2Zm-1,23.2-5.6,3.6-.2,5a9.11,9.11,0,0,1,.8-1.6l.2-.2v-.2a28.61,28.61,0,0,0,3.8-4.8Zm-4.8-44.6,1.6,9.2,9.6-10.8Zm4.6,34.6-4.4,11.2,5.8-4Zm-4.2-36.2,10.8-1.8-6-4.6a6.26,6.26,0,0,1-1.6-.2Zm1.4,13,5,8.4h.2l7.4-7.4Zm12.4-.2-1.6-12.2-10,11.4Zm-4,20.8-4.6.6,1.4,8c.53-1.33,1.1-2.73,1.7-4.2A37.45,37.45,0,0,0,121.8,207.44Zm.6-1.2V206l-3.6-7.4-1.2,7.8Zm2.2-34.2a.18.18,0,0,1,.2-.2l2.8-3.6q-4.39-.39-8.6-.6Zm1,25-5.8-.2,3.4,7c.4-1.06.8-2.2,1.2-3.4S125.2,198.11,125.6,197Zm.8-8-6.2,6.2,6,.2c.4-.93.8-1.8,1.2-2.6Zm-.6-15.6,1.6,11.8,7.4-11.4Zm.6-1.6,8.2.4-2.8-3.8H130a2.15,2.15,0,0,1-1-.2Zm4.4,15.2-3.4.8v.2l.8,3.2A25.35,25.35,0,0,1,130.8,187Zm1-1.6a21.14,21.14,0,0,1,2.2-2.6l.2-.2.8-6.2-6.4,9.8Zm1.4-17L136,172l.6-3.4a.18.18,0,0,0-.2-.2,3.9,3.9,0,0,0-1.8,0h-1.4Zm6.6,3.6-2.8,1.4-.8,5.6a21.28,21.28,0,0,0,1.8-3c.53-1.06,1.07-2.2,1.6-3.4A1.53,1.53,0,0,0,139.8,172Zm-2.4-.6,1.4-.8-1-1Z"/><path class="cls-1" d="M11.2,466c-.13-.13-.4-.47-.8-1a4.14,4.14,0,0,1-.8-1,9.94,9.94,0,0,0-.7-2.1,9.14,9.14,0,0,1-.7-2.3v-3.2a8.66,8.66,0,0,0,.2-1.4q.19-4.4.2-8.2v-15.6q.2-18.19.4-36.5t.2-36.5q0-6-.2-12t-.2-12v-.8a40.35,40.35,0,0,1,.3-5,7.52,7.52,0,0,1,2.3-4.4,7.18,7.18,0,0,1,4.2-2.4,31.16,31.16,0,0,1,5-.4,1.12,1.12,0,0,0,.8-.2h1.4q4.61,0,9.3-.1t9.5.1c1.2,0,2.5,0,3.9.1a24.11,24.11,0,0,1,3.9.5,28.3,28.3,0,0,1,2.9.6,9.18,9.18,0,0,1,2.7,1.2,10.53,10.53,0,0,1,2.3,2.2c.6.8,1.17,1.6,1.7,2.4a33.54,33.54,0,0,1,2.1,3.6c.6,1.2,1.23,2.34,1.9,3.4a38.6,38.6,0,0,1,7.1,10.4q2.7,5.81,5.3,11.5a34.25,34.25,0,0,0,7,10.1l.2.2.2.2c.8,1.2,1.6,2.44,2.4,3.7s1.6,2.57,2.4,3.9v-5.4a32.44,32.44,0,0,1-.2-3.5v-3.5q-.2-3.19-.3-6.3c-.07-2.06,0-4.16.1-6.3s0-4,.1-5.9.17-3.9.3-5.9v-5a34.08,34.08,0,0,1,.3-4.6,7.45,7.45,0,0,1,2.3-4.2A7,7,0,0,1,95,322a43.16,43.16,0,0,1,5.8,0h11.4c2.93,0,5.87-.06,8.8-.2h6a5.53,5.53,0,0,0,1.4-.2c1.87,0,3.77.07,5.7.2a7.88,7.88,0,0,1,5.1,2.4,6.93,6.93,0,0,1,2.2,4.3c.13,1.54.2,3.1.2,4.7v1c-.13,3.34-.23,6.7-.3,10.1s-.17,6.77-.3,10.1q-.19,5.61-.3,11.2c-.07,3.74,0,7.54.1,11.4q0,3.81.3,7.5t.3,7.5q0,3.4-.1,6.6T141,405c-.13,1.6-.23,3.24-.3,4.9s-.1,3.37-.1,5.1v4.6c0,1.6.07,3.2.2,4.8V435q0,4-.2,8t-.2,8v8.6a11.33,11.33,0,0,1-2.5,5.4,10.11,10.11,0,0,1-5.3,2.6,13.73,13.73,0,0,1-2.8.5c-.93.07-1.87.1-2.8.1h-2.8l-9.7.4q-4.91.19-9.9.2h-1.2c-1.47,0-3-.07-4.5-.2a13.56,13.56,0,0,1-4.5-1.2,11.39,11.39,0,0,1-3.7-3.2q-1.5-2-2.9-4-3.19-4.39-6.4-9.1t-6.2-9.3a53.07,53.07,0,0,1-5.5-8.9q-2.3-4.69-4.9-9.1l-2.2,2.4v5q0,5.2.1,10.5c.07,3.54,0,7.1-.3,10.7v4.8c-.13,1.74-.3,3.37-.5,4.9a7.42,7.42,0,0,1-2.3,4.3,9,9,0,0,1-5.2,2.2,40.25,40.25,0,0,1-5.6,0,8.79,8.79,0,0,1-1.3-.1,10.21,10.21,0,0,0-1.5-.1q-7-.39-14.3-.5a107.91,107.91,0,0,0-14.1.7,6.41,6.41,0,0,1-1-.2l-.8-.2Zm1-26.6,1.2-.2v.4l4.6-1-4.6-4.2v.6l-1.2-1.2Zm1,16.4.6,5.8a4.83,4.83,0,0,0,.8.6l3.2-1.2-4.6-6Zm.2-31.2,1-3.4a10.53,10.53,0,0,0-.8-1.8v2.7A15.53,15.53,0,0,1,13.4,424.64Zm7.8,3-5.8-5.4-2,7.2v1.4Zm-2,10.4-5.8-5.2v.6Zm-5.8,1.2V435l4,3.6Zm0,9.2,4.8-8.2-4.8.6v7.6Zm12.4,2-6.6-9.6L13.4,451Zm-6.8,9.8,6.4-8.2-12,.6Zm-5.4-130.6V334l6-8-4.2.8a2.47,2.47,0,0,0-.6.4A6.94,6.94,0,0,0,13.6,329.64Zm2.4,14.6-2.4-4.8c.13,1.6.2,3.4.2,5.4Zm-.6,74.2,5-9.4-6.8-2.4V410Zm-.4-63.8,1.6-9.2-2.8.8c0,.8,0,1.67.1,2.6s.1,1.87.1,2.8Zm.8,35.2-1.8-5.2c-.13,1.47-.2,3-.2,4.6Zm-2,8.8,2.4-7.4-2.4-.8Zm0,3.4v2.8l6.6,2.6-3.6-13.8Zm5.4-36.8-4-7-1.2,3.4V365Zm-5.2,9.6,5.8-8.4-5.8-.2Zm0,2.2v.4l9.2,2-3-11.6Zm3.2,12.2L23,381l-9-2v.8Zm0-46.2,5-8.6-8,2.2ZM17,464.64a2,2,0,0,1,.4-.8H17c.27,0,.4-.06.4-.2L16,463l-1.6.6Zm6.2-132v-.2l-2.4-6-6.2,8.8,6.2-8.2ZM27,418l-11.2,2.8,6.6,6.2h.2Zm-11-62.4,8,3L17.6,347ZM26.4,417l-4.8-6.8-5,9.2Zm-9.6-59.4,4,7,3.6-4.2ZM21.6,407l4-16.4-8,1Zm4-48,4.2-15.6L18,345.24Zm3.4-16.6-5.2-7.8-5.2,9.2Zm-3.8,47-1.2-7L18.6,390Zm-5.8,73.2-.6,1a7.08,7.08,0,0,0,1.8-.2Zm7.6-12.4,1.4-11.4-8.4.8Zm-1.6,13h1.8l-.6-9.8L20.2,461Zm2.2-25.4-4.8-8-2.4,8.6ZM27.4,371l-6-5.2v.4Zm-2.8,8.2,3-6.2-6.2-5.2Zm-2.4-53.4,1.8,5.4,3.8-5.4H22.2Zm4.4,66.4-4,15.6,13-1.2Zm8.4,16-12,1,4.8,7Zm-7,10.6L24,427l11.8-.2Zm-4,9.8,5,8.4,7-8.6Zm.8-95.8,11,2.2-7-8.8Zm.4-.4,3.8-5.8,6.2,8.4Zm6.2,49.2-6-.4,1.2,7Zm-5.8-2,5.8.4-3.2-5.6Zm1-19.2,1.8,9.4,6.2-14Zm.4-2,8.2-4.8-4.6-8.4Zm10.2,33.8a.18.18,0,0,0-.2-.2l-10-1.4L36.6,406Zm-.8-1.6-3.8-8.2-5,7.2ZM34,452.84l-6-.6.6,10.2Zm-5.8-2.2,5.6.6-4.4-10Zm12.6-33.8-12.2,1,8.8,9ZM29,373l4.2,6.8,7.2-6.2Zm11.4-.6-4.4-16-6.6,15.4Zm-.2,43.2-3.4-7-7,7.8Zm-5,35.8h.2l9-9.4-14.6-3Zm7.2,9.6-7-7.4-5.4,9.6h3Zm-12-135.4,6.8,9.2,3-9c-1.6-.13-3.23-.2-4.9-.2Zm13.2,115L37.4,429l-7,8.8Zm-5.4-94.2-1.6-8.6-4.8,5Zm6.6,32.2L34,381.44l3.8,8.4Zm-3.4-4.4-5.6,5,8.8-2.2Zm-4.6,77.6,7,1.6.4-9.6Zm10.4-96-10-.8,4.4,15.6Zm-9.8-2.4,8.4.8L39.4,349ZM43.8,455l-6.2-1.4,5.8,6Zm-6-48.8,11.4-2.8-10.6-10Zm4.4,56-4.4,1a20.23,20.23,0,0,0,3,.2ZM38,336.64l1.6,9,7.8-13.2Zm.6-1.8,9.2-4.4-6.4-4Zm0,92,5.2.6L41.4,419Zm10.2-32L46,379.64l-7,11.6ZM39,428.64l5.4,10-.2-9.6Zm10.2-32v-.2c0,.14-.07.07-.2-.2l-9.4-3.6,10.6,10.2Zm0-64.2-8.2,14,12.8-3.6ZM42,417l3,10,4.4-11.8Zm4.2-40.2,5-8.8-9,5.4Zm2.8-47-.4-3.6h-.2c-.8-.13-1.67-.23-2.6-.3s-1.8-.1-2.6-.1h-.6Zm-5,132.6-1.4,1a24.55,24.55,0,0,0,3.2.2Zm7.2-95.8-2.8-9L43,371.44Zm-2,47.4.6-7.6-6.4,8.8Zm-4.6,46.8v.2h.2v.4l3.6,2.4h.2l-.2-.4Zm8.8-21.4L46,442c0,.14-.13.34-.4.6l-.6,10.2Zm-.4-1.2-7.2-7.8.2,10.2Zm4,15L45.8,455l4.2,8.6Zm-10.8-25.8,11.2.6-7.2-11.6Zm8,13-8,13,11.6-2ZM46.8,429l7.4,8.2,3.4-7.6Zm9-48.6-8.4-2,2.8,15ZM52,368.84l-4.4,8,8.2,1.8ZM61.6,356H49.4l3.2,9.4ZM49.8,327l.4,3,5.2,1.4Zm5.2,17.8-5.2,9.6h12Zm6.4,45.8-10.8,5.8,9.2,11.4Zm-10.6-58.8,4.2,9.4,2.4-6.4a9.11,9.11,0,0,0-.8-1.6Zm.8,71.4,5.4,3-6-7.6Zm5.8,6.2a2.32,2.32,0,0,1,.8-.8L51.6,405l-.6,8.2Zm.4,8.6-6.8-2.6,6.8,11V418Zm-.2,36.4L51,464a10.75,10.75,0,0,0,3,0,3.27,3.27,0,0,0,2.2-1.2,4.16,4.16,0,0,0,1.2-2.5,22.45,22.45,0,0,0,.2-2.9v-3Zm3.4-65-4-7.8-5.6,12.6Zm-3.2,27.2v-3a3.44,3.44,0,0,0-.2-1v-.2l-.2-.4v-.6l-5.6,3Zm3.2-43.2V373l-8-5,4.2,11Zm.2-1.8,1.2-14.2-9,9.4ZM57.8,433l-2.4,5.2,2.6,1a25.57,25.57,0,0,1-.2-3.1Zm5.4-90.2a.18.18,0,0,1-.2-.2l-7.2,1v.2L63,354Zm-4.8-6.2-2.2,5.8,6-1a35.19,35.19,0,0,0-2.8-3.2l-.2-.2v-.2A4.43,4.43,0,0,1,58.4,336.64Zm-.4,104q0,4-.2,7.2l.6,1.8Zm3.8-66.2-3.6,5,9.8,4Zm6.6,11-9.8-4,3.8,7.2ZM61,408.84a.57.57,0,0,1-.2.4l1.2,2c.27-.53.47-.2.6,1l3.8,7.4.2-2c-.53-.8-1.07-1.53-1.6-2.2-.67-1.06-1.4-2.2-2.2-3.4-.13-.26-.33-.73-.6-1.4A4.18,4.18,0,0,0,61,408.84Zm6.8-4.8-5.2-11.2-1.4,14.6Zm-5.2-30.6,7.8,11,10.2-10.8Zm0,46.8v4.2l1.6-1.8Zm1.6-64.4L63,368.24l6-13.4Zm5.8.4-7,16,16.8-.6c-.4-.53-.73-1-1-1.4a36.69,36.69,0,0,1-4.9-6.6C72.5,361.24,71.2,358.78,70,356.24Zm-1,47.4,8.2-9.4L63,390.84Zm-4.6-58.8-.2,9.4,4.4-1c-.4-.93-.83-1.9-1.3-2.9s-1-2-1.5-2.9Zm10.6,71-5.8-9-1.6,12.4.2.2Zm-.6,10.6,1.2-9.6-7.2,3.6c.4.67.87,1.47,1.4,2.4Zm1.8-11.8,5.6-11.8L70.2,405Zm-5.4-11.4,11.2-2L78,395Zm5.8,32.2L74.4,428a.18.18,0,0,1-.2-.2l-3-2.4q1.2,2.61,2.5,5.1A52.05,52.05,0,0,0,76.6,435.44ZM72,385.84l6,6.6,5.2-7.4Zm9.2-11-9,9.4,11.6-1Zm-5.6,51.8,8.8,1.6-7.6-10Zm2.6,10.2,6.4-6.8-8.8-1.8Zm8-8.2,5.6-13.8L77,416.64Zm5-14.8-7.8-10.4-5.8,11.8ZM79,394l4.2,7h.4l7.4-6Zm11.4,48.6L86,430.84,79.2,438Zm-5.8,4.6,6.2-3.2-11.4-4.6q1.2,2,2.5,3.9T84.6,447.24Zm.2-61.8L79.6,393l10.8.6Zm-1.8-8.6,2.2,6.8c.13-.13.2-.13.2,0l1.8-.2a2.59,2.59,0,0,0-.4-.6c-.53-.93-1.13-1.9-1.8-2.9S83.67,377.91,83,376.84ZM93.4,404l-8.4-1.2,7.2,9.6Zm-8.2-2.8,8.2,1.2L91.6,396Zm.6,46.8,7,4.4-1.6-7.2Zm.4-63.4,5.4,8,2.2-8.6-1.2.2a2.25,2.25,0,0,1-1.8,2.6c-1.07.27-1.8.14-2.2-.4a7.81,7.81,0,0,1-1-1.8Zm6,73.6.8-3.6-6-4,1.2,2q1.8,2.61,3.6,4.8Zm2-30-7,1.8,4.4,11.2Zm-6.6,0,6.6-1.6L92.4,417Zm4.4-81,.4,8,11.2-8.6-11.4-4.2Zm.4-15.6v6.8a.82.82,0,0,1-.2.6l5-6.4ZM98.6,370l-6.2-11.4-.2,3v4ZM95,382l4.8-9.8-7.6-5a15,15,0,0,1,.2,2.4v1Zm-2.6,1,1.6-.2L92.4,376c-.13,1.74-.2,3.54-.2,5.4A12.84,12.84,0,0,0,92.4,383Zm0-53,3.4.6-2.8-2.2A4.39,4.39,0,0,0,92.4,330Zm1.8,123,9.2-8-11-.6v.2ZM103,345l-4.6-11.4-5.8,7.6Zm-8.6,57,3.2-10-4.8,2.8a.61.61,0,0,0-.2.4Zm9.2,41.8-8-14.4-2.8,13.8Zm-6.4-53-2.2-5L93.2,393Zm3.4-20.6,3.6-14-10.8.6Zm-3.8,44L94.6,407l-1,6.8ZM98.4,463l-4-6.6-.8,3.6a.57.57,0,0,0,.2.4ZM98,331l.8-4.4c-.93,0-1.83,0-2.7.1a3.22,3.22,0,0,0-2.1.9Zm-3.6,24,10-.4-.6-6.6Zm6.4,108.6,6-12.6-11.6,3.6Zm-5.4-60.8,14,1.6-10.8-11.6Zm3,11,10.8-7.8-13.6-1.6Zm-2.4-30,2.4,5.8,4.8-7.6Zm.2,42.8,7.2,2.6-5.2-11.6Zm.2-44.6,7.4-1.8-3-6Zm.2,71,8.2-7.2,2.8,3.4-3-3.8Zm7.6-11.4v-10.4l-7.2-2.6Zm1-11.8,8.4-11.6-15-2.4Zm-4.4-103.2H100l-1,5a.59.59,0,0,1,.4.2l1-5,9.6,9Zm10.4,78,4.2-14.2L99,391.64Zm3-15.2-9-7.4-5.4,8.2Zm-9.6-44.6,5.8-7.6-10.4-3.8Zm8.8,72.2-2.4-10.2-11,8Zm-3.4-91.4h-8.6l1.2,1.2H102l9,8.4-8.4-8.4h.8c1.2,0,2.37,0,3.5-.1A5.74,5.74,0,0,0,110,325.64Zm-5,54.2,5-11.8-8.4,4.6v.2h-.2Zm4.8-13-4.4-9-3.4,13Zm4.2,96.4-5.6-11.8L102.2,464h4.4Zm-8.4-108.8,6.8-9.4-7.4,1.8v.2h-.2Zm7.4,87.4-7.2-9v10.8Zm-7,3,2.6,3.8,4.8-5.8Zm6.4-101-1.2-5.2-4.8,6.6Zm5.2,11.2-11.2,1,4.6,9.6Zm-11.2,24.6,8.8-2.2-4.4-8.4Zm.2,51.6,7.4,9.4,3-10.6Zm.2-50,8.6,7.2.2-9.4Zm0,48.4,10.4-1.2-3-8.8Zm.2-75.2,10.8-1-4.4-7.6Zm2.8,94.8,7.8,1.6-3.4-7.2Zm8.2,3.4-8.2-1.8,5.2,11Zm-1.6-75.4h.2l4.8-5.4-9.8-3.8Zm-4-41.4,3.6-1-4.2-6.6Zm8.8,34.6-2.4-14.2-6.8,10.6Zm-9-43.6,5.2,7.6,6.2-7.8h-2.4c-1.6.14-3.13.2-4.6.2Zm4.2,76.8-4,2.2,2,8.4Zm-3.8-66.2,1,4.4,2.2-5.4Zm.2,66.4,3.8-2-.8-7.8Zm9.6-56.8-5.2-9.8-2.8,6.8Zm-3,6.2,3.8-4.6-8.8-3.4Zm-1.2,74.6,9.2-10.6-12.2,1.2a.18.18,0,0,0-.2.2Zm-3,14.8H115l3.8,8.2,6.2-9ZM127.4,416l-9.6-12-2.4,13.2Zm-9,15-3,10.4,9.4-.8Zm4.6,32.4-3.8-9-3,9,2.6.2C120.13,463.64,121.53,463.58,123,463.44ZM117,390l4.6,2.6-5-3.2h.2v.2A.61.61,0,0,1,117,390Zm-.2,1.4,5,3.4v-.4Zm1-13.6,11,5.4L122,373Zm0,1.8,5,13.2,6.8-7.4Zm.6-43.8,5.6,10.8,7.6-14.4Zm4.4,59.8-4,6,12,1.4Zm9.4,9.2-13-1.6,9.6,11.8Zm-12.8-71,12-3.2-5.6-4H125Zm8.8,84.4-8.8,10.6,8.8-10,.4,11.6Zm-2.4,21.2,2.2-8-8.2-1.4Zm6.8-85-12.4.4,2.4,14.6Zm-6.6,88.2-5.8,9,6-8.6,5,8.6Zm4.4,10.2H120.2l4.4,10.6Zm-9.4-99.6,10-.4-6.8-3.4ZM131,384l4.8-13.8V367L123,372Zm4.8-18.4a23.32,23.32,0,0,0,.2-3.2l-2-7L124.2,370Zm-4.8,20.8-6.4,7,10.8-1.6Zm5.4-40.4-11.2,2.6,8.8,4.2Zm-3.4-12.8-7.4,14,10.6-2.4Zm1.6,128.4-3-7.6-5.2,9.4h2.7a7.75,7.75,0,0,0,2.5-.4A6.85,6.85,0,0,0,134.6,461.64Zm1.2-18.8v-.2l-6.4-9.8-2.2,8Zm-.2,3.4a11.45,11.45,0,0,0,.2-2.2l-8.4-1.8,4.8,8.8Zm-2.6-116h.2l2.2-3a.55.55,0,0,1-.4-.2l-5-.6h-2.4Zm1,84.4-4.2,2.2V427Zm.4,2.2-4.2,12.8,5.8-1.4v-4.6Zm-4.2,14.4,5.6,8.6a15.53,15.53,0,0,0,.2-2.5v-7.5Zm3.6-17.8-1-5.8-2.4,7.4Zm-.8-31.8,3-3.2V377a26.56,26.56,0,0,0-.2-3.2Zm2.6,71.2H133l2.4,6.6a1.79,1.79,0,0,0,.2-.8,7.23,7.23,0,0,0,0-2.4v-3.4Zm0-4.6-2.2,3h2.2v-3Zm.6-44.4a1.85,1.85,0,0,1,.2-.8l-2.4,1.6.8,5Zm.4-7.4-2,5.8,1.8-1.2c0-.66,0-1.4.1-2.2S136.6,397.24,136.6,396.44ZM134.8,330l1.8-.2-.6-1.4Zm1.6,19.8-1.2,3.6,1,1.4v-.6C136.33,352.78,136.4,351.31,136.4,349.84ZM135.2,415l.6,2.6a6.94,6.94,0,0,0-.1-1.2A5.19,5.19,0,0,0,135.2,415Zm.8-34.8c.13,1.87.27,3.74.4,5.6s.2,3.74.2,5.6l.4-6.4v-6Zm1-37.4V331a12.9,12.9,0,0,1-.2,2v5.2C136.8,339.58,136.87,341.11,137,342.84Z"/><path class="cls-1" d="M126.4,497.84a.18.18,0,0,1,.2.2l.8,1.2,1.6,1.4a.56.56,0,0,1,.8.4l.4,1.2,4,5.6c2.13,1.87,4.07,3.67,5.8,5.4l.4.4a1.63,1.63,0,0,1,.2.6,49.46,49.46,0,0,1,4.6,16,4.54,4.54,0,0,1,.2,1.4q.19,1.2.3,2.1a3.82,3.82,0,0,1-.5,2.1c-1.47,3.07-3.13,4.84-5,5.3a24.24,24.24,0,0,1-7,.5h-.4q-7.2-.6-14.5-.7t-14.5-.5H95.4l-.2-.2c-1.07-.13-2.1-.23-3.1-.3a4.11,4.11,0,0,1-2.7-1.3,4.23,4.23,0,0,1-1.6-2.5,14.73,14.73,0,0,0-.8-2.9c-.53-1.06-1.1-2.23-1.7-3.5a15,15,0,0,0-2.1-3.3c-.27-.26-.63-.6-1.1-1a5.73,5.73,0,0,0-1.9-1,8.81,8.81,0,0,0-1.4.2h-1c-2,.14-4,.3-5.9.5a17.27,17.27,0,0,0-5.5,1.5l-1.2.6-1.2.6V529c.13,1.07.2,1.74.2,2v2.2a11.45,11.45,0,0,1-.2,2.2c0,2.94,0,5.8-.1,8.6s-.1,5.67-.1,8.6V561q0,4.2.2,8.4v2.2q0,3.21.3,6.6a10.24,10.24,0,0,0,2.3,5.8.18.18,0,0,0,.2.2l3.6,2.4a13.18,13.18,0,0,0,6.5.4,13.43,13.43,0,0,0,5.7-2.2,7.66,7.66,0,0,0,2.8-3.3q.8-1.89,1.8-3.9a23.37,23.37,0,0,0,1.3-3.1,5,5,0,0,1,1.9-2.5,8.71,8.71,0,0,1,4.4-1.9,38.66,38.66,0,0,1,4.8-.3,6,6,0,0,1,1.4-.2q6.6-.39,13.2-.6l13.2-.4c1.2,0,2.4,0,3.6-.1s2.4-.1,3.6-.1h1.6a7.14,7.14,0,0,1,1.7-.2,3.72,3.72,0,0,1,1.9.6c3.07,1.6,4.83,3.3,5.3,5.1a22.29,22.29,0,0,1,.3,7.3,68.71,68.71,0,0,1-2.9,12.4,31.36,31.36,0,0,1-6.1,11,38.59,38.59,0,0,1-5.8,6.1,74.85,74.85,0,0,1-6.8,5.1,32.26,32.26,0,0,1-9.2,6,80.69,80.69,0,0,1-11.1,4q-5.7,1.6-10.7,3.2h-.4a60.3,60.3,0,0,1-8.5,1c-2.87.14-5.7.2-8.5.2l-5.6.2h-.2c-3.47-.13-6.93-.4-10.4-.8s-6.93-.93-10.4-1.6q-5.8-1.2-11.8-2.9a32.59,32.59,0,0,1-11-5.5v-.2h-.2a71.64,71.64,0,0,1-11.3-15.3,121.62,121.62,0,0,1-8.3-17.3l-.2-.2A41.24,41.24,0,0,1,4.7,577q-.11-5-.1-9.8c0-1.2,0-2.36.1-3.5a18,18,0,0,0-.1-3.3v-1.8q-.2-4.39-.2-10.6t.4-12.8a65.66,65.66,0,0,1,1.8-12.1,19,19,0,0,1,4-8.3q4.39-5,8.8-10l3.2-4.2v-.2a.65.65,0,0,1,.4-.6l2.4-1.4q6.2-6.19,12.4-12.2l.2-.2.4-.2a38.83,38.83,0,0,1,11.8-4.2q6.4-1.2,12.4-2.2a87.23,87.23,0,0,1,9.8-1.2,89.48,89.48,0,0,1,11.1-.1,37.24,37.24,0,0,1,9.7,1.7l.4.2.4.2c1.47.94,3,1.9,4.5,2.9l4.7,3.1,1.2.2.2.2,9.4,4,.2.2,5.4,2.2a.56.56,0,0,1,.4.8l2.2,1.6Zm-112.2,32-4.8,14.6v.6l12-3.2Zm-1.8,25.4,8.2-11.6-11.2,3v1Zm-1.6.2-1.4-3.6v3Zm-1.4,7.8,2.2-5.8a.61.61,0,0,0-.2-.4l-2-.8v4A11.58,11.58,0,0,1,9.4,563.24Zm0,4.2L19,566l-6.6-7.6-3,8.4v.6Zm9.6.2L9.4,569l4.6,7.2Zm-6.2,10L9.4,572c0,1.2,0,2.47.1,3.8s.1,2.6.1,3.8ZM9.6,540l3.8-11.6-2.8.4q-.4,2.61-.6,5.5C9.87,536.28,9.73,538.18,9.6,540ZM11,586l2.4-7.2-3.6,2a36.35,36.35,0,0,0,1,4.4A1.79,1.79,0,0,0,11,586Zm2-58.8-.8-5.6a40.75,40.75,0,0,0-1.4,6Zm-1.2,60.6.4,1.2,5.6,3.8L14,580.64Zm9.4-31.2v-.2l-8.2.8,7.4,8.4Zm-6.8-38.8-.2.2a6.72,6.72,0,0,0-.8,1l1.2,7,7.2-8.6Zm1.8,79.4L18,595l-4.4-3.2Q14.8,594.65,16.2,597.24Zm4.8-42,.6-10.2-7.8,10.8Zm-1.8,38.2,5-15.8-9.6.8Zm7-64H26l-11.2-1.2,7.6,13Zm-2.6,47-3.2-8-5,8.6ZM25.8,528l-2.6-9.8-7.6,9Zm-7.4-14.8a29.74,29.74,0,0,0-2.6,3l5.8-.4Zm5.4,85.6-4.4-3-2.4,3,.2.2Zm-1.2,9,3-8-7.8.4Q20.2,604.44,22.6,607.84Zm.6-97.2H23l-2.2-.2a20.78,20.78,0,0,1-1.6,1.8l4,3.6Zm1.8,68.8-4.6,14.2,9.6-3.4Zm1.2,18.8,3.4-6.2L21,595ZM21.4,566l9.8,1.4-8.8-9.6Zm10.4,3.2-10-1.6,3.2,8.2ZM23.4,543l-.6,10.8L32.6,543Zm9.6,24.6L38.8,557l-16-.6ZM23.4,609v.2l8.2,2.4-5.2-10.2ZM27,531l-3.4,10.4H33Zm11.8,24.8-4.6-12.2-10.6,11.6Zm-10,58.4c-.13-.13-.2-.06-.2.2l-3.2-2.6a2.55,2.55,0,0,0-1.4-1.2l1.4,1.2a20.78,20.78,0,0,0,1.6,1.8l1.2,1,.2-.2Zm-1-111.4q-1.61,1.8-3.4,3.8v1.2Zm-3.4,13.4,4.2,2.6-4-6.2Zm7.2,4.4,8.2-12-15.2,2Zm7.8-13.2-5.2-11-8.8,12.8Zm-8.2,82.2,2.4-7a.82.82,0,0,1-.2-.6l-7.8-4Zm2.2-9-.6-10.2L26.2,577Zm5.4,24.2-7.6-12.6L27.4,599Zm1.2,2-12.6-6.4L33.6,612ZM38,535l-10.2-5,6.6,11.4Zm-1-1.8L31.4,523l-3.4,5.6Zm1.4,87.2-9.6-4.8a.55.55,0,0,0,.4.2,20.69,20.69,0,0,0,4.4,2.7A45.53,45.53,0,0,0,38.4,620.44Zm0-1.2-5.4-5.4L30.4,615Zm-3.8-36-2.2,6.6,12-.4ZM40.8,605l5-14-13.2.4Zm-8-84.2L45.6,522l-5.2-12.4Zm12.6,2.8-12.6-1.2,6.2,11Zm-10.6,56.6,10.2-9-10.8-1.6Zm5-22.4-5.4,10.6,5.6-10L46.2,570Zm11,19-15.6,5.4,11.6,7.2ZM44,612.64,40.8,608l-5.4,4.2Zm-5.6-75.2-2.8,4.4,3.6,1.6Zm7.8-38.6L35.8,496l5,10.4Zm-10.4,45,3.4,8.8.2-7.2Zm14.2,32-3.2-4L37.6,580Zm-9.8-85.2a.18.18,0,0,0-.2.2l-1.2,1a8.15,8.15,0,0,1,1.2-1l6.4,6.8Zm-.8,45.2,1,8.2L52,531.64Zm12.6-5.4-5.2-6-6,9.2Zm-11.2,25.4,10.6.6L41,546.64Zm.4-66,6.4,7.4,3.2-10.6-9.2,3A.59.59,0,0,0,41.2,489.84Zm5.2,31L48.6,507l-7.4,1.4Zm-.8,91.8,5.8-8.6-9.6,3v.2ZM42,544l14.2-.4L53,532.44Zm.2,1.6,11,10.2,3-10.6Zm6.2-39.8-1.2-5.6-4.8,6.6Zm3,97L47,592.44l-4.6,13.2Zm.8,21-6.4-8.6-2,6.4,5.8,1.6.2.2Zm-5.6-10.6,4.6,4.2.4-11.4Zm10.6-93.8-7.6-11.2-1.8,14,2-13.6Zm-5.6,59-3.6,11,9,.8Zm4.8-57.6-8.2,2.6,5,5.8Zm-6.8-17.4,2.2-7.2-3.4,2.6ZM53,560l-4.6,9.4,5.4-1.4Zm-4-63.6,3.4-2.6-1-4.8Zm8,9.8-3.6-9.6-3,9Zm-3.4-12.8,8.6-9L52,486.64ZM59.2,581l-7-3.8,5.8,12.6Zm-.8-1.8-3.8-8.6-2.2,5.2Zm3,25.6-8.6-.8-.4,13.8Zm-.4-1.4-3-10-4.4,9.2ZM61,625l-7.4-4,1.2,3.2Q57.8,624.65,61,625Zm-1.8-97.2-5,3.2v.2a.18.18,0,0,0-.2.2L57.2,543l2-5.4v-2.4a10.85,10.85,0,0,0,.2-2.1V529A5.62,5.62,0,0,1,59.2,527.84ZM54,558l.8,8.8,3.2-8.6Zm15.4,54.2-7-6.6-8.4,12Zm-12.6-63.6-2.2,8,3.2.4Zm5.8-63-7.8,8.2,9.8,3.4Zm-7.8,10,3.6,10,5.8-6.8Zm4.6,30.6a7.39,7.39,0,0,0,.4-1,5.48,5.48,0,0,1,2-1.8l-3.6-2.6L55,529Zm-.4,39.4-3.4,3.2,3.6,8.4v-7.6a19.27,19.27,0,0,0-.1-2A19,19,0,0,1,59,565.64Zm-2.4.2,2.4-2.4v-.2l-.4-2.4Zm1.6-19.2.6,4.4.2-1.6a6.94,6.94,0,0,0-.1-1.2A5.14,5.14,0,0,0,58.2,546.64Zm.4-28.2,7-3L59,509Zm.4,72.4,3.8,1.8-2.6-8.2ZM67,515l3.6-7-11.4-.4Zm-3.4,7.6a1.63,1.63,0,0,1,.6-.2l1.6-5.4-6.4,2.8Zm-4.2,33.6.2,1.4v-3Zm.2,36.6L62,601l1.2-6.4Zm10.4-86-4.4-7-5.8,6.6ZM62,586l2.8,7.2,2.6-2.6a13.72,13.72,0,0,1-4.6-3.6A6.24,6.24,0,0,1,62,586Zm2.6,9.8-1.4,7.8,10,.6Zm-1.4,9,7.6,7H71l3.4-6.4Zm.8-120.6-.2.2,2,12.8,7.4-12.8Zm1.6,110.2,9.2,9.2,3.8-12a19.39,19.39,0,0,1-6.2.2Zm4.6-73.8-2.8-3.4-1.4,4.4A39.12,39.12,0,0,1,70.2,520.64ZM66.8,499l4.6,7,5.8-9Zm7-13.2-6.6,11.4,10.4-2ZM67.8,592l1.6-.6a.47.47,0,0,0-.5-.1A5.23,5.23,0,0,0,67.8,592Zm2.6,31.4-.2-6L67.8,625ZM68.2,515l12.8,2.4-9.4-8.6Zm12.4,3.8-11.6-2,3,3.4c.93-.13,1.87-.23,2.8-.3s1.87-.1,2.8-.1h.2Zm-9.4,105.8-1.4,1h3.4ZM70,483.24h4l8.4-.4A65.83,65.83,0,0,0,70,483.24Zm7.6,132.4-5.8-1.8.2,8Zm-5.4-3.4,5.4,1.8L75,607ZM85.4,625l-6.4-8.6-6.2,6.8,11.4,2A3.6,3.6,0,0,0,85.4,625ZM73,506.64l10.4-.8-4.6-8.4ZM83.6,484h-.2l-8.6.4h-.2l4.2,10.4Zm-5.2,141.4-3.8-.6,1.8.6Zm.6-11.6L82.4,601l-6.4,4.2a.57.57,0,0,1-.2.4Zm-2.4-10.6,5.6-3.4-1.8-8.6Zm3.4-108,13,2-8.6-12Zm3.4,107L80,614.44l11.4-.2Zm-3.2-105.4,4.6,8.6,8.2-6.6Zm11.4,119-11,.2,6.6,9h.2Zm-7.8-26a19.57,19.57,0,0,1-1.8.8l1.4,7.8,6-6.8Zm11,15.8-4.4-12.8L84.2,600Zm.6,1.6-11.2-6,8.6,13,2.8-6.6Zm-3.8-88.8L85.2,509l-.8,8.8Zm-4.6,5a.59.59,0,0,0-.4-.2,8,8,0,0,0-.9-1.1l-.9-.9.8,3h.2Zm4.8-38.2a.57.57,0,0,1-.2-.4L85,484l9,12.6ZM85.4,507l7.8,11.6,5-11.6Zm.2,81.6,4,1.4-1.4-4.2A10.29,10.29,0,0,1,85.6,588.64Zm1.2-82.8h11l-3.2-6.4Zm6.6,27-.8-12-5,3.6a15.33,15.33,0,0,1,1.7,2.5c.47.87.9,1.77,1.3,2.7ZM91,590.24l6.4-10.8-6.8,2a16.92,16.92,0,0,0-.7,1.6,14.93,14.93,0,0,1-.7,1.6Zm3.2,33.2-1.6-6-3.4,7.2a10.77,10.77,0,0,0,2.2-.2C92.2,624.18,93.13,623.84,94.2,623.44Zm2.6-45-3-3-.2.2a5.15,5.15,0,0,0-1.2,2,11.07,11.07,0,0,1-1,2.2v.2Zm-3.2-43.2v-.6l-1.8-2a5.5,5.5,0,0,0,.2,1.5,1.31,1.31,0,0,0,.6.9A.89.89,0,0,0,93.6,535.24ZM91.8,592l4.6,13.2,8.6-14.4Zm.4-1.8,12.8-1-6.8-9ZM95.4,497l8-4.2-10-6.6Zm-.4,35.6,6.2-9-7.2-3Zm1.4,76-2.4,5.8,9.8,2.6Zm7.8,10.2L94,616.24l1.8,6.8,1.6-.4,1.6-.4Zm-5.4-109.6L94.2,519l7.2,2.8Zm-3.4,65.6,2.8,2.8,3-3.2H99.6c-.67,0-1.37,0-2.1.1S96.07,574.71,95.4,574.84Zm.4-76.2,3.2,6.2,4.4-10.2ZM110,534l-7.6-9.4-6.4,9.6Zm-1.4,1.8,1.2-.6-12.8.4h6.8C105.27,535.78,106.87,535.84,108.6,535.84Zm-1.4,67L97,607.44l8.8,10Zm-.2-1-1.2-9.6-7.6,13.2Zm-.8-12.8,4.8-12.4-11.8,2.8Zm-6.6-81.6,3,14.4,5.8-15.2Zm.6-1.6,7.8-.4-3.2-10.2Zm2.6,68.6,5.4-.4-3.6-1.6Zm8.2-41.6,1.8-15.6-9.2,6.2Zm-2-24.6-5,13,8.8-5.8Zm-3.2,111.4-1.6,1A3,3,0,0,0,105.8,619.64Zm.4-125.8,2.8,9.8,2.2-6.6C109.73,496.11,108.07,495,106.2,493.84Zm2.2,111-1.4,12.6,7.8-1h.2Zm-1-15.4,4.2,2-.4-11.8Zm4,3.6-4-1.8.8,8.2Zm-4,26.6c.8-.26,1.53-.53,2.2-.8Zm14-17.8-12.8,1,7.4,13a.59.59,0,0,1,.4-.2Zm-1.2-1-7.6-6.8-3.4,7.4Zm-10.4-94,4,8,4.4-6.8Zm6-6.8c-1.07-.66-2.13-1.4-3.2-2.2l-2.6,7.8,7.8,1Zm-5.2,74,1.2.6,1.6-.8A20.28,20.28,0,0,0,110.6,574Zm3.2-38h-1.6l.2,1.8Zm-1,55.4,10.2-14.8H112.2Zm6.2-63.8-4.8-9.2L112.6,533Zm4.6,50.4-9.6,13.8,14-.8Zm-9.2,15.4,7.6,6.8,5.4-7.6Zm7.6-18-1.6-1.8a23.32,23.32,0,0,0-3.2.2l-2.4,1.2ZM115,515l13.4,3.2-9.2-9.4Zm.2,1.8,5,9.8,9-6.6Zm7.6,19.4-3-6.8-4.6,6.6c1.2,0,2.43,0,3.7.1S121.47,536.24,122.8,536.24Zm-7.2-42q2,1.41,4.1,2.8t4.1,2.8l1-1Zm2.2,7.2,1.4,4.4,1.8-2.2C119.93,503,118.87,502.24,117.8,501.44ZM122,604l-4,10.4a10.63,10.63,0,0,0,2.6-2.2l.2-.2h.2l2.8-2Zm.2-99.4-1.4,2,3.6-.4C123.73,505.71,123,505.18,122.2,504.64Zm7,23.2.8-6.4-7.8,5.8Zm3.8,73.4-10.2,1,2,7q2.2-1.8,4.2-3.6a36.26,36.26,0,0,0,3.8-4A.61.61,0,0,1,133,601.24Zm1-1.2a.61.61,0,0,1,.2-.4L123,601Zm-8.4-63.8H124l.8,1.6Zm-1.2,39.4v.2l.2.2,4.2,1.2Zm6.2,4-6-2.2,4.2,12.8Zm-.4-73-4.4.6c1.6,1.34,3.13,2.6,4.6,3.8Zm-3.8,66.8,4.8,4.4,4.4-4.6h-.8c-1.2,0-2.43,0-3.7.1s-2.5.1-3.7.1Zm9.2-36.4-5.4-7-3.2,6.4,6,.4h1.8A3,3,0,0,0,135.6,537Zm-5.6,54.2,5.4.6-3.8-9.8Zm10.4-60.6a11.53,11.53,0,0,0-.2-2.2l-9.4.6,6.4,8a5.71,5.71,0,0,0,1.2-.4Zm-8.6-10.2-.8,6,6.6-7Zm4,73-4.8-.6,4.2,5.2a.57.57,0,0,0,.2-.4ZM131.6,512l.2,6.6,5.4-.6-.8-1.6Q134.2,514.25,131.6,512Zm.2,67.6,4.8,12,4.2-11.4v-1a21.79,21.79,0,0,0,.2-2.4Zm8.2-52.4a46.55,46.55,0,0,0-1.6-6.2l-6.4,6.6Zm-2.2,46-4,4.4,7-2A6.49,6.49,0,0,0,137.8,573.24Zm.8,16.6c.27-.66.53-1.4.8-2.2ZM141,533l-.6,1.6a9.31,9.31,0,0,1,.6-1Z"/></g></g></svg>