<svg xmlns="http://www.w3.org/2000/svg" viewBox="0 0 567.89 153.83"><defs><style>.cls-1{fill:#fff;}</style></defs><g id="Layer_2" data-name="Layer 2"><g id="Layer_1-2" data-name="Layer 1"><path class="cls-1" d="M124.18,134.23a83.23,83.23,0,0,1-17.4,12.6,27.09,27.09,0,0,1-11.1,4.6,99.17,99.17,0,0,1-14.1,1.8q-7.2.39-12.2.6a6.41,6.41,0,0,1-1-.2l-.8-.2-4.2-2.6q-6,0-12.9-.3a44.9,44.9,0,0,1-12.7-2.3l-.2-.2a161.57,161.57,0,0,1-15.9-9.2,95.18,95.18,0,0,1-14.3-11.2l-.2-.2c0-.27-.07-.4-.2-.4a39.61,39.61,0,0,1-6.2-15.8c-.27-1.07-.5-2-.7-2.9a4.31,4.31,0,0,1,.5-2.9,11.32,11.32,0,0,1,5.8-5.6,3.49,3.49,0,0,1,2.6-.5,10.72,10.72,0,0,0,2.6.3c1.2.13,2.43.23,3.7.3s2.5.17,3.7.3q4.8.19,9.5.3c3.13.07,6.3,0,9.5-.1.8,0,1.57,0,2.3-.1s1.5-.1,2.3-.1l-.2-5.4a38.51,38.51,0,0,1-5-1.4l-.2-.2q-6.8-2.81-14.2-6.6a49.79,49.79,0,0,1-12.6-9,.18.18,0,0,0-.2-.2l-.2-.2A37.92,37.92,0,0,1,5.38,69a39.86,39.86,0,0,1-3.2-14v.4q-.41-2.4,1.4-6.9A80.82,80.82,0,0,1,8.18,39v-.4h.2V38a.18.18,0,0,1,.2-.2c.53-1.07,1-2.13,1.5-3.2s.83-2,1.1-2.8v-.6a.82.82,0,0,1,.2-.6h.2l.6-.4,6.4-8.2v-.2c-.13-.27,0-.4.4-.4-.13-.27-.07-.4.2-.4l.4-.2,1.2-.8q4.39-5.81,6.8-8.4a.59.59,0,0,0,.4-.2l.4-.4A48.69,48.69,0,0,1,36,7.63a85.12,85.12,0,0,1,8.2-2.4A96.3,96.3,0,0,1,54,2.93,56.34,56.34,0,0,1,64,2a65.18,65.18,0,0,1,10.2.5q6.19.71,12.9,2.1a82.42,82.42,0,0,1,12.5,3.6,26.8,26.8,0,0,1,8.8,5,63.32,63.32,0,0,1,8.8,6,57.27,57.27,0,0,1,7.6,7.4,45,45,0,0,1,4.9,7.3,32.89,32.89,0,0,1,3.1,8.3c.27,1.07.53,2,.8,2.9a5.05,5.05,0,0,1-.2,3.1q-1.8,4.4-4.2,5.4a17.54,17.54,0,0,1-6.6,1H115l-9.3-.4Q101,54,96.38,54l-1,2.6a101.3,101.3,0,0,1,12.3,2.7,23.1,23.1,0,0,1,9.7,5.3,82.46,82.46,0,0,1,10.2,8.4,46.24,46.24,0,0,1,8.2,10.4l-.2-.2a25.09,25.09,0,0,1,3.4,10,58.47,58.47,0,0,1,.6,12.8,23.27,23.27,0,0,1-2.6,10.2,42.88,42.88,0,0,1-5.4,9.6A63.69,63.69,0,0,1,124.18,134.23ZM5.38,110.43a7.4,7.4,0,0,1,.4,1.8l5.4-7.8a2.6,2.6,0,0,1-.6-.1,3.13,3.13,0,0,0-.8-.1L6,105.83a10.78,10.78,0,0,0-1,1.6,2.14,2.14,0,0,0,.1,1.4A5.93,5.93,0,0,1,5.38,110.43Zm.8,3.6,3.8.4a36.33,36.33,0,0,1,3.7.2c1.27.13,2.23.27,2.9.4l-3.4-10.4h-.6l-6.4,9.2Zm.6,1.6a42.64,42.64,0,0,0,3.6,8l5.8-7.2Zm7.8-50,6.8-9.2L7.58,52q1.8,3.6,3.5,7.1c1.13,2.33,2.17,4.37,3.1,6.1ZM8.18,59l3.2,3.4-3.4-7a16.4,16.4,0,0,0,.1,1.9A14.69,14.69,0,0,1,8.18,59ZM8,60.43l5.6,13.4v-1l-4.8-11.6Zm.2-9.6,13,4.2L18,39.63c-1.73,2-3.47,4-5.2,5.9S9.51,49.23,8.18,50.83Zm1.6,16.4a11.34,11.34,0,0,0,1,2.2l-2.2-5.2Q9.18,65.83,9.78,67.23Zm4-28.2q-2.8,4.61-4.6,8.2,2.21-2.59,4.2-4.8t3.2-3.6h.3Zm-2.2,85.8c-.13-.13-.23-.2-.3-.2s0,.13.3.4l7.4-.2-1.6-7.2ZM13,31.23l-.2.4Zm0,95q2.4,2.2,5.4,4.6l1-4.4-.2-.4h-3A26.43,26.43,0,0,0,13,126.23Zm.6-59.2.4.6v-.4A.59.59,0,0,1,13.58,67Zm.8,37.6q1,2.81,1.9,5.4c.6,1.73,1.1,3.27,1.5,4.6l3.6-9.4V105h-2.6C17.58,104.9,16.11,104.76,14.38,104.63Zm1.2-68.4-.8,1.2a12.5,12.5,0,0,1,1.8-.2Zm-.8,38,2.6,3L15,70.43Zm.6-7,4.4,11.6,9-15.2Zm.8-32.2L18,37c.13-.93.23-1.87.3-2.8s.17-1.8.3-2.6C17.78,32.83,17,34,16.18,35Zm6.2,22.4-6,7.8L28.78,62q-1.8-1.2-3.5-2.5C24.15,58.66,23.18,58,22.38,57.43Zm-3.6,58.8,1.4,7,5.4-11.6Zm.4-78.8,7.4,4.2L20,30.23Zm3.2,68.6-3,7.8,6.8-4.4Zm-2.8-66.6,3,14.4,5.2-9.6Zm0,92a14.16,14.16,0,0,0,2.2,1.8l-1.6-4.6C19.91,129.7,19.71,130.63,19.58,131.43Zm10.8-101.2h-.2V30l-9.4-1.8a1.63,1.63,0,0,1-.2.6l8,13.8q.41-3.19.9-6.3c.33-2.07.63-4,.9-5.9Zm-7,104a30.44,30.44,0,0,0,3.4,2.2l7.6-8.2-13.6-2h-.2Zm-2.2-9.2L34,127l-6.4-15.6Zm.2-44.8c1.87,1.07,3.73,2.1,5.6,3.1a57.81,57.81,0,0,0,5.8,2.7L31,76.23l-.2-.4Zm.2-53,8.2,1.6-2.2-6.4L22,26.63ZM30,65l-8.4,13.8,8.8-4.2Zm.4-3.4v.2l3.2-8.2q-2.8.79-5.5,1.5l-4.9,1.3,7,5.2Zm-7.2,43.6,1.4,1.2,3,2.4,3.4-3.6Zm5.6-59.8-5,9.6,9.2-2.6Zm-2.2-25v0Zm.8-1.2.6,1h.2l5-6.2a10.84,10.84,0,0,0-2.2,1.2A30,30,0,0,0,27.38,19.23Zm.4,118a2.46,2.46,0,0,1,1,.6l12.8-2.4q-3.6-3.41-6.4-6.2ZM29,109l2.8,1.2q3.6,1.39,5,1.8l-2.2-6.8h-2Zm0,1.8,6,14.4q.41-3,1-5.9t1-5.3l-4.6-1.9C30.91,111.53,29.78,111.1,29,110.83Zm.6-66.6v0h0ZM31.38,32l-.4,3.2c-.27,1.47-.5,2.87-.7,4.2s-.37,2.47-.5,3.4l7.4-1.4Zm4.2-19L30,19.83l4.8-.8q2.4-.41,4.2-.6c-.53-1.2-1.07-2.33-1.6-3.4a21.6,21.6,0,0,0-1.2-2.2ZM31,139c1.87,1.07,3.8,2.13,5.8,3.2l2.7-3.1c.87-1,1.43-1.63,1.7-1.9Zm.4-75.6.4,9,4.8-8a28.38,28.38,0,0,0-3-.6C32.65,63.7,31.91,63.56,31.38,63.43Zm.2-1.6,2.2.4,2.8.6-2.4-7.4Zm2-28.6q1.39,2.21,2.6,4.2c.8,1.33,1.47,2.47,2,3.4L43.58,29l-11.8,1.2Zm8.6,54,2.6-12.4v-.4L32,75.63Zm-8.2-.6,2.8,1.2,4-.4-8.4-9.6Zm3.8-21.4-5.2,9,11.2-.8c-1.07-1.6-2.13-3.1-3.2-4.5S38.58,66.3,37.78,65.23ZM40,20.43l-7.2,8.4,10.8-.8c-.67-1.47-1.33-2.87-2-4.2S40.38,21.36,40,20.43Zm-5,32.8-.2.4,3,8.8,3.4-12.2L35,53Zm3.6-9.2-.8,2.2c-.53,1.2-1,2.3-1.4,3.3s-.67,1.63-.8,1.9l5.2-2.4Zm-.6,61.2h-2.2l2.2,7.2,2.3-4.6c.73-1.47,1.17-2.4,1.3-2.8a7.14,7.14,0,0,1-1.7.2Zm.4,25.6c1.87,1.73,3.27,3.07,4.2,4-.13-1.47-.3-2.87-.5-4.2s-.37-2.4-.5-3.2l-.4-1a24.09,24.09,0,0,1-2.8,1c-.93.27-1.73.53-2.4.8Zm-.2-14q-.6,2.81-1.1,5.5t-.9,4.5c.93-.27,1.8-.53,2.6-.8a15.33,15.33,0,0,0,2-.8c-.53-1.87-1.07-3.63-1.6-5.3S38.31,117.23,38.18,116.83ZM41.38,11l-4,1.2q.79,1.8,1.5,3.3c.47,1,.9,1.9,1.3,2.7q1.8-2.81,3.4-5.2c1.07-1.6,1.8-2.67,2.2-3.2h-.4Zm-1.8,132.6a26,26,0,0,0,3.4,1l-.4-6.6-4.4,5A4.33,4.33,0,0,0,39.58,143.63Zm-.8-80.4,4.4,1c1.47.27,2.9.57,4.3.9s2.43.57,3.1.7q-2.4-4-4.6-7.8t-4-6.6Zm3,25.2c-.8.13-1.73.27-2.8.4a19.91,19.91,0,0,0,3,1v-1.2h-.2ZM39,114l1,3.2c.4,1.47.8,2.8,1.2,4s.67,2,.8,2.4l5.6-11.2c-1.6.4-3.13.73-4.6,1S40.18,113.9,39,114Zm5.6-83.8-5.4,11.2h.6l5-10.8ZM43,105l-.4,1c-.67,1.33-1.3,2.57-1.9,3.7s-1,2-1.3,2.7c1.6-.27,3.13-.57,4.6-.9s2.67-.57,3.6-.7l-4-5.8Zm-3.2-62.4,2.2,5.2,5.2-6.4Zm0,22.4,1.2,1.8,2.4,3.2c.8,1.07,1.47,2,2,2.8q1.6-1.6,3-3.1c.93-1,1.67-1.77,2.2-2.3q-3.19-.6-6.2-1.3C42.38,65.66,40.85,65.3,39.78,65Zm1.6-45.2,1.4,2.6a29,29,0,0,0,1.2,2.8,14.86,14.86,0,0,1,.8,1.8l4.8-7.4c-1.6,0-3.13,0-4.6.1S42.31,19.83,41.38,19.83Zm.2-1.6c1.6,0,3.13,0,4.6-.1S48.91,18,50,18q-.79-2.6-1.5-5c-.47-1.6-.83-2.87-1.1-3.8Zm12.8,33.2h-.2l-6.1-.8c-2.07-.27-3.9-.53-5.5-.8l9.4,16,2.4-14.2Zm-11.6,75.8,1.4,3.4c.67,1.33,1.27,2.67,1.8,4s1,2.47,1.4,3.4q5.4-5.21,9.8-9.8l-14.6-1.8Zm.2-2L57,127l-8-14Zm.4-35a56.65,56.65,0,0,0,6,1l.8-1.2c-1.33-.13-2.6-.3-3.8-.5s-2.27-.37-3.2-.5Zm0-41.4L53.58,50,49,41.63Zm0,38.6,2.2.2c1.07.27,2,.47,2.9.6a14.67,14.67,0,0,0,1.9.2l-4.8-11.6Zm.6,48.2,1.4,1a2.21,2.21,0,0,1-.6-.4c-.13-.13.13.07.8.6l-2.2-5ZM43.58,95l.2,5.2,3-4.6A18.84,18.84,0,0,1,43.58,95Zm.6,42.6.2,5.8c.4-.8.77-1.53,1.1-2.2l.9-1.8a12.49,12.49,0,0,1-1.7-1.2C44.21,137.83,44.05,137.63,44.18,137.63Zm4.4-98v.2c-.67-1.87-1.33-3.67-2-5.4s-1.2-3.13-1.6-4.2l-.2.4c.53,1.73,1.1,3.37,1.7,4.9s1.17,3,1.7,4.5h.2Zm2.2,66.2a8.73,8.73,0,0,0-2.8-.7c-.93-.07-1.87-.1-2.8-.1l3.8,5.6h.2l3.6-3.8A6.94,6.94,0,0,0,50.78,105.83Zm1.6-4.6,1,.4a14.48,14.48,0,0,1-.6-2.5c-.13-.87-.27-1.77-.4-2.7a12,12,0,0,1-2.1-.2l-2.3-.4-2.6,4.4a31.65,31.65,0,0,1,3.4.2A17.25,17.25,0,0,1,52.38,101.23Zm-7,44q3,.41,7,.6l-4.8-5.2c-.53,1.07-1,2-1.4,2.9S45.51,145,45.38,145.23Zm.6-117,8,2.2-3.2-9.8Zm0,1.2q1,2.59,1.9,5.1t1.7,4.5l4.8-7v-.2Zm9.6,48.8q-2.59-1-5.1-1.9c-1.67-.6-3.1-1.17-4.3-1.7l5.4,13.8,4.2-10A.18.18,0,0,1,55.58,78.23Zm-8.8-4.6,8.2,3-3.2-8.2c-.93,1.07-1.87,2.07-2.8,3Zm1.6-65.8.2,1.2a92.12,92.12,0,0,1,9.6-1.8L59,6l-5.5.8c-1.8.27-3.43.53-4.9.8A.18.18,0,0,0,48.38,7.83ZM58.18,129l-3,3q-4,3.79-6.6,6.6h.6q5-5,9-9.2Zm-3.6,17h1.8l4.2-7.6L49,139.83Zm-4.2-33.8,7.8,13.6,2.6-14Zm.2-72.6,5,1.2q3,.6,5.8,1.2c1.87.4,3.2.67,4,.8l-10-10Zm7.6,5.6a8.9,8.9,0,0,1,3.4-1.6c-2.13-.4-4.17-.8-6.1-1.2s-3.5-.73-4.7-1l4.6,8.6.4-.4A8.09,8.09,0,0,1,58.18,45.23Zm-7.4,46.2a1.82,1.82,0,0,0,.8.2l-.2-1.2Zm4,16.8-1-.8c-.67.8-1.3,1.5-1.9,2.1l-1.1,1.1,8.2-.4c-.67-.27-1.33-.57-2-.9ZM52,19.63,55.58,30q2.4-3,4.6-5.8c1.47-1.87,2.73-3.47,3.8-4.8q-3.19,0-6.3.1C55.61,19.6,53.71,19.63,52,19.63Zm7.6-12.4-2.2,3.2q-1.4,2.21-2.7,4.3a29.78,29.78,0,0,1-2.3,3.3q3.4,0,6.6-.1c2.13-.07,4-.1,5.6-.1L61.88,12C61,10.16,60.25,8.56,59.58,7.23Zm-6.8,84.6,3.3.4,3.3.4,1.6-3.4-8.4,1Zm3.8-12-3.8,8.6,8.2-.8ZM55.38,53l-2.2,12.8q2.59-.6,5.1-1.4c1.67-.53,3.1-.93,4.3-1.2Zm-2.2,14.6,3.4,8.4,5.6-11.2q-2.4.8-4.8,1.5C55.78,66.8,54.38,67.23,53.18,67.63Zm1.8,35,2.4-5.4c-.67-.13-1.3-.23-1.9-.3s-1.23-.17-1.9-.3q.41,2.2,1,5.8Zm2.2,1.4c1.07.53,2.1,1.07,3.1,1.6a13.81,13.81,0,0,0,3.1,1.2l-.6-8.8a37.89,37.89,0,0,0-4.2-.6l-2.6,5.8A4.77,4.77,0,0,1,57.18,104Zm-1-71.8L67,42.83h.4c-.13-2.4-.27-4.8-.4-7.2s-.27-4.6-.4-6.6Zm10.2-4.6.2-.2-9.8,2.8-.4.6,9.8-3h.2C66.25,27.7,66.25,27.63,66.38,27.63ZM61.08,146h-3.3l-1,1.6c1.47-.27,2.93-.47,4.4-.6a24.49,24.49,0,0,0,3.8-.6v-.2h-.2l-.4-.2ZM57,78.43l5.4,9,5-12.6q-2.59,1-5.3,1.8c-1.8.53-3.43,1.07-4.9,1.6v.2Zm5.2-22q-1.2-.41-2.4-.9a6.08,6.08,0,0,1-2-1.3l6,8.6h.4l6-4.6a37.89,37.89,0,0,1-4.2-.6A18.49,18.49,0,0,1,62.18,56.43Zm1.6,9.2-5.8,11q2.4-.8,4.8-1.5l4.4-1.3Zm-2.4,71.2-2.8-7.6-.4.2c.53,1.47,1,2.83,1.5,4.1s.9,2.5,1.3,3.7l.2-.2A.18.18,0,0,0,61.38,136.83Zm.8-23.6-2.6,14,10.2-.6Zm-2.6,15.2.8,2.4c.4,1.07.77,2.1,1.1,3.1s.63,1.83.9,2.5l7.8-8.6Zm20.2-74,.8-1.8v-.2a7.41,7.41,0,0,0-4.2-1.9q-2-.11-4.4-2.5a16.17,16.17,0,0,0-8,0c-.4.13-.87.27-1.4.4a2.51,2.51,0,0,0-1.2.6c-.53.4-.8.73-.8,1,0,.53.4,1,1.2,1.3s1.4.57,1.8.7a38.86,38.86,0,0,0,7.6,1.6c2.53.27,5.07.47,7.6.6h.4ZM60.78,7l4.8,10.2,1.6-10.4a11.57,11.57,0,0,0-3,0A31.65,31.65,0,0,0,60.78,7Zm0,85.8a6.74,6.74,0,0,0,1.6.2l-.2-3.2Zm4.2.8c1.2.13,2.4.3,3.6.5s2.4.43,3.6.7l3.6-6.2q-3.41.2-6.6.3t-6,.1l.4,4.2C64.11,93.36,64.58,93.5,65,93.63ZM63.18,138l.6,2c.53,1.2,1,2.3,1.4,3.3s.67,1.7.8,2.1l5.6-8.6c-1.6.27-3.13.5-4.6.7S64.25,137.9,63.18,138Zm5.2-62.2-4.8,11.6q3.4-.2,6.6-.2c2.13,0,4-.07,5.6-.2Zm-4.8,36.8,7.6,13.4q1.8-2.4,3.4-4.6c1.07-1.47,2-2.73,2.8-3.8Zm.4-14.4.6,9,4.8-8-2.5-.4-2.5-.4H64Zm6.8,30.8-6.6,7.2c1.47-.13,2.9-.3,4.3-.5s2.63-.37,3.7-.5c-.27-1.33-.53-2.57-.8-3.7S70.91,129.56,70.78,129ZM65,64.43l3.4,8.2,6.2-7.6Zm1.4,43.2a24,24,0,0,0,6.2.4,28.27,28.27,0,0,0,6-1l.8-.2.6-4.6a1.74,1.74,0,0,0-.4-.3.85.85,0,0,0-.4-.1,23.36,23.36,0,0,0-4.1-1.6,23,23,0,0,0-4.3-.8l-5,8.2ZM66,63l8.8.4c-.53-1.07-1.07-2-1.6-2.9s-1-1.57-1.4-2.1Zm.6-43.8,1,6.6,5.4-7.6c-1.2.13-2.37.3-3.5.5Zm1.6-11.6-.4,3q-.6,4.6-1,7c1.33-.27,2.6-.5,3.8-.7l3-.5Zm-1,138.8L83,147l-9.6-10Zm7-108.8,7.4-9.4-13.8.2v.2l6.2,9ZM68,30.83l.6,11.6,2.3-2.3a24.71,24.71,0,0,1,2.1-1.9Zm6.8-12.4-6.2,8.8q3.4,0,6.7-.1c2.2-.07,4-.1,5.5-.1-1.07-1.6-2.13-3.17-3.2-4.7S75.58,19.5,74.78,18.43Zm-5.6-11.6,1.2,1.8c.8,1.33,1.57,2.67,2.3,4s1.43,2.53,2.1,3.6L79.38,8Q73.79,7.24,69.18,6.83Zm.2,67.2,7.8,4.4c-.27-2.4-.53-4.7-.8-6.9s-.53-4-.8-5.3Zm8,6v-.2l-8-4.4L77,86.63c.13-1.07.27-2.17.4-3.3s.27-2.1.4-2.9a.63.63,0,0,1-.4-.6Zm-5.8,68.2,1.6.2,4-.4-7.8-.2Zm5.2-102.7a18,18,0,0,0,2.2.9l-5-7.2h-.2l-4,3.6a21,21,0,0,1,4.2.8l.4.2.2.2A11.34,11.34,0,0,0,76.78,45.53Zm-1.2,69.7,2.8,1,.4-4.2a39,39,0,0,1-8,.8Zm-3,16.5c.27,1.13.53,2.1.8,2.9l4.4-9.4-5.6,2.2-.4.4v.2C72.05,129.36,72.31,130.6,72.58,131.73Zm.8-73.1,2.8,4.8L78,59c-.8-.13-1.57-.23-2.3-.3S74.18,58.63,73.38,58.63Zm0,36.4a24.35,24.35,0,0,1,6.2,1.8l-2.6-8Zm4.4,24.6-1,1.6c-.8,1.07-1.93,2.53-3.4,4.4l4.4-1.8Zm-3.4,15.8,3,1q1.8.4,3.3.9a19.49,19.49,0,0,1,1.9.7l-4-11.6ZM80.78,47a8.42,8.42,0,0,0,1,.6l2.4-8.6c-1.73,0-3.37,0-4.9.1s-2.83.1-3.9.1ZM82,29.63l-6.4,8c1.6,0,3.17,0,4.7-.1s2.83-.1,3.9-.1q-.6-2.4-1.2-4.5C82.58,31.53,82.25,30.43,82,29.63Zm-6,108,8,8c-.27-2.4-.53-4.33-.8-5.8q-2.59-.79-4.7-1.5A13.35,13.35,0,0,0,76,137.63Zm.2-120,2.4,3.2c.67,1.07,1.33,2.1,2,3.1a15.6,15.6,0,0,0,1.4,1.9q.6-2.8,1.2-5.4c.4-1.73.73-3.27,1-4.6-1.6.4-3.1.73-4.5,1S77.11,17.36,76.18,17.63Zm4.4-9.4-4.2,7.6c1.47-.27,2.87-.53,4.2-.8s2.47-.53,3.4-.8l-3-5.8A.59.59,0,0,0,80.58,8.23ZM77.18,65l.4,4.4c.27,1.73.5,3.37.7,4.9s.37,2.77.5,3.7l10.6-12.2-6.6-.4C80.65,65.3,78.78,65.16,77.18,65Zm.2-1.6,4.2.2q2.4.19,4.5.3c1.4.07,2.57.17,3.5.3l-2.4-4c-1.47-.13-2.87-.3-4.2-.5s-2.6-.37-3.8-.5ZM78.78,81l-.6,5.8,8.2-1.4Zm-.6,7.4L81,97l6.2-10.2ZM88.58,85v.2c1.33-1.73,2.63-3.47,3.9-5.2s2.37-3.33,3.3-4.8L79.18,80l9.2,5Zm-9.4,40,4.8,13.2,7.6-14.8c-2.27.27-4.43.5-6.5.7s-4,.43-5.7.7h-.2Zm.2-7.2v4.4l6-6.8-3.2,1.2A29,29,0,0,0,79.38,117.83Zm.6-6.2-.4,4.4,4-1.6c1.33-.53,2.47-1,3.4-1.4l-2-3.8a11.27,11.27,0,0,1-2.3,1.4A19.38,19.38,0,0,1,80,111.63Zm10.8-45.2-10.2,12,15-4.2Q94.19,72,93,69.93A40.41,40.41,0,0,0,90.78,66.43ZM88,114.83l-7.4,8.6,10.4-1c-.53-1.47-1.1-2.87-1.7-4.2A26.46,26.46,0,0,1,88,114.83Zm-5.4-10.2c0-.67-.47-1.27-1.4-1.8l-.4,3.4C82,105.7,82.58,105.16,82.58,104.63Zm-1.6-50c.93.13,1.93.27,3,.4l-1-1.4c-.53-.13-1-.27-1.4-.4Zm6.4,50.2a2.86,2.86,0,0,0-.2-1.2l-5.4-3.4,4.2,8A6,6,0,0,0,87.38,104.83Zm-.6-3,2.4,1.4-1-14.8L82.38,98a8.82,8.82,0,0,1,2.5,1.6A12,12,0,0,1,86.78,101.83Zm-4.2-93.2c.4.93.87,1.9,1.4,2.9a27.66,27.66,0,0,1,1.2,2.5c.53-1.2,1.27-2.67,2.2-4.4C85.78,9.23,84.18,8.9,82.58,8.63Zm.4,20,.8,3.2c.67,2.27,1.2,4.13,1.6,5.6l4.6-4.8v-.2c-1.33-.67-2.6-1.33-3.8-2Zm.4,20a17.66,17.66,0,0,0,5,.6l-3-8.4-2.2,7.8Zm0-21.2,2.2,1.2c.93.53,1.8,1,2.6,1.4s1.2.67,1.2.8q-1.2-4-2.3-7.6T85.38,18q-.6,2.4-1.1,4.9T83.38,27.43Zm2.2,27.8a5.29,5.29,0,0,0,1.6.2l-1.8-1.6h-.8Zm7.4,90.4,1.2-.4-.4-.2-8.6,2h.2l.2.2c1.2-.27,2.43-.53,3.7-.8S91.78,145.9,93,145.63ZM92,125l-6.4,12.8,10-3.2c-.67-2-1.33-3.83-2-5.5S92.38,126.1,92,125Zm-6,14.4,8.8,4.8.8-8ZM86.38,14l4.2.2c2,0,3.93,0,5.8.1s3,.1,3.4.1q-1.4-.79-2.7-1.5t-2.7-1.5c-1.87-.53-3.8-1.07-5.8-1.6-.4.93-.8,1.8-1.2,2.6A6.69,6.69,0,0,1,86.38,14Zm0,1.6,1.4,5q1,3,1.9,5.6a41.82,41.82,0,0,1,1.3,4.4L101.58,16c-2.67-.13-5.33-.23-8-.3S88.51,15.63,86.38,15.63Zm.2,22.4L97,42.83l-6.4-9.2Zm10.2,11.2,1.6-4-11.8-5.4,3.6,9.4c.93,0,1.83,0,2.7-.1s1.77-.1,2.7-.1Zm-7.4,6.6h1a1.63,1.63,0,0,0,.6.2l-.8-2h-2.8Zm1.6,8.4a18.62,18.62,0,0,0,1-1.9,4.44,4.44,0,0,1,.8-1.3q-1.8-.2-4.2-.6Zm-1.6,41.2.2-.4-.4-.2A.82.82,0,0,0,89.38,105.43Zm1.2.6-1.4,6,6.6-2.8a30.52,30.52,0,0,1-3-1.7C91.85,106.93,91.11,106.43,90.58,106Zm-1.4,7.8,1.4,3.2c.4.93.93,2.2,1.6,3.8l4-10Zm.4-26.4,1,15,7-9.8Zm.4-1.8,7.8,5.2-1.6-14Zm5,60.8-4.8,1.2a68.45,68.45,0,0,0,6.8-1.4h-1.4ZM91,105l2,1.2a24.41,24.41,0,0,1,2.3,1.3,21.87,21.87,0,0,0,1.9,1.1l7.6-8.4Zm8.4-61.2,6-14-13.8,2.8v.2l7.6,11Zm-6.6,12.4,1,.2h.4l.8-2.6c-.8,0-1.87.07-3.2.2ZM99,93.63l-7,9.6c2.53-.8,5-1.6,7.3-2.4s4.37-1.47,6.1-2Zm-6.8-29,4.8,1.6L93.58,62c-.27.53-.57,1.07-.9,1.6A3.2,3.2,0,0,0,92.18,64.63Zm10.6-47.4-10.2,14,12.6-2.6Zm-10,49.2,1,1.8c.67,1.07,1.27,2,1.8,2.9s.87,1.43,1,1.7l1.6-4.6Zm0,57.4,1.6,4c.4,1.2.8,2.37,1.2,3.5s.8,2.17,1.2,3.1a.18.18,0,0,1,.2-.2l7.6-5.6v-.2Zm.4-1.2L104,127l-6.4-15.4Zm10-109.2-9-3.4,8.4,4.4h.4l.4-.8ZM99.38,67l-.2.2.2.2,9-2.8a42.37,42.37,0,0,0-6.6-2q-3.6-.8-7.2-1.4l4.4,5.6Zm-2.2,70.6-.8,6.8a22.19,22.19,0,0,0,2.3-.5,7,7,0,0,1,1.5-.3Zm0-62.2.6,4.4q.41,3.19.7,6.2c.2,2,.37,3.73.5,5.2l6.8-12-.2-.4-8.2-3.6Zm.6-1.2,6.6,2.8c-.93-1.47-1.87-2.87-2.8-4.2s-1.67-2.4-2.2-3.2Zm.4-25c.8,0,1.63,0,2.5.1s1.77.1,2.7.1c-.8-.67-1.53-1.3-2.2-1.9s-1.27-1.17-1.8-1.7Zm0,85.6,9.6,4.6-2.8-9.6Zm.4-25.2,9.2,6.2v-.4l-9-6.2,7.6-8.4v-.4l-8,8.6.4.2ZM108,117l-9.6-6.6.4.8,9.4,6.4v-.2A.59.59,0,0,1,108,117Zm-9.6,19.8,1.9,3.4c.6,1.07,1.1,2,1.5,2.8l5.2-2.2Zm1.8-91.6a.18.18,0,0,0-.2.2l4.6,4h.6l.6.6.2-.6h-.8q-1.4-1.2-2.7-2.4c-.87-.8-1.63-1.47-2.3-2Zm0,46.4,2.8.2c1.47.13,2.83.23,4.1.3a22.82,22.82,0,0,1,2.9.3c-.67-2.27-1.33-4.43-2-6.5s-1.2-3.77-1.6-5.1Zm.2-23.4,1.8,2.6a43.23,43.23,0,0,0,2.4,3.6,18.9,18.9,0,0,1,1.6,2.4l2-10.8c-1.47.4-2.9.8-4.3,1.2Zm5.4-36.2-5,11.6,3.6-.8q1.8-.4,3-.6c-.27-2.13-.57-4.17-.9-6.1S105.91,32.83,105.78,32Zm-4.6,61.4,5.6,4.4,3-3.8c-1.87-.13-3.6-.27-5.2-.4S101.85,93.43,101.18,93.43Zm3.2-76.2,1.8,8.2c.27-1.07.5-2.1.7-3.1a22,22,0,0,1,.7-2.7c-.8-.67-1.53-1.27-2.2-1.8S104.38,17.1,104.38,17.23Zm1.6,32.2a.59.59,0,0,1,.4.2l1.4-6.2h-.4Zm.2,79.2a.59.59,0,0,1-.2.4l3,10.4,3.8-14.8c-2.53,1.47-4.73,2.73-6.6,3.8Zm2-13-1.4-15.2-.4.4,1.4,14.6Zm-1.2-86-.2.4q.41,3.19.9,6.2t.9,5.4l9-15.4L107,29.43Zm2,89.2-.6,2.4c-.4,1.33-.77,2.53-1.1,3.6a10.17,10.17,0,0,0-.5,2q3.19-2,5.4-3.2c-.67-1.07-1.3-2-1.9-2.9Zm0-98.4-.8,3.2c-.13.93-.3,1.83-.5,2.7a9.62,9.62,0,0,1-.5,1.7l9.2-2.6c-1.33-.93-2.67-1.83-4-2.7S109.91,21.1,109,20.43Zm6,29.4a34.28,34.28,0,0,0-3.7-.2h-3.7l1.4-5.8-.4-.2-1.4,6h.4l-.2,1h9.8l-1-.8ZM107.58,78l11.2,1-9.2-12.2Zm6.8,25.8v-.2L108,100l1.4,14.8,5.2-10.8Zm-6.2-5,2,1,2.5,1.4q1.09.6.9.6c-1.07-2.93-1.93-5.27-2.6-7ZM118.38,27,110,41.63l15.8-4Zm-.2,22.8c1.47-2.13,2.83-4.13,4.1-6s2.3-3.4,3.1-4.6l-15.2,4,4.3,3.5C115.88,47.86,117.11,48.9,118.18,49.83Zm1.6,22.8V71l-.2-.2.2-.4c-1.2-.53-2.37-1.07-3.5-1.6s-2.23-1.07-3.3-1.6a14,14,0,0,0-2.8-1.8l.4.6a20.47,20.47,0,0,1,2.4,1.2,8.15,8.15,0,0,1,1.2,1l.2.2Q117.19,70.43,119.78,72.63Zm-4.6,33-5,10.6,8.8-.6c-.67-1.87-1.37-3.73-2.1-5.6S115.58,106.7,115.18,105.63Zm-5,12.2,1,1.4a18.66,18.66,0,0,1,1.4,2c.4.67.67,1.13.8,1.4l4.8-5.2Zm3.4,8.2-3.2,13a57.37,57.37,0,0,0,7.4-5.6Zm-1.8-32.4v0ZM120,82l-7.2,10.2,9.4-.6q-.6-2.8-1.2-5.5C120.58,84.33,120.25,83,120,82Zm.8,48.6a41.37,41.37,0,0,0,6.8-7.8l-13.4,1.4,4.6,8.4Zm-.4-13.2-5,5.4,12.2-1.2Zm-4.6-13.2,1.4,3.2c.53,1.47,1.07,2.9,1.6,4.3s1,2.5,1.4,3.3l6.6-10-11-1Zm.8-1.2,10.2.8L123,94Zm6-53.2h3c.13-2,.27-3.87.4-5.6s.2-2.87.2-3.4q-1.8,2.81-3.4,5.2c-1.07,1.6-1.93,2.87-2.6,3.8ZM121,73.63c.13,2.53.2,4.33.2,5.4l4.8-.6A57.8,57.8,0,0,0,121,73.63Zm0,7,2.4,10.6,4.6-10.8a3.66,3.66,0,0,1-1-1c-1.07.13-2.13.3-3.2.5a14.75,14.75,0,0,1-2.6.3v.2H121Zm6.8,25-6.6,10,.6-.2L128,106Zm-5.6,11,7,4a21.28,21.28,0,0,0,1.8-3l1.6-4.6Zm2.2-24.8,9.4,1-3.8-9.4a20.07,20.07,0,0,0-1.2-1.8Zm0,1.6,3.8,9.4,5.4-8.4c-1.73-.13-3.43-.3-5.1-.5Zm4.4-47a5.26,5.26,0,0,1-1.8,2.8l-.2.8,3-3.2-2.4-6.8v.8c.27.8.53,1.6.8,2.4.13.4.3.93.5,1.6A2.75,2.75,0,0,1,128.78,46.43ZM128,106l5,5.6.2-.2-4.8-5.8Zm1.4-2.6c.93-.27,1.9-.53,2.9-.8a22.67,22.67,0,0,0,2.5-.8.18.18,0,0,1,.2-.2v-.2h.2l-.4-6.4-.4.4q.41,2.8.6,6c-1.2.4-2.33.77-3.4,1.1A9.15,9.15,0,0,0,129.38,103.43Zm0,1.6,4.4,5.2.4-1.8a24,24,0,0,1,.2-3.1,19.51,19.51,0,0,0,.2-2.1c-1.07.4-2.07.77-3,1.1S129.91,104.9,129.38,105Z"/><path class="cls-1" d="M181.38,149.43a3.89,3.89,0,0,1-1.8-.8,4.72,4.72,0,0,1-1.4-1.2,14.28,14.28,0,0,0-1-2.3,7.16,7.16,0,0,1-.8-2.3,21,21,0,0,1-.2-2.9V134q-.19-5-.2-9.9v-17.7a5.62,5.62,0,0,1,.2-1.2v-1.8c-.53-1.07-1.1-2.17-1.7-3.3s-1.17-2.23-1.7-3.3v-.2q-1.8-3.19-3.6-6.6l-3.6-6.8a34,34,0,0,1-6.4-10q-2.6-6-4.8-12.7t-4.7-12.6a29.65,29.65,0,0,0-6.1-9.5c-.13,0-.27-.13-.4-.4a2.21,2.21,0,0,0-.4-.6l-3.3-7q-1.69-3.6-3.3-7.2c-.8-1.73-1.63-3.47-2.5-5.2a14.78,14.78,0,0,1-1.5-5.6,3.64,3.64,0,0,1,1.2-2.6,50.19,50.19,0,0,1,4.5-4.1c1.13-.87,3.17-1.3,6.1-1.3,3.73-.13,7.47-.23,11.2-.3s7.53-.1,11.4-.1h7a5.62,5.62,0,0,0,1.2-.2h1.4a3.87,3.87,0,0,1,1.2.2,13.31,13.31,0,0,1,5.8,1.7,12.69,12.69,0,0,1,3.8,4.5,6.41,6.41,0,0,1,.8,1.9c.13.6.27,1.23.4,1.9.4.93.77,1.9,1.1,2.9a23.94,23.94,0,0,0,1.3,3.1q2.21,4.8,4.7,9.5t4.9,9.5c.4.8.83,1.63,1.3,2.5s.9,1.7,1.3,2.5l.8-1.2a78.92,78.92,0,0,0,5.3-10q2.3-5.2,5.1-10.2,1.2-2.4,2.5-4.9t2.5-4.9c.93-1.73,1.87-3.3,2.8-4.7a10.84,10.84,0,0,1,4-3.5,10.74,10.74,0,0,1,5.8-1.5c2,.07,4.07.23,6.2.5a8.79,8.79,0,0,1,1.3.1,10.21,10.21,0,0,0,1.5.1q10.6,1,22,1.8H266a2.45,2.45,0,0,0,1.4,0h1.8a3.61,3.61,0,0,1,1.8.6,10.43,10.43,0,0,1,2.7,2.4,29,29,0,0,0,2.3,2.6,3.38,3.38,0,0,1,1,2.7,11,11,0,0,1-.8,2.7,46.66,46.66,0,0,1-2.8,5.5c-1.07,1.8-2.13,3.57-3.2,5.3l-.2.4-.2.2a35.6,35.6,0,0,0-6.4,9.6,109.84,109.84,0,0,0-4.7,12q-2.1,6.4-4.6,12.2a31.06,31.06,0,0,1-6.5,9.8,90.51,90.51,0,0,0-4.9,10.7,90.51,90.51,0,0,1-4.9,10.7c-.67,1.2-1.3,2.43-1.9,3.7s-1.17,2.5-1.7,3.7c-.27.53-.57,1.07-.9,1.6a5.58,5.58,0,0,0-.7,1.6,5,5,0,0,0,0,2v1.2c0,1.33-.07,2.67-.2,4q-.4,5.6-.7,11t-.3,11v3.6a3.38,3.38,0,0,0,.2,1,34.08,34.08,0,0,1-.3,4.6,7.6,7.6,0,0,1-6.1,6.1,32.53,32.53,0,0,1-4.4.3,5,5,0,0,0-1.2-.2H216q-8,.2-16,.5t-16,.5Zm-36.8-134.2-7.4-1.6a14.5,14.5,0,0,0,1.4,3.9c.67,1.27,1.27,2.5,1.8,3.7.4.8.8,1.67,1.2,2.6Zm-2.6-6a3.35,3.35,0,0,0-2.2.9c-.4.47-1.07,1.17-2,2.1l6.4,1.2Zm.4-1.6.8,1.6h.8q3.2-.2,6.8-.2l1.2-1.4Zm9,22.4-5.8-13.2-3,9,.8,1.6Zm-3.8,5.2,4.4-3.8-7.8-2.4a28.11,28.11,0,0,0,1.4,2.8C146.11,32.76,146.78,33.9,147.58,35.23Zm6.8-22-7.6,2,5.6,13Zm-6.2,0,6-1.6L153,9h-.6Zm.6,24a29.12,29.12,0,0,1,4,6.4l1.2-6.2Zm.6-1.8,4.4.4-1.4-3.2Zm12-9.4-5.8-11.6,5.4,11.8-7.6,4.2Zm-6.4,9.8,5.2-7.4-6.8,3.4Zm-1,10.4a9.92,9.92,0,0,0,.6,1.4l5.4,3-4.8-11.2Zm0,2.6,4.2,8.8c-.53-1.33-1-2.7-1.5-4.1s-1-2.77-1.5-4.1Zm.2-39.8,1.8,2.4,4.6-2.6h-3.2A26.43,26.43,0,0,0,154.18,9Zm7.8,16.8.4-.4L156,12.83Zm-.2,24.8L170,37l-13.8.4Zm-5.2-14.8,13-.4-7.4-7.6Zm1.6-24.2,11.4.8L165,8.83h-2Zm.6,47.2,7.8-.2-4.8-4.8Zm8.8,1.4-8.4.2a1.82,1.82,0,0,0,.2.8l7.2,10.6Zm.8-1.6h.4L178,52l-15.4.8Zm9.8-7.8-6.8-13L163,51.63ZM167.38,78l-1-3.4-2-3.2-1.4-1.6,3.6,7.2A6.72,6.72,0,0,0,167.38,78Zm5.6-48.2a.18.18,0,0,1-.2-.2l-9.6-2.2,8,8Zm-.2-1.4-1.2-12.8-8.2,10.6Zm-1-15.8-.2-3.8H167Zm2.4,64.8-5.6-15.2,5.2,14.8-6-3.4a.82.82,0,0,1,.2.6Zm0,1.2-5.8-2.8L174,79l-3.4,3.6a.59.59,0,0,1,.2.4Zm3-16.6,1.2-8.6-8.4,5.8Zm2.4,21.6-4.6-4-3.8,4.2.4.4,3.6-4.2ZM177.18,95l2.4-10.2-7.6.4q1.4,2.4,2.6,4.7t2.4,4.5a.4.4,0,0,0,.1.3A.4.4,0,0,1,177.18,95Zm-4.8-59.4,6,1.8-4.6-6.2Zm.6-22.8,4,.8-4.2-4.4Zm5.4,2.6-5.4-1,1.2,11.6Zm-5.4,22,5.8,11.4.8-9.4Zm1-28.6,5.2,5.2.8-4.6a18.15,18.15,0,0,0-3.2-.8h-2A3.49,3.49,0,0,1,174,8.83Zm6.8,29.2,8.4-7.6-14.8-.6Zm7.8-8.8-9-12.8-4.8,12.2Zm-12.4,48,7.6-5-5.6-7Zm4.4,5.6,3.6-9.4-8,5.2Zm-2.4,17.2,2.8,5.6v-2.1a6.33,6.33,0,0,0-.2-1.5v-.2l-.2-.2c-.4-.8-.8-1.67-1.2-2.6Zm.2-38.4,8.8-12.4-7,2.6q0,.2-.6.6Zm5.6,35.8L180.78,87l-2.4,10.2c.13.27.27.53.4.8Zm3.6-46.8-8.2,11.8,9.6.2ZM184.78,71l3.8-6.8-9.2-.2Zm2-23-5.8-7.2-.8,9.6Zm-6.4-33.8,3,.2a3.38,3.38,0,0,1-.2-1l-2.2-2.8Zm2.4,98-2-3.8v2.4Zm-2,8.8,3.2-5.8-3.2-2.4V121Zm0,3.4v.4l5-2.2a.59.59,0,0,1,.2-.4Zm.2,11.2,4.6-11.6-4.8,2.2q.19,3.4.2,7.6Zm0-119.8,6.6,9.2c-.53-1.07-1-2.07-1.4-3a48.67,48.67,0,0,1-2.2-5.8Zm3,128.6h1l4.6-9.4-8.4,4Zm1-69.6-3.4,8.8,7.6,4.8Zm-3.2-35.4L188,47l4.4-9.6Zm0,97.6,8.6-4.2-3.8-8Zm7.6-46.6-7.4-4.6,3.2,10.6ZM183,37.63l9.6-1.8-2.6-4.6Zm2.8,76.6v-13.4l7.4,10-7.8-10.6Zm12-36-12.2-5,5.2,16ZM187,120.83l5-7.8-6,2.4Zm9.6-44.2L190,65l-3.8,7Zm1,24.6-7-9.6-4.4,6.2Zm1.2,1.6L186.58,99l7.6,11.2Zm2.4,41-9.6-9.2-4.8,9.8q3.6-.19,7.2-.3T201.18,143.83Zm-9.2-11.4,9-5.6-13.4-3ZM194,38l-4.6,9.6,10,.6V48a26.76,26.76,0,0,1-1.8-3.4c-.53-1.2-1.07-2.33-1.6-3.4a1.74,1.74,0,0,1-.3-.4.85.85,0,0,1-.1-.4Zm-2.6,26.2,7.2,12.6,8-11.6Zm11.4-11.8h-.4a1.92,1.92,0,0,1-1.4-.6l-9.4,10.8,15.2,1Zm5,33.8L192,90.63l7.6,10.6Zm-9-7-6.4,9.6,15-4Zm-5.6,54.6,9.6,9.6,1.4-10.4Zm1.4-1.6,9.4-.8-1.8-3.8Zm.6-20.6,6.8,12,.6-14.4Zm4.4-7.6-3.6,5.6,6.2-2Zm10.6-27.6-10.6,2,9.6,5.8Zm-10.4-27a3.46,3.46,0,0,0,.4,1.4l1.2-1.4Zm10,25.8-2.2-8.8L200.38,77Zm1.6,22-11,5.8,3,4.4Zm.4-1.6-2.6-8.6-7.6,13.8ZM203,49.83l.8,2.4a2.61,2.61,0,0,0,1.2-1.6Zm2.2,81.4,4.4-8.4-6.2,3.6v.2a.18.18,0,0,1-.2.2Zm4.4-9.8L204,111l-.6,14Zm-2.4,25-3.2-.8.2.8Zm1.8-2.8-3.4-8.4-1.2,8.6C206,143.83,207.51,143.76,209,143.63Zm3.4-45.8-7.8,9.8,12,5Zm-7.2,11.8,5.6,10.8,5.6-6.2Zm.2-60.2,3.4,1.2.8-8.6a33.13,33.13,0,0,1-2,3.2c-.27.53-.57,1.07-.9,1.6s-.63,1.07-.9,1.6A8,8,0,0,0,205.38,49.43Zm5,74.6-4.2,7.8,7,3.8Zm-3.6,10,3.8,9.6h.8l2-6Zm2.2-70.8,6.4-2.2-5.4-7.2Zm0,1.8,2,8.2,4.4-10.4Zm7.6-4.6,7.6-11.6-14,3.4Zm-6.2-10.8,8.4-9.2-7.4-.6Zm1,28.2-1,6.4,5.6-.6Zm5,7.4-6,.6,2.6,7.8Zm9,35.2-14.2,2,3.4,13.8Zm-7.8-37,4.4-9.6-10.4,2.4Zm6.8-36-4-6.2-8.6,9.2ZM212,38.23l6.6.6-4.4-5Zm9.4,34.4-4.6-9.2-4.6,11.2Zm-8.8,48.2,11.4-1.4-6-4.4Zm4.2,22.6-2.2-4.2-1.4,4.4a16.25,16.25,0,0,0,2.6-.2Zm4.8-41.2v-.4l-8.2-5,4.4,16Zm-.4-2.2-3.8-13.4-3.6,9Zm-.8-61,3.6-12.2-9.2,5.8Zm5.2,83.2-9.8,14.4,11,1.6v-.4a8.81,8.81,0,0,1-.2-1.4V131Zm1,17.6-10.8-1.6,2.8,5.2h1a5.62,5.62,0,0,1,1.2.2h1.6Zm-3-114.2L222,18l-6,12.2Zm1.4,24.2L217.58,61l.2.2,7.2-10.8,1.2,13.2Zm.4,15-7-2.2,4.2,8.8Zm-2.8,10.4-3.8,8.4,8.6,2Zm0,24.2,5-12-8.8-2.2ZM219,113l6.6-1-3.2-8Zm.8,1.4,5.8,4.2.4-5Zm2-76,6-2.6-3-7.4Zm0,1.8,3.6,5.8,2.2-8.4Zm8.6,57-7.4,5.2,3.6,8.6,1.2-3.4v-3.7a6.33,6.33,0,0,1,.2-1.5,5.26,5.26,0,0,1,.8-2.1,10.44,10.44,0,0,0,1-1.9A4.81,4.81,0,0,0,230.38,97.23Zm-4-87.2-1.8,2.6a3.42,3.42,0,0,0-.7,1.1,7.68,7.68,0,0,1-.7,1.3l3.4-5.2ZM237,72.23l-13.8,1.4,5.6,12.4ZM223.38,17l1.4,5.8,1.4-4.6Zm12.2,54.2-8.6-5.8-3.2,6.8ZM231.38,95a.18.18,0,0,0,.2-.2l-2.8-6-4.6,11Zm-2.6-59.6,6.6-9.2-10.2.4Zm5.4-10.4-6.6-5.8-2,6Zm1,25.4-8.8-1.8.8,13.8Zm-.6-1.4L229,38.43l-2.4,9Zm-7.8,71.8.2,2A8.57,8.57,0,0,0,226.78,120.83Zm1.8-11-1,3v1l1,4.8Zm-.4-101.2L228,15l3.6-7.2h-.2Zm-.2,54.8,13,1-5.2-12.6Zm.6-46.4,12.2-.8-8.2-7.6Zm12.6.8-12,.6,6.8,6.2Zm-.4,48.2-11.4-.8,8.2,5.4ZM236,86l-6,1.4,2.4,5.6a5.84,5.84,0,0,0,.6-1.1c.13-.33.27-.7.4-1.1h.2v-.2A48.41,48.41,0,0,0,236,86Zm-5.8-50.2,6.4,1.8-1-9.6Zm.2,1.6,5.2,10.2,1.2-8.2Zm6.6,37.2-6.6,11,6.4-1.6c.13-.27.27-.53.4-.8Zm5.8-58.6,3.2-6.8q-3-.4-5.8-.6a8.28,8.28,0,0,1-1.4-.1c-.4-.07-.87-.17-1.4-.3a17.39,17.39,0,0,1-1.8-.1,13.48,13.48,0,0,1-1.8-.3Zm-5,21.6,6.2-8.8v-.2l-7.4-2Zm10.2,12-11.2,1h-.2l5.6,13.6Zm-1-1-8.8-8.2-1.2,9Zm-3.2-21.4-1.4-8.4-4.8,6.6ZM240.18,76l-2-2.8.2,7.4c.27-.8.57-1.57.9-2.3S239.91,76.83,240.18,76Zm.6-1.2a.59.59,0,0,1,.2-.4l.2-6.4-2.4,3.8ZM239.18,38l10-.8-4.4-7.4Zm10.4.8-10,.6,8.6,8.2Zm-1,23.2-5.6,3.6-.2,5a8.77,8.77,0,0,1,.8-1.6l.2-.2v-.2a28.61,28.61,0,0,0,3.8-4.8Zm-4.8-44.6,1.6,9.2,9.6-10.8Zm4.6,34.6L244,63.23l5.8-4Zm-4.2-36.2L255,14l-6-4.6a6.74,6.74,0,0,1-1.6-.2Zm1.4,13,5,8.4h.2l7.4-7.4Zm12.4-.2-1.6-12.2-10,11.4Zm-4,20.8-4.6.6,1.4,8c.53-1.33,1.1-2.73,1.7-4.2A38.08,38.08,0,0,0,254,49.43Zm.6-1.2V48l-3.6-7.4-1.2,7.8Zm2.2-34.2a.18.18,0,0,1,.2-.2l2.8-3.6q-4.39-.4-8.6-.6Zm1,25-5.8-.2,3.4,7c.4-1.07.8-2.2,1.2-3.4S257.38,40.1,257.78,39Zm.8-8-6.2,6.2,6,.2c.4-.93.8-1.8,1.2-2.6Zm-.6-15.6,1.6,11.8,7.4-11.4Zm.6-1.6,8.2.4-2.8-3.8h-1.8a2.28,2.28,0,0,1-1-.2ZM263,29l-3.4.8V30l.8,3.2A25.35,25.35,0,0,1,263,29Zm1-1.6a21.14,21.14,0,0,1,2.2-2.6l.2-.2.8-6.2-6.4,9.8Zm1.4-17,2.8,3.6.6-3.4a.18.18,0,0,0-.2-.2,3.9,3.9,0,0,0-1.8,0h-1.4ZM272,14l-2.8,1.4-.8,5.6a21.28,21.28,0,0,0,1.8-3c.53-1.07,1.07-2.2,1.6-3.4A1.63,1.63,0,0,0,272,14Zm-2.4-.6,1.4-.8-1-1Z"/><path class="cls-1" d="M285.38,148c-.13-.14-.4-.47-.8-1a4.14,4.14,0,0,1-.8-1,9.58,9.58,0,0,0-.7-2.1,9.14,9.14,0,0,1-.7-2.3v-3.2a8.81,8.81,0,0,0,.2-1.4c.13-2.93.2-5.67.2-8.2v-15.6q.2-18.2.4-36.5t.2-36.5q0-6-.2-12t-.2-12v-.8a40.35,40.35,0,0,1,.3-5,7.49,7.49,0,0,1,2.3-4.4,7.18,7.18,0,0,1,4.2-2.4,30,30,0,0,1,5-.4,1.17,1.17,0,0,0,.8-.2H297q4.61,0,9.3-.1c3.13-.07,6.3,0,9.5.1,1.2,0,2.5,0,3.9.1a23,23,0,0,1,3.9.5,23.79,23.79,0,0,1,2.9.6,9.18,9.18,0,0,1,2.7,1.2,10.53,10.53,0,0,1,2.3,2.2c.6.8,1.17,1.6,1.7,2.4a33.54,33.54,0,0,1,2.1,3.6c.6,1.2,1.23,2.33,1.9,3.4a38.44,38.44,0,0,1,7.1,10.4q2.7,5.81,5.3,11.5a34.25,34.25,0,0,0,7,10.1l.2.2.2.2q1.2,1.8,2.4,3.7t2.4,3.9v-5.4a32.58,32.58,0,0,1-.2-3.5v-3.5q-.19-3.19-.3-6.3c-.07-2.07,0-4.17.1-6.3s0-4,.1-5.9.17-3.9.3-5.9v-5a34.08,34.08,0,0,1,.3-4.6,7.39,7.39,0,0,1,2.3-4.2,6.93,6.93,0,0,1,4.8-2.4A43.16,43.16,0,0,1,375,4h11.4c2.93,0,5.87-.07,8.8-.2h6a6,6,0,0,0,1.4-.2c1.87,0,3.77.07,5.7.2a7.78,7.78,0,0,1,5.1,2.4,6.9,6.9,0,0,1,2.2,4.3c.13,1.53.2,3.1.2,4.7v1q-.19,5-.3,10.1t-.3,10.1c-.13,3.73-.23,7.47-.3,11.2s0,7.53.1,11.4q0,3.8.3,7.5t.3,7.5q0,3.41-.1,6.6c-.07,2.13-.17,4.27-.3,6.4-.13,1.6-.23,3.23-.3,4.9s-.1,3.37-.1,5.1v4.6c0,1.6.07,3.2.2,4.8V117c0,2.67-.07,5.33-.2,8s-.2,5.33-.2,8v8.6a11.33,11.33,0,0,1-2.5,5.4,10.19,10.19,0,0,1-5.3,2.6,14.45,14.45,0,0,1-2.8.5c-.93.06-1.87.1-2.8.1h-2.8l-9.7.4q-4.9.19-9.9.2h-1.2c-1.47,0-3-.07-4.5-.2a14.06,14.06,0,0,1-4.5-1.2,11.39,11.39,0,0,1-3.7-3.2c-1-1.33-2-2.67-2.9-4q-3.19-4.39-6.4-9.1t-6.2-9.3a53.48,53.48,0,0,1-5.5-8.9q-2.29-4.7-4.9-9.1l-2.2,2.4v5q0,5.2.1,10.5t-.3,10.7v4.8c-.13,1.73-.3,3.37-.5,4.9a7.45,7.45,0,0,1-2.3,4.3,9.07,9.07,0,0,1-5.2,2.2,40.25,40.25,0,0,1-5.6,0,10.4,10.4,0,0,1-1.3-.1,10.21,10.21,0,0,0-1.5-.1q-7-.41-14.3-.5a106.19,106.19,0,0,0-14.1.7,6.41,6.41,0,0,1-1-.2l-.8-.2Zm1-26.6,1.2-.2v.4l4.6-1-4.6-4.2v.6l-1.2-1.2Zm1,16.4.6,5.8a6.34,6.34,0,0,0,.8.6L292,143l-4.6-6Zm.2-31.2,1-3.4a10.53,10.53,0,0,0-.8-1.8v2.7A15.53,15.53,0,0,1,287.58,106.63Zm7.8,3-5.8-5.4-2,7.2v1.4Zm-2,10.4-5.8-5.2v.6Zm-5.8,1.2V117l4,3.6Zm0,9.2,4.8-8.2-4.8.6v7.6Zm12.4,2-6.6-9.6-5.8,10.2Zm-6.8,9.8,6.4-8.2-12,.6Zm-5.4-130.6V16l6-8-4.2.8a2.21,2.21,0,0,0-.6.4A6.94,6.94,0,0,0,287.78,11.63Zm2.4,14.6-2.4-4.8c.13,1.6.2,3.4.2,5.4Zm-.6,74.2,5-9.4-6.8-2.4V92Zm-.4-63.8,1.6-9.2-2.8.8c0,.8,0,1.67.1,2.6s.1,1.87.1,2.8Zm.8,35.2-1.8-5.2c-.13,1.47-.2,3-.2,4.6Zm-2,8.8,2.4-7.4-2.4-.8Zm0,3.4v2.8l6.6,2.6L291,75.63Zm5.4-36.8-4-7-1.2,3.4V47Zm-5.2,9.6,5.8-8.4-5.8-.2Zm0,2.2v.4l9.2,2-3-11.6Zm3.2,12.2,5.8-8.2-9-2v.8Zm0-46.2,5-8.6-8,2.2Zm-.2,121.6a2,2,0,0,1,.4-.8h-.4c.27,0,.4-.07.4-.2l-1.4-.6-1.6.6Zm6.2-132v-.2l-2.4-6-6.2,8.8L295,9Zm3.8,85.4-11.2,2.8,6.6,6.2h.2Zm-11-62.4,8,3L291.78,29ZM300.58,99l-4.8-6.8-5,9.2ZM291,39.63l4,7,3.6-4.2Zm4.8,49.4,4-16.4-8,1Zm4-48,4.2-15.6-11.8,1.8Zm3.4-16.6-5.2-7.8-5.2,9.2Zm-3.8,47-1.2-7-5.4,7.6Zm-5.8,73.2-.6,1a7.56,7.56,0,0,0,1.8-.2Zm7.6-12.4,1.4-11.4-8.4.8Zm-1.6,13h1.8l-.6-9.8-6.4,7.6Zm2.2-25.4-4.8-8-2.4,8.6Zm-.2-66.8-6-5.2v.4Zm-2.8,8.2,3-6.2-6.2-5.2Zm-2.4-53.4,1.8,5.4,3.8-5.4h-5.6Zm4.4,66.4-4,15.6,13-1.2Zm8.4,16-12,1,4.8,7Zm-7,10.6-4,8.2,11.8-.2Zm-4,9.8,5,8.4,7-8.6Zm.8-95.8L310,17l-7-8.8Zm.4-.4,3.8-5.8,6.2,8.4Zm6.2,49.2-6-.4,1.2,7Zm-5.8-2,5.8.4-3.2-5.6Zm1-19.2,1.8,9.4,6.2-14Zm.4-2,8.2-4.8-4.6-8.4Zm10.2,33.8a.18.18,0,0,0-.2-.2l-10-1.4,9.6,15.4Zm-.8-1.6-3.8-8.2-5,7.2Zm-2.4,62.2-6-.6.6,10.2Zm-5.8-2.2,5.6.6-4.4-10ZM315,98.83l-12.2,1,8.8,9ZM303.18,55l4.2,6.8,7.2-6.2Zm11.4-.6-4.4-16-6.6,15.4Zm-.2,43.2-3.4-7-7,7.8Zm-5,35.8h.2l9-9.4L304,121Zm7.2,9.6-7-7.4-5.4,9.6h3Zm-12-135.4,6.8,9.2,3-9c-1.6-.13-3.23-.2-4.9-.2Zm13.2,115-6.2-11.6-7,8.8Zm-5.4-94.2-1.6-8.6-4.8,5Zm6.6,32.2-10.8,2.8,3.8,8.4Zm-3.4-4.4-5.6,5,8.8-2.2Zm-4.6,77.6,7,1.6.4-9.6Zm10.4-96-10-.8,4.4,15.6Zm-9.8-2.4,8.4.8-6.4-5.2ZM318,137l-6.2-1.4,5.8,6Zm-6-48.8,11.4-2.8-10.6-10Zm4.4,56-4.4,1a21.68,21.68,0,0,0,3,.2Zm-4.2-125.6,1.6,9,7.8-13.2Zm.6-1.8,9.2-4.4-6.4-4Zm0,92,5.2.6-2.4-8.4Zm10.2-32-2.8-15.2-7,11.6Zm-9.8,33.8,5.4,10-.2-9.6Zm10.2-32v-.2c0,.13-.07.07-.2-.2l-9.4-3.6,10.6,10.2Zm0-64.2-8.2,14,12.8-3.6ZM316.18,99l3,10,4.4-11.8Zm4.2-40.2,5-8.8-9,5.4Zm2.8-47-.4-3.6h-.2c-.8-.13-1.67-.23-2.6-.3s-1.8-.1-2.6-.1h-.6Zm-5,132.6-1.4,1a26.43,26.43,0,0,0,3.2.2Zm7.2-95.8-2.8-9-5.4,13.8Zm-2,47.4.6-7.6-6.4,8.8Zm-4.6,46.8v.2h.2v.4l3.6,2.4h.2l-.2-.4Zm8.8-21.4-7.4,2.6c0,.13-.13.33-.4.6l-.6,10.2Zm-.4-1.2-7.2-7.8.2,10.2Zm4,15L320,137l4.2,8.6Zm-10.8-25.8,11.2.6-7.2-11.6Zm8,13-8,13,11.6-2ZM321,111l7.4,8.2,3.4-7.6Zm9-48.6-8.4-2,2.8,15Zm-3.8-11.6-4.4,8,8.2,1.8Zm9.6-12.8h-12.2l3.2,9.4ZM324,9l.4,3,5.2,1.4Zm5.2,17.8-5.2,9.6h12Zm6.4,45.8-10.8,5.8,9.2,11.4ZM325,13.83l4.2,9.4,2.4-6.4a8.77,8.77,0,0,0-.8-1.6Zm.8,71.4,5.4,3-6-7.6Zm5.8,6.2a2.24,2.24,0,0,1,.8-.8l-6.6-3.6-.6,8.2Zm.4,8.6-6.8-2.6,6.8,11V100Zm-.2,36.4-6.6,9.6a11.57,11.57,0,0,0,3,0,3.27,3.27,0,0,0,2.2-1.2,4.19,4.19,0,0,0,1.2-2.5,22.57,22.57,0,0,0,.2-2.9v-3Zm3.4-65-4-7.8-5.6,12.6ZM332,98.63v-3a3.38,3.38,0,0,0-.2-1v-.2l-.2-.4v-.6l-5.6,3Zm3.2-43.2V55l-8-5,4.2,11Zm.2-1.8,1.2-14.2-9,9.4ZM332,115l-2.4,5.2,2.6,1a25.7,25.7,0,0,1-.2-3.1Zm5.4-90.2a.18.18,0,0,1-.2-.2l-7.2,1v.2l7.2,10.2Zm-4.8-6.2-2.2,5.8,6-1a33.89,33.89,0,0,0-2.8-3.2l-.2-.2v-.2A4.77,4.77,0,0,1,332.58,18.63Zm-.4,104q0,4-.2,7.2l.6,1.8Zm3.8-66.2-3.6,5,9.8,4Zm6.6,11-9.8-4,3.8,7.2Zm-7.4,23.4a.59.59,0,0,1-.2.4l1.2,2c.27-.53.47-.2.6,1l3.8,7.4.2-2c-.53-.8-1.07-1.53-1.6-2.2-.67-1.07-1.4-2.2-2.2-3.4-.13-.27-.33-.73-.6-1.4A4.18,4.18,0,0,0,335.18,90.83ZM342,86l-5.2-11.2-1.4,14.6Zm-5.2-30.6,7.8,11,10.2-10.8Zm0,46.8v4.2l1.6-1.8Zm1.6-64.4-1.2,12.4,6-13.4Zm5.8.4-7,16,16.8-.6c-.4-.53-.73-1-1-1.4a36.69,36.69,0,0,1-4.9-6.6Q346,42,344.18,38.23Zm-1,47.4,8.2-9.4-14.2-3.4Zm-4.6-58.8-.2,9.4,4.4-1c-.4-.93-.83-1.9-1.3-2.9s-1-2-1.5-2.9Zm10.6,71-5.8-9-1.6,12.4.2.2Zm-.6,10.6,1.2-9.6-7.2,3.6c.4.67.87,1.47,1.4,2.4Zm1.8-11.8,5.6-11.8L344.38,87ZM345,85.23l11.2-2-4-6.2Zm5.8,32.2-2.2-7.4a.18.18,0,0,1-.2-.2l-3-2.4q1.2,2.59,2.5,5.1A52.05,52.05,0,0,0,350.78,117.43Zm-4.6-49.6,6,6.6,5.2-7.4Zm9.2-11-9,9.4,11.6-1Zm-5.6,51.8,8.8,1.6-7.6-10Zm2.6,10.2,6.4-6.8-8.8-1.8Zm8-8.2,5.6-13.8-14.8,1.8Zm5-14.8-7.8-10.4-5.8,11.8ZM353.18,76l4.2,7h.4l7.4-6Zm11.4,48.6-4.4-11.8-6.8,7.2Zm-5.8,4.6L365,126l-11.4-4.6q1.2,2,2.5,3.9T358.78,129.23Zm.2-61.8-5.2,7.6,10.8.6Zm-1.8-8.6,2.2,6.8c.13-.13.2-.13.2,0l1.8-.2a2.21,2.21,0,0,0-.4-.6c-.53-.93-1.13-1.9-1.8-2.9S357.85,59.9,357.18,58.83ZM367.58,86l-8.4-1.2,7.2,9.6Zm-8.2-2.8,8.2,1.2-1.8-6.4ZM360,130l7,4.4-1.6-7.2Zm.4-63.4,5.4,8L368,66l-1.2.2a2.25,2.25,0,0,1-1.8,2.6c-1.07.27-1.8.13-2.2-.4a7.81,7.81,0,0,1-1-1.8Zm6,73.6.8-3.6-6-4,1.2,2q1.8,2.6,3.6,4.8Zm2-30-7,1.8,4.4,11.2Zm-6.6,0,6.6-1.6-1.8-9.6Zm4.4-81,.4,8,11.2-8.6-11.4-4.2Zm.4-15.6v6.8a.82.82,0,0,1-.2.6l5-6.4Zm6.2,38.4-6.2-11.4-.2,3v4Zm-3.6,12,4.8-9.8-7.6-5a15,15,0,0,1,.2,2.4v1Zm-2.6,1,1.6-.2-1.6-6.8c-.13,1.73-.2,3.53-.2,5.4A12.84,12.84,0,0,0,366.58,65Zm0-53,3.4.6-2.8-2.2A4.32,4.32,0,0,0,366.58,12Zm1.8,123,9.2-8-11-.6v.2Zm8.8-108-4.6-11.4-5.8,7.6Zm-8.6,57,3.2-10-4.8,2.8a.59.59,0,0,0-.2.4Zm9.2,41.8-8-14.4-2.8,13.8Zm-6.4-53-2.2-5-1.8,7.2Zm3.4-20.6,3.6-14-10.8.6Zm-3.8,44-2.2-7.2-1,6.8Zm1.6,48.8-4-6.6-.8,3.6a.59.59,0,0,0,.2.4Zm-.4-132,.8-4.4c-.93,0-1.83,0-2.7.1a3.22,3.22,0,0,0-2.1.9Zm-3.6,24,10-.4L378,30Zm6.4,108.6,6-12.6-11.6,3.6Zm-5.4-60.8,14,1.6-10.8-11.6Zm3,11,10.8-7.8-13.6-1.6Zm-2.4-30,2.4,5.8,4.8-7.6Zm.2,42.8,7.2,2.6-5.2-11.6Zm.2-44.6,7.4-1.8-3-6Zm.2,71,8.2-7.2,2.8,3.4-3-3.8Zm7.6-11.4v-10.4l-7.2-2.6Zm1-11.8,8.4-11.6-15-2.4ZM375,8.63h-.8l-1,5a.59.59,0,0,1,.4.2l1-5,9.6,9Zm10.4,78,4.2-14.2-16.4,1.2Zm3-15.2-9-7.4-5.4,8.2Zm-9.6-44.6,5.8-7.6-10.4-3.8Zm8.8,72.2-2.4-10.2-11,8Zm-3.4-91.4h-8.6l1.2,1.2h-.6l9,8.4-8.4-8.4h.8c1.2,0,2.37,0,3.5-.1A5.82,5.82,0,0,0,384.18,7.63Zm-5,54.2,5-11.8-8.4,4.6v.2h-.2Zm4.8-13-4.4-9-3.4,13Zm4.2,96.4-5.6-11.8-6.2,12.6h4.4Zm-8.4-108.8,6.8-9.4-7.4,1.8V29H379Zm7.4,87.4-7.2-9v10.8Zm-7,3,2.6,3.8,4.8-5.8Zm6.4-101-1.2-5.2-4.8,6.6Zm5.2,11.2-11.2,1,4.6,9.6Zm-11.2,24.6,8.8-2.2L385,51Zm.2,51.6,7.4,9.4,3-10.6Zm.2-50,8.6,7.2.2-9.4Zm0,48.4,10.4-1.2-3-8.8Zm.2-75.2,10.8-1-4.4-7.6Zm2.8,94.8,7.8,1.6-3.4-7.2Zm8.2,3.4-8.2-1.8,5.2,11Zm-1.6-75.4h.2l4.8-5.4-9.8-3.8Zm-4-41.4,3.6-1-4.2-6.6Zm8.8,34.6L393,38.23l-6.8,10.6Zm-9-43.6,5.2,7.6,6.2-7.8h-2.4c-1.6.13-3.13.2-4.6.2Zm4.2,76.8-4,2.2,2,8.4Zm-3.8-66.2,1,4.4,2.2-5.4Zm.2,66.4,3.8-2L390,76Zm9.6-56.8-5.2-9.8-2.8,6.8Zm-3,6.2,3.8-4.6-8.8-3.4Zm-1.2,74.6,9.2-10.6-12.2,1.2a.18.18,0,0,0-.2.2Zm-3,14.8h-.2l3.8,8.2,6.2-9ZM401.58,98,392,86l-2.4,13.2Zm-9,15-3,10.4,9.4-.8Zm4.6,32.4-3.8-9-3,9,2.6.2C394.31,145.63,395.71,145.56,397.18,145.43Zm-6-73.4,4.6,2.6-5-3.2h.2v.2A.59.59,0,0,1,391.18,72Zm-.2,1.4,5,3.4v-.4Zm1-13.6,11,5.4L396.18,55Zm0,1.8,5,13.2,6.8-7.4Zm.6-43.8,5.6,10.8,7.6-14.4Zm4.4,59.8-4,6L405,85Zm9.4,9.2-13-1.6L403,97Zm-12.8-71,12-3.2-5.6-4h-.8Zm8.8,84.4-8.8,10.6,8.8-10,.4,11.6Zm-2.4,21.2,2.2-8L394,112Zm6.8-85-12.4.4,2.4,14.6Zm-6.6,88.2-5.8,9,6-8.6,5,8.6Zm4.4,10.2h-10.2l4.4,10.6Zm-9.4-99.6,10-.4-6.8-3.4Zm10,30.8,4.8-13.8V49l-12.8,5Zm4.8-18.4a23.32,23.32,0,0,0,.2-3.2l-2-7L398.38,52Zm-4.8,20.8-6.4,7,10.8-1.6Zm5.4-40.4-11.2,2.6,8.8,4.2Zm-3.4-12.8-7.4,14,10.6-2.4Zm1.6,128.4-3-7.6-5.2,9.4h2.7a7.75,7.75,0,0,0,2.5-.4A7,7,0,0,0,408.78,143.63Zm1.2-18.8v-.2l-6.4-9.8-2.2,8Zm-.2,3.4a11.53,11.53,0,0,0,.2-2.2l-8.4-1.8,4.8,8.8Zm-2.6-116h.2l2.2-3a.59.59,0,0,1-.4-.2l-5-.6h-2.4Zm1,84.4-4.2,2.2V109Zm.4,2.2-4.2,12.8,5.8-1.4v-4.6Zm-4.2,14.4,5.6,8.6a15.53,15.53,0,0,0,.2-2.5v-7.5Zm3.6-17.8-1-5.8-2.4,7.4Zm-.8-31.8,3-3.2V59a26.43,26.43,0,0,0-.2-3.2Zm2.6,71.2h-2.6l2.4,6.6a1.82,1.82,0,0,0,.2-.8,7.23,7.23,0,0,0,0-2.4v-3.4Zm0-4.6-2.2,3h2.2v-3Zm.6-44.4a1.82,1.82,0,0,1,.2-.8l-2.4,1.6.8,5Zm.4-7.4-2,5.8,1.8-1.2c0-.67,0-1.4.1-2.2S410.78,79.23,410.78,78.43ZM409,12l1.8-.2-.6-1.4Zm1.6,19.8-1.2,3.6,1,1.4v-.6C410.51,34.76,410.58,33.3,410.58,31.83ZM409.38,97l.6,2.6a6.94,6.94,0,0,0-.1-1.2A5.07,5.07,0,0,0,409.38,97Zm.8-34.8c.13,1.87.27,3.73.4,5.6s.2,3.73.2,5.6l.4-6.4V61Zm1-37.4V13a13,13,0,0,1-.2,2v5.2C411,21.56,411.05,23.1,411.18,24.83Z"/><path class="cls-1" d="M548.58,19.83a.18.18,0,0,1,.2.2l.8,1.2,1.6,1.4a.56.56,0,0,1,.8.4l.4,1.2,4,5.6q3.2,2.81,5.8,5.4l.4.4a1.63,1.63,0,0,1,.2.6,49.39,49.39,0,0,1,4.6,16,4.54,4.54,0,0,1,.2,1.4q.2,1.2.3,2.1a3.91,3.91,0,0,1-.5,2.1c-1.47,3.07-3.14,4.83-5,5.3a24.6,24.6,0,0,1-7,.5H555q-7.2-.6-14.5-.7t-14.5-.5h-8.4l-.2-.2c-1.07-.13-2.1-.23-3.1-.3a5.46,5.46,0,0,1-4.3-3.8,15.25,15.25,0,0,0-.8-2.9c-.54-1.07-1.1-2.23-1.7-3.5a14.57,14.57,0,0,0-2.1-3.3c-.27-.27-.64-.6-1.1-1a5.73,5.73,0,0,0-1.9-1,8.66,8.66,0,0,0-1.4.2h-1q-3,.19-5.9.5a17.2,17.2,0,0,0-5.5,1.5l-1.2.6-1.2.6V51c.13,1.07.2,1.73.2,2v2.2a11.53,11.53,0,0,1-.2,2.2c0,2.93,0,5.8-.1,8.6s-.1,5.67-.1,8.6V83c0,2.8.06,5.6.2,8.4v2.2q0,3.2.3,6.6a10.17,10.17,0,0,0,2.3,5.8.18.18,0,0,0,.2.2l3.6,2.4a13.17,13.17,0,0,0,6.5.4,13.43,13.43,0,0,0,5.7-2.2,7.73,7.73,0,0,0,2.8-3.3q.8-1.91,1.8-3.9a25.43,25.43,0,0,0,1.3-3.1,4.92,4.92,0,0,1,1.9-2.5,8.62,8.62,0,0,1,4.4-1.9,38.66,38.66,0,0,1,4.8-.3,6,6,0,0,1,1.4-.2q6.6-.41,13.2-.6l13.2-.4c1.2,0,2.4,0,3.6-.1s2.4-.1,3.6-.1h1.6a7.14,7.14,0,0,1,1.7-.2,3.72,3.72,0,0,1,1.9.6q4.59,2.4,5.3,5.1a22.84,22.84,0,0,1,.3,7.3,69.76,69.76,0,0,1-2.9,12.4,31.61,31.61,0,0,1-6.1,11,39.05,39.05,0,0,1-5.8,6.1,76.27,76.27,0,0,1-6.8,5.1,32.4,32.4,0,0,1-9.2,6,82,82,0,0,1-11.1,4Q520,149.42,515,151h-.4a62,62,0,0,1-8.5,1q-4.31.19-8.5.2l-5.6.2h-.2c-3.47-.14-6.94-.4-10.4-.8s-6.94-.94-10.4-1.6q-5.81-1.2-11.8-2.9a32.78,32.78,0,0,1-11-5.5v-.2H448a71.64,71.64,0,0,1-11.3-15.3,121.06,121.06,0,0,1-8.3-17.3l-.2-.2a40.86,40.86,0,0,1-1.3-9.6q-.11-5-.1-9.8c0-1.2,0-2.37.1-3.5a19,19,0,0,0-.1-3.3v-1.8c-.14-2.93-.2-6.47-.2-10.6s.13-8.4.4-12.8a64,64,0,0,1,1.8-12.1,18.81,18.81,0,0,1,4-8.3q4.39-5,8.8-10l3.2-4.2v-.2a.63.63,0,0,1,.4-.6l2.4-1.4q6.19-6.19,12.4-12.2l.2-.2.4-.2a38.83,38.83,0,0,1,11.8-4.2q6.39-1.2,12.4-2.2a93,93,0,0,1,20.9-1.3,37.32,37.32,0,0,1,9.7,1.7l.4.2.4.2q2.19,1.4,4.5,2.9t4.7,3.1l1.2.2.2.2,9.4,4,.2.2,5.4,2.2a.56.56,0,0,1,.4.8l2.2,1.6Zm-112.2,32-4.8,14.6V67l12-3.2Zm-1.8,25.4,8.2-11.6-11.2,3v1Zm-1.6.2-1.4-3.6v3Zm-1.4,7.8,2.2-5.8a.59.59,0,0,0-.2-.4l-2-.8v4A11.57,11.57,0,0,1,431.58,85.23Zm0,4.2,9.6-1.4-6.6-7.6-3,8.4v.6Zm9.6.2-9.6,1.4,4.6,7.2Zm-6.2,10-3.4-5.6c0,1.2,0,2.47.1,3.8s.1,2.6.1,3.8ZM431.78,62l3.8-11.6-2.8.4c-.27,1.73-.47,3.57-.6,5.5S431.91,60.16,431.78,62Zm1.4,46,2.4-7.2-3.6,2a34.55,34.55,0,0,0,1,4.4A1.69,1.69,0,0,0,433.18,108Zm2-58.8-.8-5.6a39.51,39.51,0,0,0-1.4,6Zm-1.2,60.6c.13.4.26.8.4,1.2l5.6,3.8-3.8-12.2Zm9.4-31.2v-.2l-8.2.8,7.4,8.4Zm-6.8-38.8-.2.2a6.14,6.14,0,0,0-.8,1l1.2,7,7.2-8.6Zm1.8,79.4,1.8-2.2-4.4-3.2C436.58,115.7,437.44,117.5,438.38,119.23Zm4.8-42,.6-10.2L436,77.83Zm-1.8,38.2,5-15.8-9.6.8Zm7-64h-.2L437,50.23l7.6,13Zm-2.6,47-3.2-8-5,8.6ZM448,50l-2.6-9.8-7.6,9Zm-7.4-14.8a26.64,26.64,0,0,0-2.6,3l5.8-.4Zm5.4,85.6-4.4-3-2.4,3,.2.2Zm-1.2,9,3-8-7.8.4Q442.38,126.43,444.78,129.83Zm.6-97.2h-.2l-2.2-.2a22.59,22.59,0,0,1-1.6,1.8l4,3.6Zm1.8,68.8-4.6,14.2,9.6-3.4Zm1.2,18.8,3.4-6.2-8.6,3ZM443.58,88l9.8,1.4-8.8-9.6Zm10.4,3.2-10-1.6,3.2,8.2ZM445.58,65l-.6,10.8,9.8-10.8Zm9.6,24.6L461,79l-16-.6Zm-9.6,41.4v.2l8.2,2.4-5.2-10.2Zm3.6-78-3.4,10.4h9.4ZM461,77.83l-4.6-12.2-10.6,11.6Zm-10,58.4c-.14-.13-.2-.07-.2.2l-3.2-2.6a2.59,2.59,0,0,0-1.4-1.2l1.4,1.2a19.24,19.24,0,0,0,1.6,1.8l1.2,1,.2-.2Zm-1-111.4q-1.61,1.8-3.4,3.8v1.2Zm-3.4,13.4,4.2,2.6-4-6.2Zm7.2,4.4,8.2-12-15.2,2Zm7.8-13.2-5.2-11-8.8,12.8Zm-8.2,82.2,2.4-7a.78.78,0,0,1-.2-.6l-7.8-4Zm2.2-9-.6-10.2-6.6,6.6Zm5.4,24.2-7.6-12.6-3.8,6.8Zm1.2,2-12.6-6.4,6.2,11.6Zm-2-71.8L450,52l6.6,11.4Zm-1-1.8L453.58,45l-3.4,5.6Zm1.4,87.2-9.6-4.8a.57.57,0,0,0,.4.2,20.69,20.69,0,0,0,4.4,2.7A47.8,47.8,0,0,0,460.58,142.43Zm0-1.2-5.4-5.4-2.6,1.2Zm-3.8-36-2.2,6.6,12-.4ZM463,127l5-14-13.2.4Zm-8-84.2,12.8,1.2-5.2-12.4Zm12.6,2.8L455,44.43l6.2,11ZM457,102.23l10.2-9-10.8-1.6Zm5-22.4-5.4,10.6,5.6-10,6.2,11.6Zm11,19-15.6,5.4,11.6,7.2Zm-6.8,35.8L463,130l-5.4,4.2Zm-5.6-75.2-2.8,4.4,3.6,1.6Zm7.8-38.6L458,18l5,10.4Zm-10.4,45,3.4,8.8.2-7.2Zm14.2,32-3.2-4-9.2,8.2Zm-9.8-85.2a.18.18,0,0,0-.2.2l-1.2,1a8.15,8.15,0,0,1,1.2-1l6.4,6.8Zm-.8,45.2,1,8.2,11.6-12.4Zm12.6-5.4-5.2-6-6,9.2ZM463,77.83l10.6.6-10.4-9.8Zm.4-66,6.4,7.4L473,8.63l-9.2,3A.57.57,0,0,0,463.38,11.83Zm5.2,31,2.2-13.8-7.4,1.4Zm-.8,91.8,5.8-8.6-9.6,3v.2ZM464.18,66l14.2-.4-3.2-11.2Zm.2,1.6,11,10.2,3-10.6Zm6.2-39.8-1.2-5.6-4.8,6.6Zm3,97-4.4-10.4-4.6,13.2Zm.8,21-6.4-8.6-2,6.4,5.8,1.6.2.2Zm-5.6-10.6,4.6,4.2.4-11.4Zm10.6-93.8-7.6-11.2-1.8,14,2-13.6Zm-5.6,59-3.6,11,9,.8Zm4.8-57.6-8.2,2.6,5,5.8Zm-6.8-17.4,2.2-7.2-3.4,2.6Zm3.4,56.6-4.6,9.4L476,90Zm-4-63.6,3.4-2.6-1-4.8Zm8,9.8-3.6-9.6-3,9Zm-3.4-12.8,8.6-9-10.2,2.2Zm5.6,87.6-7-3.8,5.8,12.6Zm-.8-1.8-3.8-8.6-2.2,5.2Zm3,25.6L475,126l-.4,13.8Zm-.4-1.4-3-10-4.4,9.2Zm0,21.6-7.4-4,1.2,3.2C479,146.5,481,146.76,483.18,147Zm-1.8-97.2-5,3.2v.2a.18.18,0,0,0-.2.2l3.2,11.6,2-5.4v-2.4a11,11,0,0,0,.2-2.1V51A5,5,0,0,1,481.38,49.83ZM476.18,80l.8,8.8,3.2-8.6Zm15.4,54.2-7-6.6-8.4,12ZM479,70.63l-2.2,8,3.2.4Zm5.8-63-7.8,8.2,9.8,3.4Zm-7.8,10,3.6,10,5.8-6.8Zm4.6,30.6a9.85,9.85,0,0,0,.4-1,5.24,5.24,0,0,1,2-1.8l-3.6-2.6-3.2,8.2Zm-.4,39.4-3.4,3.2,3.6,8.4v-7.6c0-.67,0-1.33-.1-2A19.13,19.13,0,0,1,481.18,87.63Zm-2.4.2,2.4-2.4v-.2l-.4-2.4Zm1.6-19.2L481,73l.2-1.6a8.09,8.09,0,0,0-.1-1.2A5.14,5.14,0,0,0,480.38,68.63Zm.4-28.2,7-3-6.6-6.4Zm.4,72.4,3.8,1.8-2.6-8.2Zm8-75.8,3.6-7-11.4-.4Zm-3.4,7.6a1.53,1.53,0,0,1,.6-.2L488,39l-6.4,2.8Zm-4.2,33.6.2,1.4v-3Zm.2,36.6,2.4,8.2,1.2-6.4Zm10.4-86-4.4-7-5.8,6.6Zm-8,79.2,2.8,7.2,2.6-2.6A13.72,13.72,0,0,1,485,109,6.14,6.14,0,0,1,484.18,108Zm2.6,9.8-1.4,7.8,10,.6Zm-1.4,9,7.6,7h.2l3.4-6.4Zm.8-120.6-.2.2,2,12.8,7.4-12.8Zm1.6,110.2,9.2,9.2,3.8-12a19.4,19.4,0,0,1-6.2.2Zm4.6-73.8-2.8-3.4-1.4,4.4A39.12,39.12,0,0,1,492.38,42.63ZM489,21l4.6,7,5.8-9Zm7-13.2-6.6,11.4,10.4-2ZM490,114l1.6-.6a.46.46,0,0,0-.5-.1A5.23,5.23,0,0,0,490,114Zm2.6,31.4-.2-6L490,147ZM490.38,37l12.8,2.4-9.4-8.6Zm12.4,3.8-11.6-2,3,3.4c.93-.13,1.86-.23,2.8-.3s1.86-.1,2.8-.1h.2Zm-9.4,105.8-1.4,1h3.4Zm-1.2-141.4h4l8.4-.4A65,65,0,0,0,492.18,5.23Zm7.6,132.4-5.8-1.8.2,8Zm-5.4-3.4,5.4,1.8-2.6-7Zm13.2,12.8-6.4-8.6-6.2,6.8,11.4,2A3.87,3.87,0,0,0,507.58,147Zm-12.4-118.4,10.4-.8-4.6-8.4ZM505.78,6h-.2l-8.6.4h-.2l4.2,10.4Zm-5.2,141.4-3.8-.6,1.8.6Zm.6-11.6,3.4-12.8-6.4,4.2a.59.59,0,0,1-.2.4Zm-2.4-10.6,5.6-3.4-1.8-8.6Zm3.4-108,13,2-8.6-12Zm3.4,107-3.4,12.2,11.4-.2Zm-3.2-105.4,4.6,8.6,8.2-6.6Zm11.4,119-11,.2,6.6,9h.2Zm-7.8-26c-.54.27-1.14.53-1.8.8l1.4,7.8,6-6.8Zm11,15.8-4.4-12.8-6.2,7.2Zm.6,1.6-11.2-6,8.6,13,2.8-6.6Zm-3.8-88.8-6.4-9.4-.8,8.8Zm-4.6,5a.61.61,0,0,0-.4-.2,7.43,7.43,0,0,0-.9-1.1q-.51-.5-.9-.9l.8,3h.2ZM514,7.23a.55.55,0,0,1-.2-.4l-6.6-.8,9,12.6ZM507.58,29l7.8,11.6,5-11.6Zm.2,81.6,4,1.4-1.4-4.2A10.45,10.45,0,0,1,507.78,110.63Zm1.2-82.8h11l-3.2-6.4Zm6.6,27-.8-12-5,3.6a15.54,15.54,0,0,1,1.7,2.5c.46.87.9,1.77,1.3,2.7Zm-2.4,57.4,6.4-10.8-6.8,2a15.86,15.86,0,0,0-.7,1.6c-.2.53-.44,1.07-.7,1.6Zm3.2,33.2-1.6-6-3.4,7.2a11.53,11.53,0,0,0,2.2-.2C514.38,146.16,515.31,145.83,516.38,145.43Zm2.6-45-3-3-.2.2a4.85,4.85,0,0,0-1.2,2,11.34,11.34,0,0,1-1,2.2v.2Zm-3.2-43.2v-.6l-1.8-2a5.23,5.23,0,0,0,.2,1.5,1.31,1.31,0,0,0,.6.9A.9.9,0,0,0,515.78,57.23ZM514,114l4.6,13.2,8.6-14.4Zm.4-1.8,12.8-1-6.8-9Zm3.2-93.2,8-4.2-10-6.6Zm-.4,35.6,6.2-9-7.2-3Zm1.4,76-2.4,5.8L526,139Zm7.8,10.2-10.2-2.6L518,145l1.6-.4,1.6-.4ZM521,31.23l-4.6,9.8,7.2,2.8Zm-3.4,65.6,2.8,2.8,3-3.2h-1.6c-.67,0-1.37,0-2.1.1S518.24,96.7,517.58,96.83Zm.4-76.2,3.2,6.2,4.4-10.2ZM532.18,56l-7.6-9.4-6.4,9.6Zm-1.4,1.8,1.2-.6-12.8.4H526C527.44,57.76,529,57.83,530.78,57.83Zm-1.4,67-10.2,4.6,8.8,10Zm-.2-1-1.2-9.6-7.6,13.2Zm-.8-12.8,4.8-12.4-11.8,2.8Zm-6.6-81.6,3,14.4,5.8-15.2Zm.6-1.6,7.8-.4L527,17.23Zm2.6,68.6,5.4-.4-3.6-1.6Zm8.2-41.6,1.8-15.6-9.2,6.2Zm-2-24.6-5,13,8.8-5.8ZM528,141.63l-1.6,1A3,3,0,0,0,528,141.63Zm.4-125.8,2.8,9.8,2.2-6.6Q531.17,17.64,528.38,15.83Zm2.2,111-1.4,12.6,7.8-1h.2Zm-1-15.4,4.2,2-.4-11.8Zm4,3.6-4-1.8.8,8.2Zm-4,26.6c.8-.27,1.53-.53,2.2-.8Zm14-17.8-12.8,1,7.4,13a.57.57,0,0,1,.4-.2Zm-1.2-1-7.6-6.8-3.4,7.4Zm-10.4-94,4,8,4.4-6.8Zm6-6.8c-1.07-.67-2.14-1.4-3.2-2.2l-2.6,7.8,7.8,1Zm-5.2,74,1.2.6,1.6-.8A20.17,20.17,0,0,0,532.78,96ZM536,58h-1.6l.2,1.8Zm-1,55.4,10.2-14.8h-10.8Zm6.2-63.8-4.8-9.2L534.78,55Zm4.6,50.4-9.6,13.8,14-.8Zm-9.2,15.4,7.6,6.8,5.4-7.6Zm7.6-18-1.6-1.8a23.32,23.32,0,0,0-3.2.2L537,97Zm-7-60.4,13.4,3.2-9.2-9.4Zm.2,1.8,5,9.8,9-6.6Zm7.6,19.4-3-6.8-4.6,6.6c1.2,0,2.43,0,3.7.1S543.64,58.23,545,58.23Zm-7.2-42c1.33.93,2.7,1.87,4.1,2.8s2.76,1.87,4.1,2.8l1-1Zm2.2,7.2,1.4,4.4,1.8-2.2C542.11,25,541,24.23,540,23.43Zm4.2,102.6-4,10.4a11.05,11.05,0,0,0,2.6-2.2l.2-.2h.2l2.8-2Zm.2-99.4-1.4,2,3.6-.4C545.91,27.7,545.18,27.16,544.38,26.63Zm7,23.2.8-6.4-7.8,5.8Zm3.8,73.4-10.2,1,2,7q2.19-1.8,4.2-3.6a36.26,36.26,0,0,0,3.8-4A.55.55,0,0,1,555.18,123.23Zm1-1.2a.55.55,0,0,1,.2-.4l-11.2,1.4Zm-8.4-63.8h-1.6l.8,1.6Zm-1.2,39.4v.2l.2.2,4.2,1.2Zm6.2,4-6-2.2,4.2,12.8Zm-.4-73-4.4.6q2.4,2,4.6,3.8Zm-3.8,66.8,4.8,4.4,4.4-4.6H557c-1.2,0-2.44,0-3.7.1s-2.5.1-3.7.1Zm9.2-36.4-5.4-7-3.2,6.4c2.13.13,4.13.27,6,.4H557A3.37,3.37,0,0,0,557.78,59Zm-5.6,54.2,5.4.6-3.8-9.8Zm10.4-60.6a11.53,11.53,0,0,0-.2-2.2L553,51l6.4,8a6.36,6.36,0,0,0,1.2-.4ZM554,42.43l-.8,6,6.6-7Zm4,73-4.8-.6,4.2,5.2a.59.59,0,0,0,.2-.4ZM553.78,34l.2,6.6,5.4-.6-.8-1.6C557.11,37,555.51,35.5,553.78,34Zm.2,67.6,4.8,12,4.2-11.4v-1a22.17,22.17,0,0,0,.2-2.4Zm8.2-52.4a48.13,48.13,0,0,0-1.6-6.2l-6.4,6.6Zm-2.2,46-4,4.4,7-2A6.49,6.49,0,0,0,560,95.23Zm.8,16.6c.26-.67.53-1.4.8-2.2Zm2.4-56.8-.6,1.6a8.42,8.42,0,0,1,.6-1Z"/></g></g></svg>